<?xml version="1.0" encoding="utf-8"?>
<!-- Generator: Adobe Illustrator 27.5.0, SVG Export Plug-In . SVG Version: 6.00 Build 0)  -->
<svg version="1.1" xmlns="http://www.w3.org/2000/svg" xmlns:xlink="http://www.w3.org/1999/xlink" x="0px" y="0px"
	 viewBox="0 0 3710 3710" style="enable-background:new 0 0 3710 3710;" xml:space="preserve">
<g id="Background">
	<g>
		<g>
			<rect style="fill:#FFFFFF;" width="3710" height="3710"/>
		</g>
	</g>
</g>
<g id="Illustration">
	<g>
		<linearGradient id="SVGID_1_" gradientUnits="userSpaceOnUse" x1="3395.4568" y1="3584.7734" x2="1360.9297" y2="1388.7758">
			<stop  offset="0" style="stop-color:#B37CFF"/>
			<stop  offset="1" style="stop-color:#F895E7"/>
		</linearGradient>
		<path style="opacity:0.3;fill:url(#SVGID_1_);" d="M3111.932,2333.356c-279.559,653.436-1017.504,934.102-1595.695,886.248
			c-157.87-13.066-475.507-39.356-723.521-273.894c-476.294-450.417-402.94-1391.912,53.01-1946.213
			c58.717-71.382,465.147-549.638,1098.491-543.236c463.701,4.687,789.168,266.625,828.743,299.258
			c49.994,41.224,160.262,139.184,259.64,294.592C3266.103,1415.266,3286.628,1925.024,3111.932,2333.356z"/>
		<g>
			<g>
				
					<linearGradient id="SVGID_00000101084714424326452240000012308041603245134490_" gradientUnits="userSpaceOnUse" x1="873.3389" y1="977.8398" x2="-2228.7852" y2="4513.7646" gradientTransform="matrix(-1 0 0 1 2062.8765 0)">
					<stop  offset="0" style="stop-color:#2B3582"/>
					<stop  offset="1" style="stop-color:#150E42"/>
				</linearGradient>
				<path style="fill:url(#SVGID_00000101084714424326452240000012308041603245134490_);" d="M799.229,1925.035
					c0,642.025,540.146,1162.489,1206.45,1162.489s1236.291-543.206,1236.291-1185.231
					c0-642.024-569.988-1139.746-1236.291-1139.746S799.229,1283.013,799.229,1925.035z"/>
				<g>
					<path style="fill:#FFFFFF;" d="M3147.246,1642.376c0.717,0,1.433-0.079,2.148-0.265c4.449-1.145,7.094-5.536,5.915-9.831
						c-12.985-46.972-29.566-93.57-49.294-138.487c-1.799-4.077-6.712-5.942-10.919-4.264c-4.238,1.74-6.215,6.441-4.425,10.535
						c19.427,44.213,35.755,90.088,48.529,136.355C3140.193,1640.009,3143.569,1642.376,3147.246,1642.376z"/>
					<path style="fill:#FFFFFF;" d="M2962.886,1279.093c1.741,0,3.505-0.534,5.011-1.615c3.67-2.666,4.401-7.713,1.635-11.241
						c-223.525-285.614-583.576-456.116-963.138-456.116c-162.1,0-318.891,31.672-466,94.102c-4.206,1.788-6.117,6.539-4.263,10.584
						c1.846,4.059,6.77,5.895,10.984,4.123c144.977-61.552,299.505-92.754,459.279-92.754
						c374.363,0,729.433,168.119,949.829,449.719C2957.866,1277.996,2960.355,1279.093,2962.886,1279.093z"/>
				</g>
				
					<linearGradient id="SVGID_00000090280485483803232240000017638517345094240188_" gradientUnits="userSpaceOnUse" x1="93.9846" y1="1862.3339" x2="-1205.9794" y2="3432.1021" gradientTransform="matrix(-1 0 0 1 2062.8765 0)">
					<stop  offset="0" style="stop-color:#52F0C0"/>
					<stop  offset="1" style="stop-color:#9F71FB"/>
				</linearGradient>
				<path style="fill:url(#SVGID_00000090280485483803232240000017638517345094240188_);" d="M963.37,1925.035
					c0,555.744,467.557,1006.261,1044.315,1006.261s1070.146-470.203,1070.146-1025.945c0-555.743-493.387-986.578-1070.146-986.578
					S963.37,1369.292,963.37,1925.035z"/>
				
					<linearGradient id="SVGID_00000034768707083844915430000008767438291130492051_" gradientUnits="userSpaceOnUse" x1="611.9147" y1="849.7455" x2="5547.3926" y2="4623.9404">
					<stop  offset="0" style="stop-color:#53D8FF"/>
					<stop  offset="1" style="stop-color:#3840F7"/>
				</linearGradient>
				<path style="fill:url(#SVGID_00000034768707083844915430000008767438291130492051_);" d="M963.373,1925.035
					c0-555.743,467.554-1006.262,1044.313-1006.262c312.312,0,600.135,126.377,798.455,330.462l-804.466,644.97l-165.378,1023.526
					C1341.089,2838.938,963.373,2424.525,963.373,1925.035z"/>
				
					<linearGradient id="SVGID_00000062880375007622040210000009955895384032331965_" gradientUnits="userSpaceOnUse" x1="257.6626" y1="3022.0818" x2="4612.502" y2="213.2123">
					<stop  offset="0" style="stop-color:#53D8FF"/>
					<stop  offset="1" style="stop-color:#3840F7"/>
				</linearGradient>
				<path style="fill:url(#SVGID_00000062880375007622040210000009955895384032331965_);" d="M1105.514,1855.08
					c0,501.548,430.728,908.133,962.053,908.133c531.328,0,985.85-424.35,985.85-925.897c0-501.549-454.521-890.367-985.85-890.367
					C1536.242,946.949,1105.514,1353.533,1105.514,1855.08z"/>
				<path style="opacity:0.78;fill:#FFFFFF;" d="M2810.948,1872.845c2.583,42.714,40.607,75.326,84.941,72.839
					c44.327-2.487,78.173-39.128,75.592-81.842c-2.58-42.713-40.61-75.326-84.939-72.839
					C2842.214,1793.488,2808.37,1830.13,2810.948,1872.845z"/>
				<path style="opacity:0.78;fill:#FFFFFF;" d="M1073.935,1970.262c2.578,42.714,40.609,75.325,84.936,72.839
					c44.33-2.486,78.176-39.129,75.595-81.843c-2.58-42.713-40.609-75.325-84.937-72.837
					C1105.199,1890.906,1071.353,1927.547,1073.935,1970.262z"/>
				<path style="opacity:0.78;fill:#FFFFFF;" d="M2164.577,2665.476c-43.683,7.688-72.624,48.042-64.646,90.132
					c7.978,42.09,49.859,69.98,93.539,62.291c43.682-7.688,72.624-48.042,64.646-90.131
					C2250.138,2685.676,2208.26,2657.789,2164.577,2665.476z"/>
				<path style="opacity:0.78;fill:#FFFFFF;" d="M1851.946,1016.207c-43.684,7.688-72.627,48.04-64.648,90.131
					c7.978,42.091,49.856,69.978,93.539,62.289c43.68-7.687,72.625-48.04,64.648-90.13
					C1937.507,1036.407,1895.626,1008.52,1851.946,1016.207z"/>
				<path style="opacity:0.78;fill:#FFFFFF;" d="M1592.975,2709.757c-8.173,19.863-6.132,38.461,4.558,41.542
					c10.688,3.078,25.979-10.528,34.148-30.387c8.171-19.863,6.128-38.465-4.559-41.545
					C1616.433,2676.287,1601.142,2689.894,1592.975,2709.757z"/>
				<path style="opacity:0.78;fill:#FFFFFF;" d="M2291.775,1145.425c-8.17,19.863-6.129,38.461,4.559,41.54
					c10.691,3.082,25.979-10.525,34.151-30.386c8.17-19.864,6.129-38.464-4.56-41.545
					C2315.235,1111.957,2299.945,1125.563,2291.775,1145.425z"/>
				<path style="opacity:0.78;fill:#FFFFFF;" d="M1228.105,2412.38c-17.685,12.889-25.964,29.806-18.488,37.786
					c7.477,7.982,27.873,4.002,45.562-8.884c17.685-12.891,25.961-29.807,18.486-37.786
					C1266.189,2395.514,1245.791,2399.493,1228.105,2412.38z"/>
				<path style="opacity:0.78;fill:#FFFFFF;" d="M2668.281,1425.052c-17.684,12.889-25.963,29.805-18.488,37.785
					c7.473,7.984,27.874,4.003,45.559-8.884c17.688-12.888,25.964-29.806,18.488-37.787
					C2706.365,1408.187,2685.967,1412.167,2668.281,1425.052z"/>
				<path style="opacity:0.78;fill:#FFFFFF;" d="M1182.278,1526.634c-20.02-9.184-39.417-8.467-43.32,1.604
					c-3.907,10.07,9.156,25.679,29.177,34.865c20.021,9.185,39.419,8.468,43.322-1.603
					C1215.362,1551.43,1202.299,1535.82,1182.278,1526.634z"/>
				<path style="opacity:0.78;fill:#FFFFFF;" d="M2755.322,2303.231c-20.021-9.185-39.417-8.469-43.322,1.602
					c-3.907,10.071,9.157,25.682,29.179,34.866c20.018,9.187,39.417,8.466,43.321-1.602
					C2788.407,2328.028,2775.34,2312.416,2755.322,2303.231z"/>
				<path style="opacity:0.78;fill:#FFFFFF;" d="M1514.643,1195.767c-12.159-17.868-29.123-26.958-37.888-20.305
					c-8.765,6.654-6.009,26.531,6.149,44.398c12.16,17.866,29.127,26.956,37.886,20.304
					C1529.558,1233.511,1526.802,1213.632,1514.643,1195.767z"/>
				<path style="opacity:0.78;fill:#FFFFFF;" d="M2440.553,2646.474c-12.16-17.865-29.126-26.955-37.888-20.302
					c-8.763,6.65-6.01,26.526,6.15,44.394c12.158,17.868,29.125,26.958,37.888,20.305
					C2455.468,2684.218,2452.712,2664.341,2440.553,2646.474z"/>
				
					<linearGradient id="SVGID_00000145044042068197644940000004175127042949641407_" gradientUnits="userSpaceOnUse" x1="3050.5002" y1="2196.8196" x2="3714.925" y2="2196.8196" gradientTransform="matrix(-0.0305 -0.9995 -0.9995 0.0305 4912.793 5520.5835)">
					<stop  offset="0" style="stop-color:#A737D5"/>
					<stop  offset="1" style="stop-color:#EF497A"/>
				</linearGradient>
				<path style="fill:url(#SVGID_00000145044042068197644940000004175127042949641407_);" d="M2040.204,1893.852l645.882,310.389
					c12.514,6.012,27.16-3.019,26.734-16.485l-2.536-80.114c-0.491-15.581,18.557-24.216,30.7-13.91l466.995,396.187
					c14.285,12.123,2.535,34.627-16.079,30.795l-601.468-123.748c-14.392-2.961-19.6-20.152-9.12-30.108l70.416-66.906
					c8.702-8.269,6.831-22.255-3.76-28.131l-625.235-346.582c-8.707-4.826-11.823-15.47-7.014-23.971l0,0
					C2020.481,1892.851,2031.302,1889.575,2040.204,1893.852z"/>
				<path style="fill:#FFFFFF;" d="M3135.361,2488.067c6.004,0,11.439-3.229,14.181-8.67c3.279-6.508,1.594-13.953-4.192-18.563
					l-102.191-81.402c-3.541-2.822-8.804-2.337-11.725,1.081c-2.936,3.417-2.433,8.467,1.115,11.304l102.192,81.403
					c-136.165-29.963-455.074-96.926-461.688-97.568c-4.467-0.499-8.666,2.745-9.137,7.166c-0.454,4.359,2.783,8.248,7.258,8.78
					c9.558,1.474,253.953,52.648,460.654,96.092C3133.017,2487.94,3134.196,2488.067,3135.361,2488.067z"/>
				
					<linearGradient id="SVGID_00000080901865405654667860000006298879851143045793_" gradientUnits="userSpaceOnUse" x1="3727.2903" y1="2760.1045" x2="4943.5396" y2="2760.1045" gradientTransform="matrix(-0.0305 -0.9995 -0.9995 0.0305 4912.793 5520.5835)">
					<stop  offset="0" style="stop-color:#A737D5"/>
					<stop  offset="1" style="stop-color:#EF497A"/>
				</linearGradient>
				<path style="fill:url(#SVGID_00000080901865405654667860000006298879851143045793_);" d="M1972.833,1863.285l1.281-608.502
					c-0.212-13.473-15.271-21.847-27.483-15.288l-72.657,39.02c-14.133,7.591-30.853-4.736-26.945-19.866l150.268-581.793
					c4.597-17.796,30.741-18.099,35.774-0.408l162.645,571.517c3.89,13.675-9.555,26.04-23.552,21.651l-94.045-29.466
					c-11.626-3.644-23.65,4.391-24.187,16.158l-44.141,607.487c-0.44,9.671-8.815,17.232-18.861,17.028l0,0
					C1980.984,1880.622,1972.986,1872.871,1972.833,1863.285z"/>
				<path style="fill:#FFFFFF;" d="M2145.807,1192.172c1.016,0,2.043-0.173,3.042-0.549c4.232-1.6,6.339-6.162,4.778-10.255
					c-3.027-8.81-68.292-241.462-123.353-438.319c-1.954-6.961-8.095-11.539-15.782-11.366c-7.502,0.186-13.604,5.062-15.191,12.133
					l-28.003,124.878c-0.967,4.328,1.888,8.609,6.387,9.534c4.45,0.956,8.916-1.803,9.901-6.146l28.004-124.878
					c35.03,130.288,120.033,433.899,122.466,439.873C2139.34,1190.244,2142.48,1192.172,2145.807,1192.172z"/>
				
					<linearGradient id="SVGID_00000093890078724330811240000004123931622273012411_" gradientUnits="userSpaceOnUse" x1="-36.0725" y1="1895.9086" x2="135.6659" y2="1895.9086" gradientTransform="matrix(-1 0 0 1 2062.8765 0)">
					<stop  offset="0" style="stop-color:#A737D5"/>
					<stop  offset="1" style="stop-color:#EF497A"/>
				</linearGradient>
				
					<ellipse style="fill:url(#SVGID_00000093890078724330811240000004123931622273012411_);" cx="2013.08" cy="1895.909" rx="85.869" ry="82.742"/>
			</g>
		</g>
		<g>
			
				<linearGradient id="SVGID_00000030460884707394478770000013021806387802057100_" gradientUnits="userSpaceOnUse" x1="811.25" y1="614.2773" x2="1373.1189" y2="1102.5682">
				<stop  offset="0" style="stop-color:#FDF53F"/>
				<stop  offset="1" style="stop-color:#D93C65"/>
			</linearGradient>
			<path style="fill:url(#SVGID_00000030460884707394478770000013021806387802057100_);" d="M1138.346,766.548
				c0,0-367.483-145.503-373.608-178.397c21.76,90.758,62.398,171.924,62.398,171.924s296.943,140.724,389.219,119.739
				C1185.871,819.694,1138.346,766.548,1138.346,766.548z"/>
			<path style="opacity:0.7;fill:#FFFFFF;" d="M1297.99,673.45l96.327,104.395c0,0-303.363,95.462-424.185,0
				c-92.937-72.648-98.007-146.16-98.007-146.16S1090.128,796.332,1297.99,673.45z"/>
		</g>
		<g>
			<g>
				<g>
					
						<linearGradient id="SVGID_00000085245281553885603140000007720618168866195093_" gradientUnits="userSpaceOnUse" x1="10723.4551" y1="3044.3547" x2="10801.9531" y2="2550.5737" gradientTransform="matrix(-1 0 0 1 11745.9063 0)">
						<stop  offset="0" style="stop-color:#2B3582"/>
						<stop  offset="0.2305" style="stop-color:#252A70"/>
						<stop  offset="0.7285" style="stop-color:#19164F"/>
						<stop  offset="1" style="stop-color:#150E42"/>
					</linearGradient>
					<polygon style="fill:url(#SVGID_00000085245281553885603140000007720618168866195093_);" points="975.941,3062.397 
						1012.26,3062.397 1012.26,2669.629 975.941,2669.629 					"/>
					
						<linearGradient id="SVGID_00000059300480320373975010000007889296061751905422_" gradientUnits="userSpaceOnUse" x1="253.019" y1="2779.4514" x2="278.1214" y2="2621.5498" gradientTransform="matrix(-1 0 0 1 1258.7864 0)">
						<stop  offset="0" style="stop-color:#2B3582"/>
						<stop  offset="0.2305" style="stop-color:#252A70"/>
						<stop  offset="0.7285" style="stop-color:#19164F"/>
						<stop  offset="1" style="stop-color:#150E42"/>
					</linearGradient>
					<path style="fill:url(#SVGID_00000059300480320373975010000007889296061751905422_);" d="M1024.46,2663.324v108.454
						c0,7.342-6.562,11.947-13.904,11.947h-31.133c-7.342,0-11.818-4.604-11.818-11.947v-108.454H1024.46z"/>
				</g>
				
					<linearGradient id="SVGID_00000008115322985107954060000013331115603870958752_" gradientUnits="userSpaceOnUse" x1="10753.8076" y1="3047.304" x2="10835.4814" y2="2533.5491" gradientTransform="matrix(-1 0 0 1 11745.9063 0)">
					<stop  offset="0" style="stop-color:#2B3582"/>
					<stop  offset="0.2305" style="stop-color:#252A70"/>
					<stop  offset="0.7285" style="stop-color:#19164F"/>
					<stop  offset="1" style="stop-color:#150E42"/>
				</linearGradient>
				<path style="fill:url(#SVGID_00000008115322985107954060000013331115603870958752_);" d="M835.049,3069.97h318.102v-19.858
					c0-2.09-1.694-3.784-3.784-3.784h-310.24c-2.252,0-4.078,1.826-4.078,4.078V3069.97z"/>
				<g>
					
						<linearGradient id="SVGID_00000156569024757461538310000006772122241272488369_" gradientUnits="userSpaceOnUse" x1="476.9105" y1="2723.6165" x2="382.0698" y2="2853.6179" gradientTransform="matrix(-0.9264 0.3765 0.3765 0.9264 209.4733 -235.9871)">
						<stop  offset="0" style="stop-color:#2B3582"/>
						<stop  offset="0.2305" style="stop-color:#252A70"/>
						<stop  offset="0.7285" style="stop-color:#19164F"/>
						<stop  offset="1" style="stop-color:#150E42"/>
					</linearGradient>
					<polygon style="fill:url(#SVGID_00000156569024757461538310000006772122241272488369_);" points="868.675,2593.797 
						915.464,2574.781 854.341,2424.385 807.552,2443.402 					"/>
					<g>
						
							<linearGradient id="SVGID_00000155859486613453914040000017393993103765023636_" gradientUnits="userSpaceOnUse" x1="607.3386" y1="2055.0593" x2="283.0299" y2="2499.6003" gradientTransform="matrix(-1 0 0 1 1258.7864 0)">
							<stop  offset="0" style="stop-color:#CB236D"/>
							<stop  offset="1" style="stop-color:#4C246D"/>
						</linearGradient>
						<path style="fill:url(#SVGID_00000155859486613453914040000017393993103765023636_);" d="M550.798,2131.798
							c88.744-88.507,309.508-144.004,388.875-11.726c0,0,102.006,160.991,82.012,306.046
							c-11.204,40.095-38.886,92.385-107.188,92.235c-110.71-0.243-169.825-63.286-169.825-63.286
							C694.356,2403.869,462.054,2220.306,550.798,2131.798z"/>
						
							<linearGradient id="SVGID_00000020399992666162548450000013871337163883877515_" gradientUnits="userSpaceOnUse" x1="371.7566" y1="2465.717" x2="151.0008" y2="2768.3145" gradientTransform="matrix(-1 0 0 1 1258.7864 0)">
							<stop  offset="0" style="stop-color:#CB236D"/>
							<stop  offset="1" style="stop-color:#4C246D"/>
						</linearGradient>
						<path style="fill:url(#SVGID_00000020399992666162548450000013871337163883877515_);" d="M1041.195,2517.463
							c19.473,1.427,37.824,3.333,42.292,3.574c36.653,1.985,76.311,5.387,109.974,21.284c8.319,3.929,17.373,10.28,26.106,18.151
							c38.931,35.09,71.467,100.4,3.898,116.116c-68.632,15.961-143.996,8.655-213.64,7.229
							c-43.453-0.89-86.551-2.686-129.718-7.969c-30.351-3.715-71.805,5.993-97.408-10.558
							C564.784,2524.423,1041.195,2517.463,1041.195,2517.463z"/>
					</g>
				</g>
				
					<linearGradient id="SVGID_00000152964499861293992680000016533011698581485478_" gradientUnits="userSpaceOnUse" x1="583.9186" y1="1888.4554" x2="769.6331" y2="2218.0078" gradientTransform="matrix(-1 0 0 1 1258.7864 0)">
					<stop  offset="0" style="stop-color:#F9B776"/>
					<stop  offset="1" style="stop-color:#F47960"/>
				</linearGradient>
				<path style="fill:url(#SVGID_00000152964499861293992680000016533011698581485478_);" d="M583.724,2154.939
					c0,0,22.173-96.662,90.453-143.327c-49.567-49.07-45.227-23.817-45.227-23.817s-134.512,72.152-140.376,113.038
					C535.622,2146.528,583.724,2154.939,583.724,2154.939z"/>
				
					<linearGradient id="SVGID_00000104684273344356246100000007089501851964944545_" gradientUnits="userSpaceOnUse" x1="828.8475" y1="1943.3446" x2="89.2926" y2="2957.0779" gradientTransform="matrix(-1 0 0 1 1258.7864 0)">
					<stop  offset="0" style="stop-color:#FDF53F"/>
					<stop  offset="1" style="stop-color:#D93C65"/>
				</linearGradient>
				<path style="fill:url(#SVGID_00000104684273344356246100000007089501851964944545_);" d="M734.258,2148.057
					c0,0-94.353,65.799-144.089,6.882l-100.242-58.917c0,0-93.473,264.256,244.331,207.437
					C728.027,2215.072,734.258,2148.057,734.258,2148.057z"/>
				<g>
					
						<linearGradient id="SVGID_00000163064058499254464030000001176812321482207152_" gradientUnits="userSpaceOnUse" x1="1639.63" y1="2222.5566" x2="1869.0167" y2="2629.606" gradientTransform="matrix(0.6218 -0.7832 0.7832 0.6218 -2161.8694 1759.252)">
						<stop  offset="0" style="stop-color:#F9B776"/>
						<stop  offset="1" style="stop-color:#F47960"/>
					</linearGradient>
					<path style="fill:url(#SVGID_00000163064058499254464030000001176812321482207152_);" d="M929.851,1960.965
						c0,0-89.491-42.737-168.495-18.276c-116.618-4.8,9.468-50.23,9.468-50.23s140.146-60.486,175.813-39.656
						C953.172,1918.063,929.851,1960.965,929.851,1960.965z"/>
					
						<linearGradient id="SVGID_00000047062427835061617770000013753679929320606114_" gradientUnits="userSpaceOnUse" x1="1918.1663" y1="2335.175" x2="1178.6234" y2="3348.8916" gradientTransform="matrix(0.6218 -0.7832 0.7832 0.6218 -2161.8694 1759.252)">
						<stop  offset="0" style="stop-color:#FDF53F"/>
						<stop  offset="1" style="stop-color:#D93C65"/>
					</linearGradient>
					<path style="fill:url(#SVGID_00000047062427835061617770000013753679929320606114_);" d="M830.862,2074.583
						c0,0,134.453-53.137,91.177-117.006l19.991-106.706c0,0,265.083,91.102,10.541,320.338
						C887.222,2111.372,830.862,2074.583,830.862,2074.583z"/>
				</g>
				
					<linearGradient id="SVGID_00000070806895963322442630000017241366228883756468_" gradientUnits="userSpaceOnUse" x1="2578.425" y1="3897.0432" x2="2514.3127" y2="4023.1304" gradientTransform="matrix(0.4192 -0.9079 0.9079 0.4192 -2967.7507 3028.7493)">
					<stop  offset="0" style="stop-color:#2B3582"/>
					<stop  offset="1" style="stop-color:#150E42"/>
				</linearGradient>
				<path style="fill:url(#SVGID_00000070806895963322442630000017241366228883756468_);" d="M1682.601,2433.278
					c0,0,111.344-62.823,149.392-25.421c0,0-92.016,82.5-132.776,78.781c-40.76-3.719-49.507-25.412-49.507-25.412
					L1682.601,2433.278z"/>
				
					<linearGradient id="SVGID_00000039843768452657758500000014492228517017580426_" gradientUnits="userSpaceOnUse" x1="2456.509" y1="3947.22" x2="2520.377" y2="3947.22" gradientTransform="matrix(0.4192 -0.9079 0.9079 0.4192 -2967.7507 3028.7493)">
					<stop  offset="0" style="stop-color:#F9B776"/>
					<stop  offset="1" style="stop-color:#F47960"/>
				</linearGradient>
				<path style="fill:url(#SVGID_00000039843768452657758500000014492228517017580426_);" d="M1619.188,2421.166l37.401,35.946
					c5.644,5.424,14.365,6.632,20.936,2.377c3.29-2.131,6.947-5.432,10.816-10.464c5.459-7.102,5.576-16.98,0.155-24.111
					l-26.177-34.429L1619.188,2421.166z"/>
				
					<linearGradient id="SVGID_00000140692599437190884560000017478778823163739556_" gradientUnits="userSpaceOnUse" x1="2368.124" y1="3778.2266" x2="2639.5344" y2="3397.8245" gradientTransform="matrix(0.4192 -0.9079 0.9079 0.4192 -2967.7507 3028.7493)">
					<stop  offset="0" style="stop-color:#3F2BF3"/>
					<stop  offset="1" style="stop-color:#3522CB"/>
				</linearGradient>
				<path style="fill:url(#SVGID_00000140692599437190884560000017478778823163739556_);" d="M1149.384,2386.025
					c0,0,122.812-177.924,237.753-225.5c114.942-47.577,285.945,224.401,285.945,224.401s-12.197,25.994-53.859,45.083
					c0,0-140.302-179.228-231.458-122.68c-102.482,63.574-164.692,162.645-164.692,162.645l-68.644-79.349L1149.384,2386.025z"/>
				
					<linearGradient id="SVGID_00000068653529112198323220000012398359787604859553_" gradientUnits="userSpaceOnUse" x1="2541.22" y1="4024.5251" x2="2318.957" y2="4315.1763" gradientTransform="matrix(0.4192 -0.9079 0.9079 0.4192 -2967.7507 3028.7493)">
					<stop  offset="0" style="stop-color:#2B3582"/>
					<stop  offset="1" style="stop-color:#150E42"/>
				</linearGradient>
				<path style="fill:url(#SVGID_00000068653529112198323220000012398359787604859553_);" d="M1799.221,2412.573
					c-19.15,16.283-87.256,55.969-93.631,65.016c-6.374,9.047-2.674,31.552-2.674,31.552s5.575,7.631,20.714,9.212
					c23.005-6.074,68.856-21.975,99.65-57.591c22.652-26.199,24.3-51.078,20.885-68.624
					C1829.791,2394.287,1811.974,2401.729,1799.221,2412.573z"/>
				
					<linearGradient id="SVGID_00000088825085683438122890000014584835232821643445_" gradientUnits="userSpaceOnUse" x1="2429.9885" y1="4087.4741" x2="2601.7292" y2="4087.4741" gradientTransform="matrix(0.4192 -0.9079 0.9079 0.4192 -2967.7507 3028.7493)">
					<stop  offset="0" style="stop-color:#53D8FF"/>
					<stop  offset="1" style="stop-color:#3840F7"/>
				</linearGradient>
				<path style="fill:url(#SVGID_00000088825085683438122890000014584835232821643445_);" d="M1823.279,2460.762
					c-30.794,35.616-76.645,51.517-99.65,57.591c10.23,1.066,24.822-0.626,45.028-9.314c50.106-21.547,94.516-86.379,99.13-102.417
					c3.699-12.852-7.902-16.836-23.624-14.483C1847.579,2409.684,1845.932,2434.563,1823.279,2460.762z"/>
				
					<linearGradient id="SVGID_00000023276646194646490070000009994822776314001827_" gradientUnits="userSpaceOnUse" x1="2410.3252" y1="4006.1609" x2="2470.2673" y2="4006.1609" gradientTransform="matrix(0.4192 -0.9079 0.9079 0.4192 -2967.7507 3028.7493)">
					<stop  offset="0" style="stop-color:#F9B776"/>
					<stop  offset="1" style="stop-color:#F47960"/>
				</linearGradient>
				<path style="fill:url(#SVGID_00000023276646194646490070000009994822776314001827_);" d="M1665.838,2513.327
					c5.814,2.403,30.766-0.225,44.892-1.972c6.713-0.83,12.52-5.033,15.372-11.166c1.809-3.89,3.537-8.524,4.247-13.129
					c1.066-6.914-3.854-13.342-10.773-14.371l-51.627-7.679L1665.838,2513.327z"/>
				
					<linearGradient id="SVGID_00000130615403794344388820000016176462412913127354_" gradientUnits="userSpaceOnUse" x1="2270.2954" y1="3967.7891" x2="2285.2551" y2="3459.1621" gradientTransform="matrix(0.4192 -0.9079 0.9079 0.4192 -2967.7507 3028.7493)">
					<stop  offset="0" style="stop-color:#3F2BF3"/>
					<stop  offset="1" style="stop-color:#3522CB"/>
				</linearGradient>
				<path style="fill:url(#SVGID_00000130615403794344388820000016176462412913127354_);" d="M1005.378,2545.387
					c0,0,95.016,95.977,149.772,69.151c54.756-26.825,141.385-111.133,221.517-101.904c80.132,9.229,233.259,32.806,305.138,2.932
					c0,0,13.324-38.156,5.082-58.542c0,0-215.493-63.579-276.293-67.963c-52.652-3.797-128.887-8.771-187.11,22.268
					c-16.667,8.885-31.973-1.07-44.981-14.763l-23.688-24.936L1005.378,2545.387z"/>
				
					<linearGradient id="SVGID_00000034793568120349632030000002239066411236862362_" gradientUnits="userSpaceOnUse" x1="676.6602" y1="1832.3181" x2="-62.8962" y2="2846.0535" gradientTransform="matrix(-1 0 0 1 1258.7864 0)">
					<stop  offset="0" style="stop-color:#FDF53F"/>
					<stop  offset="1" style="stop-color:#D93C65"/>
				</linearGradient>
				<path style="fill:url(#SVGID_00000034793568120349632030000002239066411236862362_);" d="M674.177,2256.411
					c0,0,6.424-124.14,257.423-244.799c0,0,11.208,24.884,33.011,56.505c21.803,31.621,119.869,242.809,190.206,303.511
					c0,0-13.794,115.987-139.663,184.409C1015.153,2556.039,793.749,2442.649,674.177,2256.411z"/>
				
					<linearGradient id="SVGID_00000064337444996934042360000016294519106223368105_" gradientUnits="userSpaceOnUse" x1="2345.2683" y1="2999.365" x2="2484.0017" y2="2999.365" gradientTransform="matrix(0.4192 -0.9079 0.9079 0.4192 -2967.7507 3028.7493)">
					<stop  offset="0" style="stop-color:#F9B776"/>
					<stop  offset="1" style="stop-color:#F47960"/>
				</linearGradient>
				<path style="fill:url(#SVGID_00000064337444996934042360000016294519106223368105_);" d="M704.578,2046.794l50.704,111.989
					c3.843,7.987,11.958,13.103,20.819,12.897c17.909-0.417,47.01-7.587,61.464-46.615c4.299-11.61,2.119-24.656-5.74-34.223
					l-57.9-70.483L704.578,2046.794z"/>
				<g>
					
						<linearGradient id="SVGID_00000087374355568368546030000014193434805466821028_" gradientUnits="userSpaceOnUse" x1="1984.1348" y1="1562.0198" x2="1787.3193" y2="1822.3906" gradientTransform="matrix(0.3631 -0.9318 0.9318 0.3631 -1482.1178 3211.0894)">
						<stop  offset="0" style="stop-color:#F9B776"/>
						<stop  offset="1" style="stop-color:#F47960"/>
					</linearGradient>
					<path style="fill:url(#SVGID_00000087374355568368546030000014193434805466821028_);" d="M704.96,1890.355
						c1.587,0.618,83.362,70.747,125.01,106.511c12.715,10.918,13.058,30.458,0.759,41.843l-9.424,8.723
						c-12.879,11.921-43.613,29.004-60.172,23.194l-111.525-56.722C649.608,2013.904,669.291,1876.457,704.96,1890.355z"/>
					
						<linearGradient id="SVGID_00000011027570922915468500000013247306317265863865_" gradientUnits="userSpaceOnUse" x1="1858.1135" y1="1546.6436" x2="2065.2786" y2="1546.6436" gradientTransform="matrix(0.3631 -0.9318 0.9318 0.3631 -1482.1178 3211.0894)">
						<stop  offset="0" style="stop-color:#2B3582"/>
						<stop  offset="1" style="stop-color:#150E42"/>
					</linearGradient>
					<path style="fill:url(#SVGID_00000011027570922915468500000013247306317265863865_);" d="M618.458,1998.687
						c-11.929-2.048-27.91-9.106-25.722-32.424c2.223-23.7,20.289-32.12,32.794-35.108c5.056-1.21,8.359-5.871,8.106-11.064
						c-0.144-2.957,0.992-6.017,5.021-8.212c5.429-2.958,6.911-10.103,3.407-15.197c-6.731-9.785-11.466-24.643,2.176-41.359
						c24.207-29.663,62.708-12.793,79.134,7.937c16.427,20.73-11.646,51.4-32.407,63.005c-15.784,8.826-17.086,31.121-16.803,41.302
						c0.09,3.224,1.658,6.212,4.233,8.156l37.978,28.679c-3.744,10.941-6.545,22.092-9.221,33.317
						c-3.066-1.6-5.714-2.897-7.724-3.748c-14.196-5.998-31.431,5.839-38.313,11.326c-2.256,1.799-5.125,2.587-7.984,2.197
						c-10.107-1.373-31.754-7.634-25.969-36.1C628.375,2005.438,624.45,1999.716,618.458,1998.687z"/>
					
						<linearGradient id="SVGID_00000153700249870897691310000016347819513662356411_" gradientUnits="userSpaceOnUse" x1="1736.5604" y1="1740.9172" x2="1875.665" y2="1598.1997" gradientTransform="matrix(0.3631 -0.9318 0.9318 0.3631 -1482.1178 3211.0894)">
						<stop  offset="0" style="stop-color:#F9B776"/>
						<stop  offset="1" style="stop-color:#F47960"/>
					</linearGradient>
					<path style="fill:url(#SVGID_00000153700249870897691310000016347819513662356411_);" d="M721.824,2050.536
						c0,0-30.172-34.893-47.28-26.26c-17.109,8.634-23.924,31.9,6.026,42.873C717.824,2080.797,721.824,2050.536,721.824,2050.536z"
						/>
				</g>
				<g>
					
						<linearGradient id="SVGID_00000136392127601255464760000016119387244697000370_" gradientUnits="userSpaceOnUse" x1="114.9992" y1="3093.1848" x2="124.1142" y2="3035.8491" gradientTransform="matrix(-1 0 0 1 1258.7864 0)">
						<stop  offset="0" style="stop-color:#53D8FF"/>
						<stop  offset="1" style="stop-color:#3840F7"/>
					</linearGradient>
					
						<circle style="fill:url(#SVGID_00000136392127601255464760000016119387244697000370_);" cx="1140.495" cy="3072.477" r="22.848"/>
					
						<linearGradient id="SVGID_00000142140845656663376500000006374761124644507794_" gradientUnits="userSpaceOnUse" x1="117.2465" y1="3082.2295" x2="121.8039" y2="3053.5615" gradientTransform="matrix(-1 0 0 1 1258.7864 0)">
						<stop  offset="0" style="stop-color:#2B3582"/>
						<stop  offset="0.2305" style="stop-color:#252A70"/>
						<stop  offset="0.7285" style="stop-color:#19164F"/>
						<stop  offset="1" style="stop-color:#150E42"/>
					</linearGradient>
					<path style="fill:url(#SVGID_00000142140845656663376500000006374761124644507794_);" d="M1128.47,3071.875
						c0,6.31,5.115,11.424,11.424,11.424s11.424-5.115,11.424-11.424c0-6.309-5.115-11.424-11.424-11.424
						S1128.47,3065.566,1128.47,3071.875z"/>
				</g>
				<g>
					
						<linearGradient id="SVGID_00000179645883567869375420000015125236788274774689_" gradientUnits="userSpaceOnUse" x1="396.3914" y1="3093.1848" x2="405.5063" y2="3035.8491" gradientTransform="matrix(-1 0 0 1 1258.7864 0)">
						<stop  offset="0" style="stop-color:#53D8FF"/>
						<stop  offset="1" style="stop-color:#3840F7"/>
					</linearGradient>
					
						<circle style="fill:url(#SVGID_00000179645883567869375420000015125236788274774689_);" cx="859.103" cy="3072.477" r="22.848"/>
					
						<linearGradient id="SVGID_00000021815295965523250860000008106100004183203498_" gradientUnits="userSpaceOnUse" x1="398.6386" y1="3082.2295" x2="403.1961" y2="3053.5615" gradientTransform="matrix(-1 0 0 1 1258.7864 0)">
						<stop  offset="0" style="stop-color:#2B3582"/>
						<stop  offset="0.2305" style="stop-color:#252A70"/>
						<stop  offset="0.7285" style="stop-color:#19164F"/>
						<stop  offset="1" style="stop-color:#150E42"/>
					</linearGradient>
					<path style="fill:url(#SVGID_00000021815295965523250860000008106100004183203498_);" d="M847.078,3071.875
						c0,6.31,5.114,11.424,11.424,11.424c6.309,0,11.424-5.115,11.424-11.424c0-6.309-5.115-11.424-11.424-11.424
						C852.192,3060.451,847.078,3065.566,847.078,3071.875z"/>
				</g>
			</g>
			<g>
				
					<linearGradient id="SVGID_00000134217560649487766080000013567097623098716552_" gradientUnits="userSpaceOnUse" x1="10239.9551" y1="2952.9063" x2="9967.9854" y2="3027.4458" gradientTransform="matrix(-0.9988 -0.0494 -0.0494 0.9988 11787.376 -55.0328)">
					<stop  offset="0" style="stop-color:#2B3582"/>
					<stop  offset="1" style="stop-color:#150E42"/>
				</linearGradient>
				<path style="fill:url(#SVGID_00000134217560649487766080000013567097623098716552_);" d="M1471.105,2478.164
					c0.258,0.013,0.516,0.019,0.776,0.018l337.555-0.369c8.344-0.007,15.101-6.779,15.093-15.124
					c-0.008-8.347-6.805-15.243-15.126-15.093l-337.554,0.368c-8.345,0.007-15.102,6.779-15.093,15.123
					C1456.764,2471.173,1463.121,2477.769,1471.105,2478.164z"/>
				
					<linearGradient id="SVGID_00000060021212346104793850000004915429447916719287_" gradientUnits="userSpaceOnUse" x1="9963.9736" y1="2212.782" x2="9771" y2="2416.7439" gradientTransform="matrix(-1 0 0 1 11745.9063 0)">
					<stop  offset="0" style="stop-color:#2B3582"/>
					<stop  offset="1" style="stop-color:#150E42"/>
				</linearGradient>
				<path style="fill:url(#SVGID_00000060021212346104793850000004915429447916719287_);" d="M2112.882,2171.686h-281.117
					c-20.739,0-39.614,11.968-48.46,30.725l-129.96,275.573h349.354c13.364,0,25.371-8.165,30.284-20.594l100.779-255.002
					C2139.584,2187.653,2128.725,2171.686,2112.882,2171.686z"/>
			</g>
			<g>
				<g>
					
						<linearGradient id="SVGID_00000109750214166522751410000018100758314932199354_" gradientUnits="userSpaceOnUse" x1="9702.6924" y1="2817.0879" x2="9998.4658" y2="2817.0879" gradientTransform="matrix(-1 0 0 1 11745.9063 0)">
						<stop  offset="0" style="stop-color:#9CFFFB"/>
						<stop  offset="1" style="stop-color:#9BFFFA"/>
					</linearGradient>
					<path style="fill:url(#SVGID_00000109750214166522751410000018100758314932199354_);" d="M2030.342,3133.403
						c1.697,0,3.422-0.329,5.082-1.019c6.531-2.72,9.549-10.052,6.739-16.375l-270.017-607.697
						c-2.808-6.321-10.377-9.241-16.915-6.524c-6.532,2.72-9.549,10.052-6.739,16.375l270.017,607.697
						C2020.605,3130.577,2025.353,3133.403,2030.342,3133.403z"/>
					
						<linearGradient id="SVGID_00000176031172376734243630000013339060117242236583_" gradientUnits="userSpaceOnUse" x1="9736.8486" y1="2817.0869" x2="10032.6221" y2="2817.0869" gradientTransform="matrix(-1 0 0 1 11745.9063 0)">
						<stop  offset="0" style="stop-color:#9CFFFB"/>
						<stop  offset="1" style="stop-color:#9BFFFA"/>
					</linearGradient>
					<path style="fill:url(#SVGID_00000176031172376734243630000013339060117242236583_);" d="M1726.156,3133.403
						c4.989,0,9.738-2.824,11.833-7.543l270.016-607.697c2.811-6.323-0.208-13.655-6.739-16.375
						c-6.527-2.72-14.102,0.199-16.915,6.524l-270.017,607.697c-2.81,6.323,0.207,13.655,6.739,16.375
						C1722.733,3133.074,1724.459,3133.403,1726.156,3133.403z"/>
					
						<linearGradient id="SVGID_00000120561124881352576940000012271780939369930159_" gradientUnits="userSpaceOnUse" x1="10538.5117" y1="2817.0879" x2="10834.2842" y2="2817.0879" gradientTransform="matrix(-1 0 0 1 11745.9063 0)">
						<stop  offset="0" style="stop-color:#9CFFFB"/>
						<stop  offset="1" style="stop-color:#9BFFFA"/>
					</linearGradient>
					<path style="fill:url(#SVGID_00000120561124881352576940000012271780939369930159_);" d="M1194.524,3133.403
						c1.697,0,3.422-0.329,5.081-1.019c6.532-2.72,9.549-10.052,6.739-16.375l-270.017-607.697
						c-2.81-6.321-10.374-9.241-16.915-6.524c-6.531,2.72-9.549,10.052-6.739,16.375l270.017,607.697
						C1184.786,3130.577,1189.534,3133.403,1194.524,3133.403z"/>
					
						<linearGradient id="SVGID_00000075121177808202143120000001052239258516409492_" gradientUnits="userSpaceOnUse" x1="10572.666" y1="2817.0869" x2="10868.4385" y2="2817.0869" gradientTransform="matrix(-1 0 0 1 11745.9063 0)">
						<stop  offset="0" style="stop-color:#9CFFFB"/>
						<stop  offset="1" style="stop-color:#9BFFFA"/>
					</linearGradient>
					<path style="fill:url(#SVGID_00000075121177808202143120000001052239258516409492_);" d="M890.34,3133.403
						c4.99,0,9.738-2.824,11.833-7.543l270.017-607.697c2.81-6.323-0.207-13.655-6.739-16.375
						c-6.528-2.72-14.103,0.199-16.915,6.524L878.519,3116.01c-2.81,6.323,0.207,13.655,6.739,16.375
						C886.915,3133.074,888.642,3133.403,890.34,3133.403z"/>
				</g>
				
					<linearGradient id="SVGID_00000108302481323574039280000010893408759313044372_" gradientUnits="userSpaceOnUse" x1="9632.9492" y1="2506.6604" x2="10887.46" y2="2506.6604" gradientTransform="matrix(-1 0 0 1 11745.9063 0)">
					<stop  offset="0" style="stop-color:#9CFFFB"/>
					<stop  offset="1" style="stop-color:#9BFFFA"/>
				</linearGradient>
				<path style="fill:url(#SVGID_00000108302481323574039280000010893408759313044372_);" d="M858.668,2489.551
					c-0.689-3.985,0.249-8.108,2.557-11.239c2.307-3.131,5.744-4.945,9.371-4.945h1228.381c4.769,0,9.208,2.721,11.777,7.219
					c2.57,4.498,2.914,10.151,0.914,14.998l-13.311,32.254c-3.048,7.387-9.653,12.116-16.92,12.116H879.024
					c-6.761,0-12.571-5.367-13.855-12.799L858.668,2489.551z"/>
			</g>
		</g>
		<g>
			
				<linearGradient id="SVGID_00000179640538502583420880000004467278247469736073_" gradientUnits="userSpaceOnUse" x1="3986.5044" y1="2973.1885" x2="3979.1538" y2="2294.4731" gradientTransform="matrix(0.9995 -0.0343 0.0343 0.9995 -2177.5273 670.9679)">
				<stop  offset="0" style="stop-color:#CB236D"/>
				<stop  offset="1" style="stop-color:#4C246D"/>
			</linearGradient>
			<path style="fill:url(#SVGID_00000179640538502583420880000004467278247469736073_);" d="M1603.26,2986.867l12.34,185.44
				c2.152,32.336,29.602,57.186,62.148,56.261l444.65-12.635c21.752-0.618,39.738-17.056,42.178-38.58
				c5.343-47.12,11.321-131.308-1.354-209.701L1603.26,2986.867z"/>
			<path style="fill:#FFFFFF;" d="M1690.284,3217.603c-0.678,0-1.235-0.539-1.254-1.218c-0.02-0.692,0.526-1.271,1.218-1.29
				l10.028-0.286c0.813-0.008,1.27,0.528,1.29,1.218c0.02,0.692-0.526,1.271-1.218,1.29l-10.029,0.286
				C1690.307,3217.603,1690.296,3217.603,1690.284,3217.603z M1723.714,3216.652c-0.676,0-1.235-0.539-1.254-1.218
				c-0.02-0.692,0.526-1.271,1.218-1.29l10.03-0.286c0.774-0.039,1.271,0.528,1.29,1.218c0.02,0.693-0.526,1.271-1.218,1.29
				l-10.03,0.286C1723.737,3216.652,1723.725,3216.652,1723.714,3216.652z M1757.146,3215.702c-0.678,0-1.235-0.539-1.254-1.218
				c-0.02-0.692,0.526-1.271,1.218-1.29l10.03-0.284c0.777-0.049,1.271,0.528,1.29,1.218c0.02,0.692-0.526,1.271-1.218,1.29
				l-10.03,0.284C1757.168,3215.702,1757.157,3215.702,1757.146,3215.702z M1790.577,3214.751c-0.678,0-1.234-0.539-1.254-1.218
				c-0.02-0.692,0.526-1.271,1.218-1.29l10.028-0.284c0.82,0.015,1.27,0.528,1.29,1.218c0.02,0.692-0.526,1.271-1.218,1.29
				l-10.028,0.284C1790.6,3214.751,1790.588,3214.751,1790.577,3214.751z M1667.229,3214.534c-0.135,0-0.274-0.021-0.41-0.069
				c-3.227-1.119-6.37-2.523-9.344-4.177c-0.606-0.336-0.823-1.099-0.487-1.705c0.333-0.606,1.097-0.828,1.705-0.487
				c2.848,1.583,5.858,2.928,8.946,3.998c0.655,0.227,1.003,0.942,0.776,1.595
				C1668.235,3214.209,1667.749,3214.534,1667.229,3214.534z M1824.008,3213.802c-0.676,0-1.235-0.539-1.254-1.218
				c-0.02-0.692,0.526-1.271,1.218-1.29l10.028-0.286c0.759-0.038,1.271,0.528,1.29,1.218c0.02,0.692-0.526,1.271-1.218,1.29
				l-10.028,0.286C1824.031,3213.802,1824.02,3213.802,1824.008,3213.802z M1857.438,3212.852c-0.676,0-1.234-0.539-1.254-1.218
				c-0.02-0.692,0.526-1.271,1.218-1.29l10.03-0.284c0.82,0.026,1.271,0.527,1.29,1.218c0.02,0.692-0.526,1.271-1.218,1.29
				l-10.03,0.284C1857.461,3212.852,1857.45,3212.852,1857.438,3212.852z M1890.87,3211.902c-0.678,0-1.235-0.539-1.254-1.218
				c-0.02-0.692,0.526-1.271,1.218-1.29l10.03-0.284c0.781-0.005,1.271,0.528,1.29,1.218c0.02,0.692-0.526,1.271-1.218,1.29
				l-10.03,0.284C1890.892,3211.902,1890.881,3211.902,1890.87,3211.902z M1924.301,3210.953c-0.676,0-1.235-0.539-1.254-1.218
				c-0.02-0.692,0.526-1.271,1.218-1.29l10.028-0.286c0.745-0.036,1.269,0.528,1.29,1.218c0.02,0.692-0.526,1.271-1.218,1.29
				l-10.028,0.286C1924.324,3210.953,1924.312,3210.953,1924.301,3210.953z M1957.731,3210.002c-0.676,0-1.235-0.539-1.254-1.218
				c-0.02-0.692,0.526-1.271,1.218-1.29l10.03-0.286c0.805,0.03,1.271,0.528,1.29,1.218c0.02,0.692-0.526,1.271-1.218,1.29
				l-10.03,0.286C1957.754,3210.002,1957.742,3210.002,1957.731,3210.002z M1991.162,3209.052c-0.678,0-1.235-0.539-1.254-1.218
				c-0.02-0.692,0.526-1.271,1.218-1.29l10.03-0.284c0.766-0.003,1.271,0.528,1.29,1.218c0.02,0.692-0.526,1.271-1.218,1.29
				l-10.03,0.284C1991.185,3209.052,1991.174,3209.052,1991.162,3209.052z M2024.594,3208.103c-0.676,0-1.234-0.539-1.254-1.218
				c-0.02-0.692,0.526-1.271,1.218-1.29l10.028-0.286c0.73-0.036,1.269,0.528,1.29,1.218c0.02,0.692-0.526,1.271-1.218,1.29
				l-10.028,0.286C2024.616,3208.103,2024.605,3208.103,2024.594,3208.103z M2058.025,3207.153c-0.676,0-1.235-0.539-1.254-1.218
				c-0.02-0.692,0.526-1.271,1.218-1.29l10.029-0.286c0.791,0.031,1.271,0.527,1.29,1.218c0.02,0.692-0.526,1.271-1.218,1.29
				l-10.028,0.286C2058.048,3207.153,2058.037,3207.153,2058.025,3207.153z M2091.455,3206.202c-0.678,0-1.235-0.539-1.254-1.218
				c-0.02-0.692,0.526-1.271,1.218-1.29l10.03-0.284c0.8-0.002,1.271,0.527,1.29,1.218c0.02,0.692-0.526,1.271-1.218,1.29
				l-10.03,0.284C2091.478,3206.202,2091.466,3206.202,2091.455,3206.202z M2124.565,3202.964c-0.506,0-0.983-0.309-1.173-0.81
				c-0.245-0.647,0.08-1.372,0.728-1.617c3.031-1.15,5.925-2.667,8.598-4.507c0.575-0.392,1.352-0.248,1.746,0.32
				c0.392,0.572,0.248,1.352-0.322,1.744c-2.842,1.956-5.913,3.568-9.134,4.788
				C2124.863,3202.938,2124.713,3202.964,2124.565,3202.964z M1640.456,3195.303c-0.376,0-0.746-0.167-0.993-0.487
				c-2.09-2.701-3.953-5.6-5.534-8.616c-0.322-0.614-0.085-1.372,0.527-1.693c0.621-0.32,1.373-0.083,1.693,0.527
				c1.514,2.887,3.295,5.662,5.296,8.247c0.425,0.547,0.323,1.336-0.224,1.759
				C1640.993,3195.219,1640.723,3195.303,1640.456,3195.303z M2148.057,3180.446c-0.165,0-0.332-0.033-0.491-0.1
				c-0.637-0.273-0.934-1.009-0.663-1.646c1.269-2.977,2.172-6.114,2.686-9.321c0.109-0.683,0.751-1.163,1.436-1.04
				c0.684,0.109,1.15,0.753,1.04,1.436c-0.545,3.41-1.506,6.744-2.853,9.909C2149.008,3180.16,2148.544,3180.446,2148.057,3180.446z
				 M1628.668,3164.519c-0.65,0-1.199-0.501-1.249-1.159l-0.668-10.024c-0.046-0.691,0.477-1.288,1.168-1.334
				c0.679-0.026,1.288,0.477,1.334,1.168l0.668,10.001c0.052,0.691-0.465,1.293-1.156,1.346
				C1628.732,3164.518,1628.701,3164.519,1628.668,3164.519z M2153.263,3147.545c-0.038,0-0.075-0.001-0.114-0.005
				c-0.689-0.062-1.199-0.671-1.136-1.362c0.291-3.227,0.575-6.56,0.847-9.986c0.057-0.691,0.684-1.174,1.351-1.151
				c0.691,0.055,1.205,0.66,1.151,1.35c-0.276,3.436-0.56,6.775-0.851,10.012
				C2154.452,3147.056,2153.905,3147.545,2153.263,3147.545z M1626.446,3131.148c-0.655,0-1.205-0.508-1.249-1.171l-0.666-10.012
				c-0.046-0.691,0.477-1.288,1.168-1.334c0.691-0.023,1.288,0.475,1.334,1.167l0.666,10.012c0.046,0.691-0.477,1.288-1.168,1.334
				C1626.503,3131.146,1626.474,3131.148,1626.446,3131.148z M2155.677,3114.186c-0.023,0-0.046,0-0.07-0.001
				c-0.691-0.038-1.221-0.629-1.184-1.321c0.178-3.281,0.341-6.619,0.488-10.009c0.03-0.694,0.658-1.246,1.306-1.198
				c0.692,0.029,1.23,0.614,1.199,1.306c-0.147,3.4-0.31,6.748-0.488,10.038C2156.892,3113.668,2156.338,3114.186,2155.677,3114.186
				z M1624.225,3097.777c-0.655,0-1.205-0.508-1.249-1.171l-0.666-10.012c-0.046-0.691,0.477-1.288,1.168-1.334
				c0.665-0.059,1.288,0.475,1.334,1.167l0.666,10.012c0.046,0.691-0.477,1.289-1.168,1.334
				C1624.282,3097.776,1624.253,3097.777,1624.225,3097.777z M2156.864,3080.761c-0.006,0-0.013,0-0.02,0
				c-0.694-0.011-1.246-0.581-1.235-1.274c0.054-3.307,0.088-6.648,0.103-10.019c0.003-0.691,0.563-1.249,1.254-1.249
				c0.001,0,0.003,0,0.005,0c0.694,0.003,1.252,0.567,1.249,1.259c-0.015,3.38-0.049,6.731-0.103,10.05
				C2158.107,3080.212,2157.549,3080.761,2156.864,3080.761z M1622.004,3064.406c-0.655,0-1.205-0.508-1.249-1.171l-0.665-10.01
				c-0.046-0.691,0.477-1.289,1.168-1.334c0.674-0.057,1.288,0.477,1.334,1.168l0.665,10.01c0.046,0.691-0.477,1.288-1.168,1.334
				C1622.061,3064.405,1622.032,3064.406,1622.004,3064.406z M2156.709,3047.321c-0.678,0-1.236-0.54-1.254-1.221
				c-0.088-3.318-0.199-6.655-0.335-10.006c-0.029-0.691,0.51-1.275,1.202-1.303c0.598-0.082,1.275,0.506,1.303,1.202
				c0.139,3.361,0.25,6.71,0.338,10.042c0.018,0.692-0.529,1.267-1.222,1.287C2156.73,3047.321,2156.721,3047.321,2156.709,3047.321
				z M1619.785,3031.035c-0.655,0-1.205-0.508-1.249-1.171l-0.666-10.01c-0.046-0.691,0.477-1.288,1.168-1.334
				c0.688-0.054,1.288,0.477,1.334,1.167l0.666,10.01c0.046,0.691-0.477,1.288-1.168,1.334
				C1619.842,3031.034,1619.812,3031.035,1619.785,3031.035z M2155.009,3013.926c-0.648,0-1.199-0.5-1.249-1.158
				c-0.253-3.322-0.536-6.648-0.849-9.974c-0.064-0.689,0.443-1.302,1.132-1.367c0.697-0.078,1.3,0.441,1.367,1.132
				c0.314,3.343,0.596,6.682,0.853,10.017c0.052,0.691-0.464,1.293-1.155,1.347
				C2155.074,3013.924,2155.042,3013.926,2155.009,3013.926z M1617.564,2997.664c-0.655,0-1.205-0.508-1.249-1.171l-0.753-11.302
				l10.82-0.372c0.787,0.036,1.272,0.521,1.297,1.212c0.023,0.692-0.519,1.272-1.212,1.297l-8.23,0.281l0.58,8.719
				c0.046,0.691-0.477,1.288-1.168,1.334C1617.621,2997.663,1617.592,2997.664,1617.564,2997.664z M1649.821,2986.524
				c-0.673,0-1.23-0.534-1.254-1.212c-0.023-0.693,0.519-1.272,1.212-1.297l10.028-0.344c0.751-0.044,1.272,0.521,1.297,1.212
				c0.023,0.692-0.519,1.272-1.212,1.297l-10.028,0.344C1649.849,2986.524,1649.834,2986.524,1649.821,2986.524z M1683.244,2985.377
				c-0.671,0-1.228-0.534-1.252-1.212c-0.023-0.692,0.519-1.272,1.212-1.297l10.027-0.344c0.764-0.011,1.272,0.521,1.297,1.212
				c0.023,0.692-0.519,1.272-1.212,1.297l-10.027,0.344C1683.274,2985.377,1683.259,2985.377,1683.244,2985.377z M1716.671,2984.229
				c-0.674,0-1.23-0.534-1.254-1.212c-0.023-0.692,0.519-1.272,1.212-1.297l10.027-0.343c0.805,0.039,1.271,0.521,1.297,1.212
				c0.023,0.692-0.519,1.272-1.212,1.297l-10.027,0.343C1716.699,2984.229,1716.684,2984.229,1716.671,2984.229z M1750.096,2983.083
				c-0.673,0-1.23-0.534-1.254-1.212c-0.023-0.692,0.519-1.272,1.212-1.297l10.027-0.344c0.683,0.026,1.272,0.519,1.297,1.212
				c0.023,0.692-0.519,1.272-1.212,1.297l-10.027,0.345C1750.124,2983.083,1750.109,2983.083,1750.096,2983.083z M1783.521,2981.937
				c-0.673,0-1.23-0.534-1.254-1.212c-0.023-0.692,0.519-1.272,1.212-1.297l10.027-0.344c0.798,0,1.271,0.521,1.297,1.212
				c0.023,0.692-0.519,1.272-1.212,1.296l-10.027,0.345C1783.548,2981.937,1783.534,2981.937,1783.521,2981.937z M1816.944,2980.789
				c-0.673,0-1.228-0.534-1.253-1.212c-0.023-0.692,0.519-1.272,1.212-1.297l10.027-0.343c0.735,0.042,1.271,0.521,1.297,1.212
				c0.023,0.692-0.519,1.272-1.212,1.297l-10.027,0.343C1816.973,2980.789,1816.959,2980.789,1816.944,2980.789z M2151.485,2980.671
				c-0.617,0-1.155-0.456-1.241-1.083c-0.454-3.308-0.94-6.61-1.465-9.903c-0.108-0.683,0.359-1.326,1.043-1.436
				c0.668-0.096,1.324,0.358,1.435,1.043c0.524,3.309,1.014,6.627,1.471,9.952c0.095,0.688-0.385,1.32-1.071,1.414
				C2151.599,2980.667,2151.542,2980.671,2151.485,2980.671z M1850.37,2979.642c-0.673,0-1.23-0.534-1.254-1.212
				c-0.023-0.692,0.519-1.272,1.212-1.297l10.027-0.344c0.697,0.037,1.272,0.521,1.297,1.212c0.023,0.692-0.519,1.272-1.212,1.297
				l-10.027,0.344C1850.398,2979.642,1850.383,2979.642,1850.37,2979.642z M1883.795,2978.496c-0.673,0-1.23-0.534-1.254-1.212
				c-0.023-0.692,0.519-1.272,1.212-1.297l10.027-0.344c0.729,0.041,1.272,0.519,1.297,1.212c0.023,0.692-0.519,1.272-1.212,1.297
				l-10.027,0.344C1883.823,2978.496,1883.808,2978.496,1883.795,2978.496z M1917.22,2977.348c-0.675,0-1.23-0.534-1.254-1.212
				c-0.023-0.692,0.519-1.272,1.212-1.297l10.027-0.343c0.75,0.046,1.272,0.521,1.297,1.212c0.023,0.692-0.519,1.272-1.212,1.297
				l-10.027,0.343C1917.248,2977.348,1917.233,2977.348,1917.22,2977.348z M1950.645,2976.201c-0.673,0-1.23-0.534-1.254-1.212
				c-0.023-0.692,0.519-1.272,1.212-1.297l10.027-0.344c0.769-0.01,1.272,0.521,1.297,1.212c0.023,0.692-0.519,1.272-1.212,1.297
				l-10.027,0.345C1950.673,2976.201,1950.658,2976.201,1950.645,2976.201z M1984.07,2975.055c-0.673,0-1.23-0.534-1.254-1.212
				c-0.023-0.692,0.519-1.272,1.212-1.297l10.027-0.344c0.668,0.052,1.272,0.519,1.297,1.212c0.023,0.692-0.519,1.272-1.212,1.296
				l-10.027,0.345C1984.098,2975.055,1984.083,2975.055,1984.07,2975.055z M2017.493,2973.907c-0.671,0-1.228-0.534-1.252-1.212
				c-0.023-0.693,0.519-1.272,1.212-1.297l10.027-0.344c0.792-0.029,1.272,0.521,1.297,1.212c0.023,0.692-0.519,1.272-1.212,1.297
				l-10.027,0.345C2017.523,2973.907,2017.508,2973.907,2017.493,2973.907z M2050.917,2972.76c-0.671,0-1.228-0.534-1.253-1.212
				c-0.023-0.692,0.519-1.272,1.212-1.297l10.028-0.344c0.803,0.001,1.271,0.521,1.297,1.212c0.023,0.692-0.519,1.272-1.212,1.297
				l-10.028,0.344C2050.946,2972.76,2050.931,2972.76,2050.917,2972.76z M2084.343,2971.613c-0.674,0-1.23-0.534-1.254-1.212
				c-0.023-0.692,0.519-1.272,1.212-1.297l10.029-0.343c0.776,0.023,1.272,0.521,1.296,1.212c0.023,0.692-0.519,1.272-1.212,1.297
				l-10.028,0.343C2084.371,2971.613,2084.356,2971.613,2084.343,2971.613z M2117.768,2970.466c-0.673,0-1.23-0.534-1.254-1.212
				c-0.023-0.692,0.519-1.272,1.212-1.297l10.029-0.344c0.741-0.018,1.272,0.521,1.297,1.212c0.023,0.692-0.519,1.272-1.212,1.297
				l-10.029,0.344C2117.796,2970.466,2117.781,2970.466,2117.768,2970.466z"/>
			
				<linearGradient id="SVGID_00000182515373393666263660000017986762584760734351_" gradientUnits="userSpaceOnUse" x1="3869.1123" y1="2346.2981" x2="3865.8452" y2="2267.0747" gradientTransform="matrix(0.9995 -0.0343 0.0343 0.9995 -2177.5273 670.9679)">
				<stop  offset="0" style="stop-color:#CB236D"/>
				<stop  offset="1" style="stop-color:#4C246D"/>
			</linearGradient>
			<path style="fill:url(#SVGID_00000182515373393666263660000017986762584760734351_);" d="M1728.921,2847.627l0.846-14.363
				c1.392-3.47,4.444-5.997,8.128-6.714c13.775-2.68,47.99-7.734,64.953,4.058l3.042,16.553L1728.921,2847.627z"/>
			
				<linearGradient id="SVGID_00000029019193420012333080000002797606841290101397_" gradientUnits="userSpaceOnUse" x1="3864.9761" y1="2227.3538" x2="3881.311" y2="2454.4082" gradientTransform="matrix(0.9995 -0.0343 0.0343 0.9995 -2177.5273 670.9679)">
				<stop  offset="0" style="stop-color:#CB236D"/>
				<stop  offset="1" style="stop-color:#4C246D"/>
			</linearGradient>
			<path style="fill:url(#SVGID_00000029019193420012333080000002797606841290101397_);" d="M1771.713,2832.367
				c-3.163,0.887-6.357,0.995-9.584,0.318c-3.905-0.818-6.756-4.189-6.892-8.159l-1.538-44.832l22.815-0.783l1.538,44.799
				C1778.189,2827.696,1775.571,2831.284,1771.713,2832.367z"/>
			
				<linearGradient id="SVGID_00000067210539108676208270000012830767098504692399_" gradientUnits="userSpaceOnUse" x1="4089.8308" y1="2337.1965" x2="4086.5637" y2="2257.9731" gradientTransform="matrix(0.9995 -0.0343 0.0343 0.9995 -2177.5273 670.9679)">
				<stop  offset="0" style="stop-color:#CB236D"/>
				<stop  offset="1" style="stop-color:#4C246D"/>
			</linearGradient>
			<path style="fill:url(#SVGID_00000067210539108676208270000012830767098504692399_);" d="M1949.904,2840.044l0.846-14.364
				c1.393-3.47,4.445-5.997,8.129-6.714c13.774-2.68,47.99-7.734,64.953,4.058l3.042,16.553L1949.904,2840.044z"/>
			
				<linearGradient id="SVGID_00000122723011254468702670000004892440325228385955_" gradientUnits="userSpaceOnUse" x1="4085.1011" y1="2211.5183" x2="4101.4355" y2="2438.571" gradientTransform="matrix(0.9995 -0.0343 0.0343 0.9995 -2177.5273 670.9679)">
				<stop  offset="0" style="stop-color:#CB236D"/>
				<stop  offset="1" style="stop-color:#4C246D"/>
			</linearGradient>
			<path style="fill:url(#SVGID_00000122723011254468702670000004892440325228385955_);" d="M1992.696,2824.783
				c-3.162,0.887-6.357,0.995-9.584,0.318c-3.905-0.819-6.755-4.189-6.892-8.159l-1.7-49.555l22.815-0.783l1.7,49.522
				C1999.172,2820.113,1996.555,2823.701,1992.696,2824.783z"/>
			
				<linearGradient id="SVGID_00000098187543107047287800000006774280308171186592_" gradientUnits="userSpaceOnUse" x1="3994.4346" y1="2100.9502" x2="3972.3826" y2="2262.6646" gradientTransform="matrix(0.9995 -0.0343 0.0343 0.9995 -2177.5273 670.9679)">
				<stop  offset="0" style="stop-color:#CB236D"/>
				<stop  offset="1" style="stop-color:#4C246D"/>
			</linearGradient>
			<path style="fill:url(#SVGID_00000098187543107047287800000006774280308171186592_);" d="M1751.759,2790.762l245.085-16.542
				c5.587-0.377,10.195-4.575,10.967-10.097c1.081-7.727,1.871-19.267-0.305-31.127c-2.475-13.487-14.48-23.156-28.255-23.012
				c-45.811,0.482-162.335,4.513-225.687,32.121c-6.7,2.92-11.539,8.898-13.016,16.028c-1.409,6.8-2.19,15.843,0.267,24.935
				C1742.123,2787.9,1746.744,2791.101,1751.759,2790.762z"/>
			<path style="fill:#FFFFFF;" d="M1747.032,2780.419c-1.648,0-3.082-1.215-3.308-2.894c-0.056-0.403-1.318-9.999,0.874-19.361
				c1.772-7.573,7.496-13.807,14.941-16.27c13.633-4.514,39.729-12.289,61.306-13.636c1.849-0.104,3.431,1.287,3.547,3.129
				c0.116,1.844-1.285,3.433-3.129,3.547c-21.605,1.349-48.893,9.758-59.622,13.309c-5.25,1.738-9.284,6.122-10.53,11.446
				c-1.902,8.129-0.769,16.853-0.758,16.941c0.245,1.829-1.039,3.512-2.869,3.759
				C1747.331,2780.409,1747.181,2780.419,1747.032,2780.419z"/>
			
				<linearGradient id="SVGID_00000011716744673989517880000010709569259624351418_" gradientUnits="userSpaceOnUse" x1="4001.0857" y1="2226.8921" x2="3920.2283" y2="2981.5603" gradientTransform="matrix(0.9995 -0.0343 0.0343 0.9995 -2177.5273 670.9679)">
				<stop  offset="0" style="stop-color:#CB236D"/>
				<stop  offset="1" style="stop-color:#4C246D"/>
			</linearGradient>
			<path style="fill:url(#SVGID_00000011716744673989517880000010709569259624351418_);" d="M1614.889,2845.956
				c79.234-3.733,422.025-19.104,522.046-10.504c8.612,0.74,15.825,6.775,17.971,15.109c6.799,26.407,20.761,87.814,21.461,149.135
				c0.095,8.345-5.778,15.59-13.957,17.43l-225.898,50.818l-80.767,2.772l-243.923-39.845c-8.598-1.404-15.141-8.42-15.88-17.062
				c-2.632-30.773-7.576-103.019-0.837-149.862C1596.537,2853.995,1604.799,2846.432,1614.889,2845.956z"/>
			<path style="fill:#FFFFFF;" d="M1857.002,3052.312c-0.067,0-0.135-0.005-0.204-0.016l-9.903-1.617
				c-0.683-0.111-1.146-0.756-1.035-1.44c0.113-0.683,0.745-1.158,1.44-1.035l9.903,1.617c0.683,0.111,1.146,0.756,1.035,1.44
				C1858.137,3051.874,1857.606,3052.312,1857.002,3052.312z M1871.42,3051.817c-0.673,0-1.23-0.534-1.254-1.212
				c-0.023-0.692,0.519-1.272,1.212-1.297l10.027-0.344c0.776-0.008,1.272,0.521,1.297,1.212c0.023,0.692-0.519,1.272-1.212,1.297
				l-10.027,0.344C1871.448,3051.817,1871.433,3051.817,1871.42,3051.817z M1904.845,3050.671c-0.673,0-1.23-0.534-1.254-1.212
				c-0.023-0.692,0.519-1.272,1.212-1.297l10.027-0.344c0.712,0.034,1.272,0.521,1.297,1.212c0.023,0.692-0.519,1.272-1.212,1.297
				l-10.027,0.345C1904.873,3050.671,1904.858,3050.671,1904.845,3050.671z M1938.165,3048.732c-0.573,0-1.091-0.395-1.222-0.98
				c-0.152-0.675,0.273-1.346,0.949-1.498l9.79-2.201c0.663-0.158,1.347,0.271,1.497,0.949c0.152,0.675-0.273,1.346-0.949,1.498
				l-9.79,2.201C1938.35,3048.723,1938.257,3048.732,1938.165,3048.732z M1823.995,3046.92c-0.067,0-0.135-0.005-0.204-0.016
				l-9.903-1.617c-0.683-0.111-1.146-0.756-1.035-1.44c0.113-0.682,0.75-1.151,1.44-1.035l9.903,1.617
				c0.683,0.111,1.146,0.756,1.035,1.44C1825.13,3046.482,1824.599,3046.92,1823.995,3046.92z M1790.989,3041.529
				c-0.067,0-0.136-0.005-0.204-0.016l-9.903-1.618c-0.683-0.111-1.146-0.756-1.035-1.44c0.111-0.683,0.754-1.161,1.44-1.035
				l9.903,1.618c0.683,0.111,1.146,0.756,1.035,1.44C1792.123,3041.093,1791.593,3041.529,1790.989,3041.529z M1970.795,3041.392
				c-0.573,0-1.091-0.395-1.222-0.978c-0.152-0.676,0.273-1.347,0.947-1.499l9.788-2.201c0.676-0.154,1.349,0.271,1.499,0.949
				c0.152,0.674-0.273,1.346-0.947,1.497l-9.788,2.201C1970.98,3041.382,1970.886,3041.392,1970.795,3041.392z M1757.982,3036.137
				c-0.067,0-0.135-0.005-0.204-0.016l-9.903-1.617c-0.682-0.111-1.146-0.756-1.035-1.44c0.111-0.683,0.743-1.156,1.44-1.035
				l9.903,1.617c0.683,0.111,1.146,0.756,1.035,1.44C1759.117,3035.699,1758.586,3036.137,1757.982,3036.137z M2003.425,3034.053
				c-0.573,0-1.091-0.395-1.221-0.978c-0.152-0.676,0.273-1.347,0.947-1.499l9.788-2.203c0.673-0.158,1.347,0.271,1.499,0.947
				c0.152,0.676-0.273,1.347-0.947,1.499l-9.788,2.203C2003.609,3034.043,2003.516,3034.053,2003.425,3034.053z M1724.975,3030.744
				c-0.067,0-0.136-0.005-0.204-0.016l-9.903-1.617c-0.683-0.111-1.146-0.756-1.035-1.44c0.113-0.683,0.748-1.15,1.44-1.035
				l9.903,1.617c0.683,0.111,1.146,0.756,1.035,1.44C1726.11,3030.307,1725.579,3030.744,1724.975,3030.744z M2036.053,3026.713
				c-0.573,0-1.091-0.395-1.222-0.978c-0.152-0.676,0.273-1.347,0.947-1.499l9.79-2.203c0.682-0.153,1.347,0.271,1.499,0.947
				c0.152,0.676-0.273,1.347-0.947,1.499l-9.79,2.203C2036.237,3026.703,2036.144,3026.713,2036.053,3026.713z M1691.966,3025.354
				c-0.067,0-0.135-0.005-0.204-0.016l-9.901-1.618c-0.683-0.111-1.146-0.756-1.035-1.44c0.113-0.684,0.751-1.159,1.44-1.035
				l9.901,1.618c0.683,0.111,1.146,0.756,1.035,1.44C1693.101,3024.918,1692.571,3025.354,1691.966,3025.354z M1658.959,3019.962
				c-0.067,0-0.136-0.005-0.204-0.016l-9.901-1.617c-0.682-0.111-1.146-0.756-1.035-1.44c0.111-0.684,0.74-1.155,1.44-1.035
				l9.901,1.617c0.683,0.111,1.146,0.756,1.035,1.44C1660.094,3019.524,1659.564,3019.962,1658.959,3019.962z M2068.682,3019.372
				c-0.573,0-1.091-0.395-1.221-0.978c-0.152-0.676,0.273-1.347,0.947-1.499l9.788-2.203c0.681-0.16,1.347,0.271,1.499,0.947
				c0.152,0.676-0.273,1.347-0.947,1.499l-9.789,2.203C2068.867,3019.362,2068.774,3019.372,2068.682,3019.372z M1625.953,3014.569
				c-0.067,0-0.135-0.005-0.204-0.016l-9.901-1.617c-0.683-0.111-1.146-0.756-1.035-1.44c0.113-0.683,0.745-1.148,1.44-1.035
				l9.901,1.617c0.683,0.111,1.146,0.756,1.035,1.44C1627.088,3014.132,1626.557,3014.569,1625.953,3014.569z M2101.312,3012.031
				c-0.573,0-1.091-0.395-1.221-0.978c-0.152-0.676,0.273-1.347,0.947-1.499l9.788-2.203c0.678-0.154,1.347,0.271,1.499,0.947
				c0.152,0.676-0.273,1.347-0.947,1.499l-9.788,2.203C2101.496,3012.022,2101.403,3012.031,2101.312,3012.031z M2133.94,3004.691
				c-0.573,0-1.091-0.395-1.221-0.98c-0.152-0.674,0.273-1.345,0.949-1.497l9.79-2.201c0.661-0.15,1.347,0.27,1.498,0.949
				c0.152,0.675-0.273,1.346-0.949,1.498l-9.79,2.201C2134.124,3004.681,2134.031,3004.691,2133.94,3004.691z M1613.708,2990.123
				c-0.655,0-1.205-0.508-1.249-1.171c-0.212-3.201-0.425-6.552-0.627-10.028c-0.039-0.692,0.488-1.285,1.179-1.326
				c0.74-0.036,1.285,0.487,1.326,1.179c0.203,3.47,0.411,6.815,0.624,10.009c0.046,0.691-0.477,1.289-1.168,1.334
				C1613.765,2990.121,1613.736,2990.123,1613.708,2990.123z M2156.466,2989.489c-0.669,0-1.225-0.529-1.251-1.205
				c-0.131-3.341-0.299-6.674-0.501-9.996c-0.041-0.692,0.485-1.287,1.176-1.329c0.65-0.041,1.287,0.485,1.329,1.176
				c0.202,3.341,0.371,6.692,0.501,10.051c0.028,0.692-0.511,1.275-1.203,1.302
				C2156.5,2989.489,2156.484,2989.489,2156.466,2989.489z M1611.956,2956.714c-0.67,0-1.226-0.531-1.251-1.207
				c-0.126-3.305-0.235-6.66-0.327-10.045c-0.018-0.692,0.527-1.269,1.22-1.288c0.673,0.02,1.269,0.527,1.289,1.22
				c0.091,3.379,0.201,6.723,0.323,10.019c0.026,0.692-0.513,1.275-1.205,1.3
				C1611.989,2956.714,1611.972,2956.714,1611.956,2956.714z M2154.018,2956.131c-0.634,0-1.177-0.479-1.246-1.124
				c-0.351-3.348-0.73-6.668-1.13-9.952c-0.085-0.688,0.405-1.313,1.093-1.396c0.689-0.077,1.315,0.403,1.396,1.092
				c0.403,3.297,0.782,6.63,1.136,9.994c0.072,0.689-0.428,1.305-1.117,1.378C2154.106,2956.13,2154.062,2956.131,2154.018,2956.131
				z M1611.311,2923.265h-0.002c-0.692-0.002-1.254-0.563-1.253-1.256c0.005-3.364,0.034-6.721,0.09-10.054
				c0.011-0.691,0.536-1.246,1.275-1.233c0.692,0.011,1.244,0.583,1.233,1.275c-0.056,3.32-0.085,6.664-0.09,10.015
				C1612.563,2922.705,1612.003,2923.265,1611.311,2923.265z M2149.618,2922.968c-0.606,0-1.14-0.441-1.238-1.058
				c-0.532-3.364-1.081-6.661-1.641-9.885c-0.118-0.683,0.34-1.331,1.022-1.45c0.671-0.098,1.333,0.338,1.45,1.022
				c0.56,3.233,1.112,6.543,1.648,9.921c0.108,0.684-0.359,1.326-1.043,1.435
				C2149.749,2922.963,2149.684,2922.968,2149.618,2922.968z M2143.611,2890.054c-0.583,0-1.104-0.408-1.226-1.001
				c-0.707-3.429-1.408-6.704-2.09-9.805c-0.149-0.676,0.279-1.346,0.955-1.494c0.663-0.147,1.344,0.278,1.494,0.955
				c0.686,3.111,1.386,6.395,2.097,9.837c0.14,0.678-0.296,1.341-0.975,1.481
				C2143.781,2890.046,2143.696,2890.054,2143.611,2890.054z M1612.318,2889.837c-0.028,0-0.056-0.002-0.083-0.003
				c-0.691-0.044-1.215-0.642-1.169-1.333c0.222-3.425,0.488-6.777,0.797-10.042c0.067-0.688,0.673-1.196,1.369-1.13
				c0.689,0.067,1.195,0.678,1.13,1.368c-0.309,3.238-0.572,6.568-0.794,9.967
				C1613.525,2889.327,1612.973,2889.837,1612.318,2889.837z M1625.371,2866.344c-0.665,0-1.22-0.524-1.251-1.195
				c-0.033-0.692,0.503-1.28,1.194-1.311l10.03-0.461c0.666-0.062,1.279,0.503,1.31,1.195c0.033,0.692-0.503,1.279-1.195,1.31
				l-10.027,0.46C1625.411,2866.344,1625.391,2866.344,1625.371,2866.344z M1658.799,2864.833c-0.666,0-1.222-0.526-1.251-1.199
				c-0.031-0.692,0.506-1.279,1.197-1.308l10.029-0.441c0.673-0.057,1.279,0.505,1.308,1.197c0.031,0.692-0.505,1.279-1.197,1.308
				l-10.028,0.441C1658.837,2864.833,1658.819,2864.833,1658.799,2864.833z M1692.228,2863.386c-0.668,0-1.223-0.527-1.251-1.202
				c-0.029-0.691,0.508-1.275,1.2-1.305l10.028-0.421c0.666-0.085,1.277,0.506,1.305,1.2c0.029,0.693-0.508,1.277-1.2,1.305
				l-10.027,0.421C1692.264,2863.386,1692.246,2863.386,1692.228,2863.386z M1725.654,2862.007c-0.668,0-1.225-0.529-1.251-1.204
				c-0.029-0.692,0.51-1.275,1.202-1.303l10.032-0.402c0.668-0.041,1.275,0.51,1.302,1.204c0.028,0.691-0.511,1.275-1.204,1.302
				l-10.028,0.402C1725.69,2862.007,1725.672,2862.007,1725.654,2862.007z M1759.085,2860.694c-0.669,0-1.226-0.531-1.251-1.207
				c-0.028-0.691,0.513-1.274,1.205-1.3l10.029-0.381c0.733-0.07,1.275,0.513,1.3,1.205c0.026,0.692-0.513,1.275-1.205,1.3
				l-10.028,0.38C1759.118,2860.694,1759.102,2860.694,1759.085,2860.694z M1792.52,2859.451c-0.673,0-1.229-0.532-1.254-1.21
				c-0.025-0.691,0.518-1.272,1.208-1.298l10.033-0.358c0.694-0.007,1.274,0.518,1.298,1.21c0.024,0.692-0.518,1.272-1.21,1.298
				l-10.03,0.358C1792.55,2859.451,1792.535,2859.451,1792.52,2859.451z M1825.952,2858.288c-0.674,0-1.231-0.534-1.254-1.212
				c-0.023-0.692,0.519-1.272,1.212-1.297l10.03-0.331c0.748-0.018,1.272,0.522,1.295,1.213c0.021,0.692-0.521,1.272-1.213,1.295
				l-10.027,0.331C1825.979,2858.288,1825.965,2858.288,1825.952,2858.288z M2136.108,2857.438c-0.558,0-1.07-0.377-1.213-0.944
				l-0.075-0.289c-2.494-0.211-5.175-0.41-8.036-0.596c-0.691-0.044-1.215-0.64-1.169-1.333c0.044-0.691,0.642-1.204,1.333-1.169
				c3.001,0.194,5.809,0.403,8.415,0.627c0.867,0.077,1.576,0.64,1.773,1.4l0.189,0.74c0.171,0.671-0.234,1.354-0.905,1.525
				C2136.316,2857.424,2136.211,2857.438,2136.108,2857.438z M2135.143,2856.232h0.031H2135.143z M1859.378,2857.212
				c-0.676,0-1.233-0.537-1.254-1.217c-0.021-0.691,0.524-1.271,1.217-1.292l10.03-0.304c0.748-0.049,1.269,0.526,1.292,1.217
				c0.02,0.692-0.524,1.271-1.217,1.292l-10.03,0.304C1859.403,2857.212,1859.39,2857.212,1859.378,2857.212z M1892.81,2856.236
				c-0.678,0-1.235-0.539-1.254-1.22c-0.018-0.692,0.527-1.269,1.22-1.288l10.032-0.271c0.771,0.028,1.267,0.531,1.287,1.221
				c0.018,0.693-0.529,1.267-1.221,1.287l-10.029,0.271C1892.833,2856.236,1892.821,2856.236,1892.81,2856.236z M1926.244,2855.375
				c-0.679,0-1.238-0.542-1.254-1.225c-0.016-0.692,0.532-1.267,1.225-1.283l10.033-0.232c0.674,0.003,1.266,0.532,1.282,1.226
				c0.015,0.692-0.534,1.266-1.226,1.282l-10.03,0.232C1926.264,2855.375,1926.254,2855.375,1926.244,2855.375z M1959.679,2854.656
				c-0.682,0-1.241-0.546-1.254-1.23c-0.013-0.692,0.537-1.266,1.23-1.279l10.035-0.185c0.712-0.016,1.264,0.541,1.275,1.233
				c0.011,0.693-0.541,1.264-1.233,1.275l-10.028,0.185C1959.695,2854.656,1959.687,2854.656,1959.679,2854.656z M2103.48,2854.527
				c-0.013,0-0.026,0-0.041,0c-3.209-0.104-6.549-0.198-10.017-0.281c-0.692-0.017-1.241-0.591-1.225-1.284
				c0.016-0.692,0.566-1.146,1.283-1.225c3.478,0.083,6.824,0.177,10.04,0.281c0.692,0.023,1.235,0.603,1.213,1.295
				C2104.712,2853.992,2104.155,2854.527,2103.48,2854.527z M1993.122,2854.113c-0.686,0-1.245-0.55-1.254-1.238
				c-0.01-0.692,0.545-1.261,1.238-1.271l10.035-0.124c0.632-0.078,1.259,0.545,1.269,1.24c0.008,0.693-0.547,1.261-1.24,1.269
				l-10.032,0.124C1993.133,2854.113,1993.127,2854.113,1993.122,2854.113z M2070.044,2853.856c-0.003,0-0.008,0-0.011,0
				c-3.26-0.031-6.602-0.057-10.028-0.077c-0.694-0.003-1.251-0.568-1.248-1.26c0.003-0.691,0.565-1.248,1.254-1.248
				c0.002,0,0.005,0,0.007,0c3.429,0.02,6.775,0.046,10.038,0.077c0.692,0.007,1.249,0.573,1.243,1.265
				C2071.292,2853.302,2070.732,2853.856,2070.044,2853.856z M2026.566,2853.791c-0.689,0-1.251-0.557-1.254-1.248
				c-0.003-0.692,0.555-1.257,1.248-1.261l10.037-0.041c0,0,0.002,0,0.003,0c0.691,0,1.252,0.559,1.254,1.251
				c0.002,0.692-0.558,1.256-1.251,1.257l-10.03,0.041C2026.571,2853.791,2026.568,2853.791,2026.566,2853.791z"/>
			
				<linearGradient id="SVGID_00000038412815706171604920000015176450370311458188_" gradientUnits="userSpaceOnUse" x1="4006.9524" y1="2320.0288" x2="3975.0996" y2="2572.4009" gradientTransform="matrix(0.9995 -0.0343 0.0343 0.9995 -2177.5273 670.9679)">
				<stop  offset="0" style="stop-color:#A737D5"/>
				<stop  offset="1" style="stop-color:#EF497A"/>
			</linearGradient>
			<path style="fill:url(#SVGID_00000038412815706171604920000015176450370311458188_);" d="M1930.072,3102.115l-70.758,2.428
				c-9.273,0.318-17.318-6.313-18.733-15.439l-10.512-67.808c-1.674-10.801,6.508-20.635,17.482-21.012l85.005-2.916
				c10.752-0.369,19.505,8.518,18.92,19.21l-3.734,68.297C1947.226,3094.308,1939.557,3101.789,1930.072,3102.115z"/>
			<defs>
				<filter id="Adobe_OpacityMaskFilter" filterUnits="userSpaceOnUse" x="1844.659" y="3010.157" width="92.591" height="81.589">
					<feFlood  style="flood-color:white;flood-opacity:1" result="back"/>
					<feBlend  in="SourceGraphic" in2="back" mode="normal"/>
				</filter>
			</defs>
			
				<mask maskUnits="userSpaceOnUse" x="1844.659" y="3010.157" width="92.591" height="81.589" id="SVGID_00000178178401864254453050000012076257203629666949_">
				<g style="filter:url(#Adobe_OpacityMaskFilter);">
					<defs>
						
							<filter id="Adobe_OpacityMaskFilter_00000156566658343008319750000016766560443642177725_" filterUnits="userSpaceOnUse" x="1844.659" y="3010.157" width="92.591" height="81.589">
							<feFlood  style="flood-color:white;flood-opacity:1" result="back"/>
							<feBlend  in="SourceGraphic" in2="back" mode="normal"/>
						</filter>
					</defs>
					
						<mask maskUnits="userSpaceOnUse" x="1844.659" y="3010.157" width="92.591" height="81.589" id="SVGID_00000178178401864254453050000012076257203629666949_">
						<g style="filter:url(#Adobe_OpacityMaskFilter_00000156566658343008319750000016766560443642177725_);">
						</g>
					</mask>
					
						<linearGradient id="SVGID_00000001647181005779108750000008642823008643725444_" gradientUnits="userSpaceOnUse" x1="3938.6855" y1="2518.0356" x2="4031.3062" y2="2518.0356" gradientTransform="matrix(0.9995 -0.0343 0.0343 0.9995 -2177.5273 670.9679)">
						<stop  offset="0" style="stop-color:#FFFFFF"/>
						<stop  offset="1" style="stop-color:#000000"/>
					</linearGradient>
					
						<path style="mask:url(#SVGID_00000178178401864254453050000012076257203629666949_);fill:url(#SVGID_00000001647181005779108750000008642823008643725444_);" d="
						M1920.939,3089.891l-53.855,1.847c-7.058,0.242-13.182-4.804-14.258-11.751l-8-51.609c-1.274-8.221,4.953-15.705,13.307-15.992
						l64.698-2.22c8.182-0.28,14.845,6.484,14.4,14.622l-2.842,51.981C1933.994,3083.948,1928.158,3089.642,1920.939,3089.891z"/>
				</g>
			</mask>
			
				<linearGradient id="SVGID_00000103224004517981068090000007169004824380796552_" gradientUnits="userSpaceOnUse" x1="3938.6855" y1="2518.0356" x2="4031.3062" y2="2518.0356" gradientTransform="matrix(0.9995 -0.0343 0.0343 0.9995 -2177.5273 670.9679)">
				<stop  offset="0" style="stop-color:#FFFFFF"/>
				<stop  offset="1" style="stop-color:#FFFFFF"/>
			</linearGradient>
			<path style="opacity:0.32;fill:url(#SVGID_00000103224004517981068090000007169004824380796552_);" d="M1920.939,3089.891
				l-53.855,1.847c-7.058,0.242-13.182-4.804-14.258-11.751l-8-51.609c-1.274-8.221,4.953-15.705,13.307-15.992l64.698-2.22
				c8.182-0.28,14.845,6.484,14.4,14.622l-2.842,51.981C1933.994,3083.948,1928.158,3089.642,1920.939,3089.891z"/>
		</g>
		<g>
			
				<linearGradient id="SVGID_00000029765497580907448180000008644948987103254947_" gradientUnits="userSpaceOnUse" x1="2983.3496" y1="3018.5466" x2="2754.6443" y2="3460.5039">
				<stop  offset="0" style="stop-color:#FDF53F"/>
				<stop  offset="1" style="stop-color:#D93C65"/>
			</linearGradient>
			<path style="fill:url(#SVGID_00000029765497580907448180000008644948987103254947_);" d="M3164.197,2897.435l-19.799,31.84
				l-4.24,142.072h-31.077l28.279,36.593l1.314,95.268c-0.254-0.253-0.551-0.507-0.806-0.719l-287.408,15.539l-65.884-31.299
				l-7.59-254.216l63.595-52.999l314.384-22.939l-13.47,10.938v9.856h-40.894l9.879,20.067H3164.197z"/>
			
				<linearGradient id="SVGID_00000053546927622381894460000003768108016430332325_" gradientUnits="userSpaceOnUse" x1="1909.8279" y1="3561.8867" x2="3757.6221" y2="2365.8315">
				<stop  offset="0" style="stop-color:#FDF53F"/>
				<stop  offset="1" style="stop-color:#D93C65"/>
			</linearGradient>
			<polygon style="fill:url(#SVGID_00000053546927622381894460000003768108016430332325_);" points="2850.529,3150.172 
				2850.529,3218.007 2643.09,3126.854 2642.734,3102.095 2613.047,3058.298 2634.241,3044.18 2632.84,2911.309 2613.04,2881.631 
				2629.998,2850.554 2628.807,2831.476 2843.84,2878.833 2843.84,2986.224 2789.194,2966.425 2791.57,2980.585 2842.214,3006.023 
				2849.237,3127.533 2786.984,3100.695 2786.984,3113.414 			"/>
			
				<linearGradient id="SVGID_00000057130370386936938840000018085370111358010025_" gradientUnits="userSpaceOnUse" x1="2981.082" y1="2631.5598" x2="2672.4944" y2="3367.8794">
				<stop  offset="0" style="stop-color:#FDF53F"/>
				<stop  offset="1" style="stop-color:#D93C65"/>
			</linearGradient>
			<polygon style="fill:url(#SVGID_00000057130370386936938840000018085370111358010025_);" points="2628.366,2831.476 
				2887.558,2804.978 3155.718,2856.561 2842.961,2880.814 			"/>
			<g style="opacity:0.5;">
				
					<linearGradient id="SVGID_00000031199271167274803530000003502897854448395657_" gradientUnits="userSpaceOnUse" x1="3342.0679" y1="2322.5723" x2="2516.3914" y2="3991.8003">
					<stop  offset="0" style="stop-color:#FDF53F"/>
					<stop  offset="1" style="stop-color:#D93C65"/>
				</linearGradient>
				<polygon style="fill:url(#SVGID_00000031199271167274803530000003502897854448395657_);" points="2894.977,2977.744 
					3143.462,2960.831 3143.082,2973.539 				"/>
				
					<linearGradient id="SVGID_00000047037467596355465980000003259944596191041664_" gradientUnits="userSpaceOnUse" x1="3368.1294" y1="2550.9009" x2="2617.5154" y2="3884.1355">
					<stop  offset="0" style="stop-color:#FDF53F"/>
					<stop  offset="1" style="stop-color:#D93C65"/>
				</linearGradient>
				<path style="fill:url(#SVGID_00000047037467596355465980000003259944596191041664_);" d="M2935.254,3135.496
					c4.24-3.003,202.306-12.542,202.306-12.542l0.299,21.226L2935.254,3135.496z"/>
			</g>
			
				<linearGradient id="SVGID_00000008847632262514315990000011757745155647382685_" gradientUnits="userSpaceOnUse" x1="3106.6353" y1="2275.5205" x2="2682.4768" y2="3293.0237">
				<stop  offset="0" style="stop-color:#FDF53F"/>
				<stop  offset="1" style="stop-color:#D93C65"/>
			</linearGradient>
			<path style="fill:url(#SVGID_00000008847632262514315990000011757745155647382685_);" d="M2613.039,2813.457l237.422,51.583
				c0,0,281.232-7.419,305.257-61.122c-40.983,12.719-271.34-28.265-271.34-28.265L2613.039,2813.457z"/>
			
				<linearGradient id="SVGID_00000085224113594001692200000010813174265003742087_" gradientUnits="userSpaceOnUse" x1="2665.3206" y1="2930.1313" x2="2119.8142" y2="3362.5796">
				<stop  offset="0" style="stop-color:#FDF53F"/>
				<stop  offset="1" style="stop-color:#D93C65"/>
			</linearGradient>
			<path style="fill:url(#SVGID_00000085224113594001692200000010813174265003742087_);" d="M2589.014,2788.372
				c0,0,200.678,77.728,265.686,77.728c65.009,0,253.481-84.793,253.481-84.793s-269.026-6.514-300.117-40.708
				C2738.816,2762.934,2589.014,2788.372,2589.014,2788.372z"/>
		</g>
	</g>
</g>
</svg>
