<svg xmlns="http://www.w3.org/2000/svg" xmlns:xlink="http://www.w3.org/1999/xlink" viewBox="0 0 500 500"><defs><clipPath id="freepik--clip-path--inject-202"><rect x="284.46" y="143.36" width="45.62" height="5.21" style="fill:none"></rect></clipPath><clipPath id="freepik--clip-path-2--inject-202"><rect x="284.66" y="204.73" width="45.62" height="5.21" style="fill:none"></rect></clipPath><clipPath id="freepik--clip-path-3--inject-202"><rect x="329.96" y="204.73" width="45.62" height="5.21" style="fill:none"></rect></clipPath><clipPath id="freepik--clip-path-4--inject-202"><polygon points="161.36 301.39 125.7 301.39 125.7 296.18 161.49 296.18 161.36 301.39" style="fill:none"></polygon></clipPath></defs><g id="freepik--Character--inject-202"><path d="M450.47,387.34c-1.18,8.83-5.91,18.07-14,21.73-44.06,19.86-88.68,19.48-128.47-.86C301.72,405,295,396,294.61,389,316.43,382.54,406,374,450.47,387.34Z" style="fill:#1E2749"></path><path d="M450.47,387.34c-1.18,8.83-5.91,18.07-14,21.73-44.06,19.86-88.68,19.48-128.47-.86C301.72,405,295,396,294.61,389,316.43,382.54,406,374,450.47,387.34Z" style="fill:#fff;opacity:0.5"></path><g id="freepik--group--inject-202"><path d="M393.66,291.64a6.4,6.4,0,0,1,0,.77c0,.91,0,1.82-.06,2.75-.07,3.13-.25,6.21-.51,9.32a107.39,107.39,0,0,1-3.07,18.85l-.74,2.41-.19.59,0,.16-.07.23-.23.64c-2.5,12.06-28.86,2.13-31.24-6.9l-.31-4.45,20.64,6.7c1-5.62,2.59-13.27,2.82-19,.17-2.91.26-5.84.34-8.77,0-.9,0-1.81,0-2.7a6.3,6.3,0,0,1,12.57-.62Z" style="fill:#b55b52"></path><path d="M360.82,295.82l9.27,25a1,1,0,0,1,.06.4l-.08,2.35L368.51,322a1,1,0,0,1-.24-.36l-10-24.8a1.07,1.07,0,0,1,.54-1.36l.57-.26A1.05,1.05,0,0,1,360.82,295.82Z" style="fill:#1E2749"></path><path d="M360.82,295.82l9.27,25a1,1,0,0,1,.06.4l-.08,2.35L368.51,322a1,1,0,0,1-.24-.36l-10-24.8a1.07,1.07,0,0,1,.54-1.36l.57-.26A1.05,1.05,0,0,1,360.82,295.82Z" style="opacity:0.6000000000000001"></path><path d="M361,305.26c0,.12.11.24.16.37s.18-.07.29-.09.05-.42-.07-.61c-.92-1.33-2.26-2.66-2.83-4.18a2.83,2.83,0,0,1-.25-1.27.68.68,0,0,1,.71-.69,1,1,0,0,0-.35-1.08c-.3-.14-.64.06-.91.27a1.74,1.74,0,0,0-.42,2.16C358.22,302,360.24,303.37,361,305.26Z" style="fill:#1E2749"></path><path d="M365.44,319.14a18.85,18.85,0,0,1-1.79,1.33,9.75,9.75,0,0,1-3.67,1.6,2.31,2.31,0,0,1-2.43-1.61,0,0,0,0,1,0,0,2.12,2.12,0,0,1-.11-.61l-.19-3.81,6.09-7.21Z" style="fill:#b55b52"></path><path d="M370.86,313.06l.34,2.19a2.62,2.62,0,0,1-1.95,2.94l-3.81.95-2.11-10.34L369.2,311A2.61,2.61,0,0,1,370.86,313.06Z" style="fill:#b55b52"></path><path d="M396.05,286.63c2.29,7.56-1.8,26.39-1.8,26.39l-19.86-.4c2.28-7.21,2.31-17.26,5.41-24.16C382.71,282.26,393.54,278.4,396.05,286.63Z" style="fill:#1E2749"></path><path d="M396.05,286.63c2.29,7.56-1.8,26.39-1.8,26.39l-19.86-.4c2.28-7.21,2.31-17.26,5.41-24.16C382.71,282.26,393.54,278.4,396.05,286.63Z" style="fill:#fff;opacity:0.5"></path><path d="M423.42,278.12A4.72,4.72,0,0,1,428,283v.13a193,193,0,0,0,.4,22.94c.47,6.43,1.2,12.52,2,18,1.83,12.87,4,22.53,4.29,25.9l-42.81,8.21c-11.18-33.55-11.4-59.22-10.26-68.71a7.85,7.85,0,0,1,5.28-6.53c1.62-.54,3.56-1.15,5.63-1.69.73-.14,1.47-.36,2.21-.52a162.57,162.57,0,0,1,18.65-2.4c1.18-.09,2.38-.14,3.56-.19C419.3,278.06,421.56,278.08,423.42,278.12Z" style="fill:#1E2749"></path><path d="M423.42,278.12A4.72,4.72,0,0,1,428,283v.13a193,193,0,0,0,.4,22.94c.47,6.43,1.2,12.52,2,18,1.83,12.87,4,22.53,4.29,25.9l-42.81,8.21c-11.18-33.55-11.4-59.22-10.26-68.71a7.85,7.85,0,0,1,5.28-6.53c1.62-.54,3.56-1.15,5.63-1.69.73-.14,1.47-.36,2.21-.52a162.57,162.57,0,0,1,18.65-2.4c1.18-.09,2.38-.14,3.56-.19C419.3,278.06,421.56,278.08,423.42,278.12Z" style="fill:#fff;opacity:0.5"></path><path d="M408.93,257.58c-.42,6.14-.22,17.27,4.48,20.75-8.7,8.73-13.23,19.48-15.48,17.78-1.18-.89-4.06-13.34-3.16-15.44,6.49-2.44,5.69-7.37,4-11.89Z" style="fill:#b55b52"></path><path d="M404.78,262.14l-6,6.63a19.27,19.27,0,0,1,1,3.24c2.51-.69,5.66-3.94,5.59-6.65A8.83,8.83,0,0,0,404.78,262.14Z" style="opacity:0.2;isolation:isolate"></path><path d="M384.83,244.78c-3.92.94-4.76,8.19.36,13S390.11,243.5,384.83,244.78Z" style="fill:#263238"></path><path d="M405.51,246.93c2.05,7.94,3.65,12.48,1,17.75-4,7.93-14.73,7.5-19.12.33-3.94-6.45-6.65-18.35,0-23.92a11.19,11.19,0,0,1,18.12,5.84Z" style="fill:#b55b52"></path><path d="M399.87,247.79c.3,1.68,2.24,3.79,2.24,3.79a7.52,7.52,0,0,1,1.18,5.53l3,.07a4.73,4.73,0,0,1,3.83-5.22q-.7,5-1.85,9.89A24.82,24.82,0,0,0,414.43,251a14.22,14.22,0,0,0,.44-6,7.71,7.71,0,0,0-3.07-5.09,8.41,8.41,0,0,0-7.65-.44C399.76,241.12,398.73,241.3,399.87,247.79Z" style="fill:#263238"></path><path d="M411.69,252.65a7.78,7.78,0,0,1-2.14,5.55c-1.9,2-4.22.61-4.85-1.9-.57-2.26-.26-6,2.2-7S411.6,250.12,411.69,252.65Z" style="fill:#b55b52"></path><path d="M394.61,253.94c.21.63,0,1.26-.38,1.4s-.91-.28-1.13-.91,0-1.26.38-1.39S394.41,253.31,394.61,253.94Z" style="fill:#263238"></path><path d="M387.46,256.26c.21.64,0,1.26-.38,1.4s-.91-.27-1.12-.91,0-1.25.38-1.38S387.24,255.63,387.46,256.26Z" style="fill:#263238"></path><path d="M395.88,249.9a.4.4,0,0,1-.41,0,3.1,3.1,0,0,0-2.78-.46.41.41,0,0,1-.54-.17l0-.08a.38.38,0,0,1,.19-.5h0a3.84,3.84,0,0,1,3.53.55.37.37,0,0,1,.11.53h0A.38.38,0,0,1,395.88,249.9Z" style="fill:#263238"></path><path d="M394,264.1h0a6,6,0,0,0,3.52-4.28.21.21,0,0,0-.17-.24.23.23,0,0,0-.25.18,5.66,5.66,0,0,1-3.26,3.95.23.23,0,0,0-.1.28A.22.22,0,0,0,394,264.1Z" style="fill:#263238"></path><path d="M383.37,253.8a.37.37,0,0,1-.23,0,.39.39,0,0,1-.34-.44,3.88,3.88,0,0,1,2-3,.38.38,0,0,1,.51.18h0a.37.37,0,0,1-.17.5h0a3.12,3.12,0,0,0-1.56,2.33A.37.37,0,0,1,383.37,253.8Z" style="fill:#263238"></path><path d="M421.73,282.7c-3.68-.15-5,1.31-7,6.53-1.83,4.82-1.72,18.13-1.72,18.13.31,7.26-.69,6.55,6.19,6.35,4.41-.13,10.05.21,10.05.21S432.74,283.16,421.73,282.7Z" style="opacity:0.1"></path><path d="M435.25,290.91c.09.91.12,1.83.18,2.75.2,3.12-.19,1.62-.17,4.75a109.52,109.52,0,0,1-1.43,19l-.53,2.45-.13.61,0,.16-.05.24-.18.66c-1.07,3.71-2.07,5.39-3.93,6.38-4.26,2.48-24.7,4.51-30.19,3.43l-.11-6.26s20.11-3.74,22.18-5.26a4.09,4.09,0,0,0,1.33-1.5c0-.15-.19.52,0-.52l.27-2c.51-5.68.59-18.35.41-21.28-.05-.9-.11-1.8-.18-2.69a6.3,6.3,0,0,1,5.5-6.75S434.57,284.44,435.25,290.91Z" style="fill:#b55b52"></path><path d="M357.26,316.87l8.58,20s6.13-2.67,9.08-1.23a29.16,29.16,0,0,1,5.17,3.28l-6.8-22S366.68,310.56,357.26,316.87Z" style="fill:#1E2749"></path><path d="M373.29,316.88l6.8,22L392.35,334a3.67,3.67,0,0,0,2.16-4.45L390.18,315a3.69,3.69,0,0,0-3.17-2.61C383.73,312,377.87,312.24,373.29,316.88Z" style="fill:#1E2749"></path><g style="opacity:0.7000000000000001"><path d="M373.29,316.88l6.8,22L392.35,334a3.67,3.67,0,0,0,2.16-4.45L390.18,315a3.69,3.69,0,0,0-3.17-2.61C383.73,312,377.87,312.24,373.29,316.88Z" style="fill:#fff"></path></g><path d="M357.26,316.87l8.58,20s6.13-2.67,9.08-1.23a29.16,29.16,0,0,1,5.17,3.28l-6.8-22S366.68,310.56,357.26,316.87Z" style="fill:#fff;opacity:0.8"></path><path d="M380.06,338.66c-4.44-.93-8.8-1.93-12.35-.09a2.73,2.73,0,0,1-3.77-1.33c-2.17-4.94-5.31-11.09-7.43-15.82a2.73,2.73,0,0,1,1.07-3.45l.62-.38c2.08-1.45,12.29-3.66,15.07,1.78C374.29,321.35,379.61,338.22,380.06,338.66Z" style="fill:#263238"></path><path d="M394.84,327.43a5.83,5.83,0,0,1-4.48,7.18,9.47,9.47,0,0,0-4.89,2.53,9.11,9.11,0,0,1-3.17,2.1v0l-6.78-20.51-.17.15c.6-3.27,5.3-5.32,8.36-5.74a12.49,12.49,0,0,1,4.25.28,5.88,5.88,0,0,1,4.4,4.27C393,320.13,393.94,323.83,394.84,327.43Z" style="fill:#263238"></path><path d="M382.3,339.24s-1.79.76-2.67-.67L373,318.86s.9,1.24,2.34,0l.17-.15,6.78,20.51Z" style="fill:#263238"></path><path d="M382.3,339.24s-1.79.76-2.67-.67L373,318.86s.9,1.24,2.34,0l.17-.15,6.78,20.51Z" style="fill:#fff;opacity:0.1"></path><path d="M399.07,325.12l-8-4.82L389.76,332s7.71,2.59,9.53-1.33Z" style="fill:#b55b52"></path><polygon points="383.47 321.18 382.83 330.87 389.77 331.95 391.09 320.3 383.47 321.18" style="fill:#b55b52"></polygon><path d="M432.12,282.45c5.27,5.87,6,27.46,6,27.46l-21.57.21s-3.49-11.75-1.33-21.73C417.57,277.56,425.72,275.33,432.12,282.45Z" style="fill:#1E2749"></path><path d="M432.12,282.45c5.27,5.87,6,27.46,6,27.46l-21.57.21s-3.49-11.75-1.33-21.73C417.57,277.56,425.72,275.33,432.12,282.45Z" style="fill:#fff;opacity:0.5"></path></g><path d="M383.09,247.53a5.26,5.26,0,0,0,4.35,1.35,3.54,3.54,0,0,1-1.83-3.12c1.79,1.16,5.11,2.4,7.2,2-1.7-.35-2.4-1.35-2.5-3.09,5.33-1,8.42,0,7.77,4.26,6.62-4.23.65-8.79,11.64-10-4.37-3.76-7.06-7.62-15.48-6.16-5.68,1-12.62,6.16-12.76,10.33A5.77,5.77,0,0,0,383.09,247.53Z" style="fill:#263238"></path><polygon points="390.33 388.58 403.03 395.13 409.13 398.27 406.54 405.07 400.51 402.91 385.79 397.63 390.33 388.58" style="fill:#b55b52"></polygon><polygon points="390.33 388.58 403.03 395.13 400.51 402.91 385.79 397.63 390.33 388.58" style="opacity:0.2;isolation:isolate"></polygon><polygon points="367.58 395.89 361.66 408.9 358.82 415.15 351.91 412.9 353.77 406.77 358.31 391.81 367.58 395.89" style="fill:#b55b52"></polygon><polygon points="367.91 396.3 361.43 409.03 353.63 406.56 358.83 391.81 367.91 396.3" style="opacity:0.2;isolation:isolate"></polygon><path d="M401.4,370.89l-.55.38c-.6.4-1.15.78-1.63,1.09q-.32-.37-.66-.72a11.49,11.49,0,0,1,2.13-.63C400.92,371,401.16,370.92,401.4,370.89Z" style="fill:#1E2749"></path><path d="M434.54,350.05,392,358.15s-13.83,2.63-29.13,4.79l-1.35.19c-2.6.39-5.17.87-7.65,1.45l-.22,0a84.57,84.57,0,0,0-18,6.16,1.19,1.19,0,0,0-.25.13,18.45,18.45,0,0,0-5.52,3.94,10.57,10.57,0,0,0-.76.92c-2.56,2.91-5.24,7.71-3.16,13.87,0,0,2.46,6.64,23.22,8.54S396.21,402,396.21,402l1.73-8.59-1-.65a15.9,15.9,0,0,0,3.82-2.57c7.72.47,24,1,29.62-2.2,11.62-6.58-14.06-19.35-29-17.13,6.83-4.69,19.86-13.58,38.19-10.6.66.11.89,1,1.23,1.69A34.58,34.58,0,0,0,434.54,350.05Zm-33.69,21.22c-.6.4-1.15.78-1.63,1.09q-.32-.37-.66-.72a11.49,11.49,0,0,1,2.13-.63c.23,0,.47-.09.71-.12Z" style="fill:#1E2749"></path><path d="M434.54,350.05,392,358.15s-13.83,2.63-29.13,4.79l-1.35.19c-2.6.39-5.17.87-7.65,1.45l-.22,0a84.57,84.57,0,0,0-18,6.16,1.19,1.19,0,0,0-.25.13,18.45,18.45,0,0,0-5.52,3.94,10.57,10.57,0,0,0-.76.92c-2.56,2.91-5.24,7.71-3.16,13.87,0,0,2.46,6.64,23.22,8.54S396.21,402,396.21,402l1.73-8.59-1-.65a15.9,15.9,0,0,0,3.82-2.57c7.72.47,24,1,29.62-2.2,11.62-6.58-14.06-19.35-29-17.13,6.83-4.69,19.86-13.58,38.19-10.6.66.11.89,1,1.23,1.69A34.58,34.58,0,0,0,434.54,350.05Z" style="opacity:0.1"></path><path d="M346.55,379.71s11-1.14,18.89.38S397,392.79,397,392.79s-25.69-17.09-38.79-17.61S347,381.53,347,381.53" style="opacity:0.1"></path><polygon points="397.64 404.71 391.04 404.62 396.72 388.37 401.95 391.4 397.64 404.71" style="fill:#1E2749"></polygon><g style="opacity:0.6000000000000001;isolation:isolate"><polygon points="397.64 404.71 391.04 404.62 396.72 388.37 401.95 391.4 397.64 404.71" style="fill:#fff"></polygon></g><path d="M371.38,330.37c16.51-12.09,60.06,20.86,63.75,24.31a31,31,0,0,1,3.42,3.76l0,0,.52.7c.43.61.83,1.22,1.19,1.84a1.25,1.25,0,0,0,.08.12c.17.29.32.57.47.86,4.36,8.46.2,25-10.48,26.15-24.84,2.62-43.15-37.83-43.15-37.83Z" style="fill:#1E2749"></path><path d="M387.32,349.21s-.26,11.29-10.58,31.94c-3.19,6.38-13.14,25.6-13.14,25.6l-9.66-3.42s.09-.79.27-2.19c.37-3.08,1.15-9.11,2.34-16.47,1.9-11.77,4.84-27,8.76-38.93,2.21-6.76,3.25-14.75,7.59-16Z" style="fill:#1E2749"></path><polygon points="352.24 402.64 352.6 396.06 368.61 402.4 365.37 407.5 352.24 402.64" style="fill:#1E2749"></polygon><g style="opacity:0.6000000000000001;isolation:isolate"><polygon points="352.24 402.64 352.6 396.06 368.61 402.4 365.37 407.5 352.24 402.64" style="fill:#fff"></polygon></g><path d="M343.71,408.78a1.55,1.55,0,0,0,.19,1.25,4.32,4.32,0,0,0,.45.5,3.48,3.48,0,0,0,1.51.9l.5.16a14.17,14.17,0,0,0,2.26.52.17.17,0,0,0,.18-.14.26.26,0,0,0-.09-.26c-.07-.08-.24-.26-.49-.51l-.1-.12,0,0-.73-.71c-1.08-1-2.51-2.21-3.22-2.06A.65.65,0,0,0,343.71,408.78Zm.57,0a.63.63,0,0,1,.38.06,13,13,0,0,1,2.85,2.22,1.21,1.21,0,0,1,.19.2,3.83,3.83,0,0,1,.28.29c-.29-.05-.58-.12-.83-.18a8.69,8.69,0,0,1-1.69-.59,2.76,2.76,0,0,1-1.23-1,1,1,0,0,1-.13-.85A.22.22,0,0,1,344.28,408.78Z" style="fill:#1E2749"></path><path d="M346.75,405.91c-.5.67,0,3,.62,4.44a6.16,6.16,0,0,0,.34.72s0,0,0,0a.16.16,0,0,0,.07.07.25.25,0,0,0,.12,0,.17.17,0,0,0,.16-.11,0,0,0,0,0,0,0v0a7.09,7.09,0,0,0,.43-4,2.08,2.08,0,0,0-.83-1.13C347.17,405.55,346.9,405.71,346.75,405.91Zm.32.34s.13-.16.48.07l.11.08a1.53,1.53,0,0,1,.49.76,6.24,6.24,0,0,1-.3,3.31C347.23,409.12,346.71,406.75,347.07,406.25Z" style="fill:#1E2749"></path><path d="M352.07,411l6.95,3.13a1,1,0,0,1,.57.93l-2.23,8.46a1.2,1.2,0,0,1-1.5,1.22l-.15-.05c-14.25-3.85-19.22-6.83-20.77-7.55-4.44-2.07-3-5.71-1.44-5.49,6.92,1,11.6,1,14.23-.24C351.69,410.08,351.55,410.79,352.07,411Z" style="fill:#263238"></path><path d="M402.31,411.71a1.61,1.61,0,0,0,1.27-.08,5.39,5.39,0,0,0,.54-.4,3.63,3.63,0,0,0,1-1.43c.07-.16.14-.31.2-.48a12.85,12.85,0,0,0,.72-2.2.17.17,0,0,0-.12-.2.27.27,0,0,0-.27.07l-.55.44-.13.1h0c-.23.19-.5.41-.78.66-1.11,1-2.43,2.3-2.34,3A.66.66,0,0,0,402.31,411.71Zm.05-.57a.66.66,0,0,1,.1-.38,13,13,0,0,1,2.47-2.63l.21-.18.32-.24c-.08.28-.17.55-.26.81a8.85,8.85,0,0,1-.73,1.62,2.77,2.77,0,0,1-1.07,1.14,1,1,0,0,1-.86.05A.23.23,0,0,1,402.36,411.14Z" style="fill:#1E2749"></path><path d="M399.73,408.42c.62.56,3,.24,4.48-.22a5.78,5.78,0,0,0,.75-.27l0,0s.06,0,.07-.06a.17.17,0,0,0,.05-.12.17.17,0,0,0-.09-.17h0a7.1,7.1,0,0,0-4-.79,2.09,2.09,0,0,0-1.21.72C399.41,408,399.55,408.25,399.73,408.42Zm.37-.29s-.15-.14.11-.47l.09-.1a1.55,1.55,0,0,1,.8-.42,6.1,6.1,0,0,1,3.27.6C403,408.23,400.56,408.53,400.1,408.13Z" style="fill:#1E2749"></path><path d="M405,404.25l3.83-7a1,1,0,0,1,1-.49l8.91,1.21a1.21,1.21,0,0,1,1.08,1.6l-.06.15c-5.13,13.84-8.36,17.07-9.22,18.56-2.46,4.23-6,2.44-5.59.93,1.65-6.8,1.06-8.94.05-11.68A5.79,5.79,0,0,1,405,404.25Z" style="fill:#263238"></path><path d="M389.15,255.54l-.91-.08c0-.15.16-1.52,1.1-1.91a2,2,0,0,1,2.06.6l-.58.7c-.49-.4-.88-.56-1.12-.46S389.18,255.24,389.15,255.54Z" style="fill:#263238"></path><polygon points="397.26 251.67 396.96 250.81 406.54 247.79 408.35 248 408.25 248.9 406.64 248.72 397.26 251.67" style="fill:#263238"></polygon><path d="M385,260.9a1.85,1.85,0,0,1-1.67-1.06l-1.83-3.92a1.44,1.44,0,0,1,0-1.17,1.41,1.41,0,0,1,.86-.78l4.33-1.42a1.45,1.45,0,0,1,1.08.08,1.37,1.37,0,0,1,.7.83l1.33,4a1.87,1.87,0,0,1-.11,1.41,1.84,1.84,0,0,1-1.07.92l-3,1A1.88,1.88,0,0,1,385,260.9Zm2.11-7.42-.13,0-4.33,1.42a.43.43,0,0,0-.25.23.4.4,0,0,0,0,.34l1.84,3.93a.84.84,0,0,0,1,.44l3-1a.85.85,0,0,0,.49-.42.86.86,0,0,0,0-.65l-1.33-4a.37.37,0,0,0-.2-.24A.45.45,0,0,0,387.06,253.48Z" style="fill:#263238"></path><path d="M393.42,258.31a1.85,1.85,0,0,1-1.75-1.24l-1.38-4a1.43,1.43,0,0,1,.88-1.8l4.31-1.48a1.43,1.43,0,0,1,1.16.11,1.45,1.45,0,0,1,.69.93l.9,4.24a1.84,1.84,0,0,1-1.2,2.12l-3,1A1.78,1.78,0,0,1,393.42,258.31Zm2.52-7.62-.14,0-4.3,1.48a.39.39,0,0,0-.24.21.4.4,0,0,0,0,.32l1.38,4a.84.84,0,0,0,1.07.52l3-1a.85.85,0,0,0,.55-1l-.9-4.24a.45.45,0,0,0-.2-.27A.42.42,0,0,0,395.94,250.69Z" style="fill:#263238"></path><path d="M390,254.85a23.7,23.7,0,0,1-1.28,6.4,3.85,3.85,0,0,0,3.22-.42Z" style="fill:#a02724"></path></g></svg>