<svg xmlns="http://www.w3.org/2000/svg" id="freepik_stories-transfer-files" viewBox="0 0 700 500" version="1.1"><g id="freepik--Floor--inject-12" class="animable animator-hidden" style="transform-origin: 375px 382.18px;"><polygon points="45.65 382.18 127.98 381.94 210.32 381.85 375 381.68 539.68 381.85 622.01 381.94 704.35 382.18 622.01 382.43 539.68 382.51 375 382.68 210.32 382.51 127.98 382.42 45.65 382.18" style="fill: rgb(38, 50, 56); transform-origin: 375px 382.18px;" id="elonxak6svqos" class="animable"/></g><g id="freepik--Shadow--inject-12" class="animable animator-hidden" style="transform-origin: 375px 431.2px;"><ellipse cx="375" cy="431.2" rx="309.07" ry="22.27" style="fill: rgb(235, 235, 235); transform-origin: 375px 431.2px;" id="elvlufzxjmvjl" class="animable"/></g><g id="freepik--Device--inject-12" class="animable" style="transform-origin: 506.37px 318.335px;"><rect x="372.78" y="216.14" width="267.18" height="178.72" style="fill: rgb(219, 219, 219); transform-origin: 506.37px 305.5px;" id="elptw90ome8r" class="animable"/><rect x="374.72" y="218.32" width="263.3" height="174.36" style="fill: rgb(38, 50, 56); transform-origin: 506.37px 305.5px;" id="elucby9yp010m" class="animable"/><rect x="337.98" y="408.26" width="336.78" height="12.27" style="fill: rgb(199, 199, 199); transform-origin: 506.37px 414.395px;" id="eliss4ulydnk" class="animable"/><polygon points="337.98 408.26 372.78 394.86 639.96 394.86 674.76 408.26 337.98 408.26" style="fill: rgb(219, 219, 219); transform-origin: 506.37px 401.56px;" id="el6is8vz7is1" class="animable"/><polygon points="375.89 403.51 398.35 394.86 614.4 394.86 636.86 403.51 375.89 403.51" style="fill: rgb(38, 50, 56); transform-origin: 506.375px 399.185px;" id="el34ol25n0ux" class="animable"/><rect x="389.6" y="231.57" width="233.54" height="147.87" style="fill: rgb(255, 255, 255); transform-origin: 506.37px 305.505px;" id="el3a9ybpglqx3" class="animable"/><rect x="389.6" y="231.57" width="233.54" height="5.69" style="fill: rgb(69, 90, 100); transform-origin: 506.37px 234.415px;" id="elxiztop836bg" class="animable"/><path d="M395,234.41a1.08,1.08,0,1,1-1.08-1.08A1.08,1.08,0,0,1,395,234.41Z" style="fill: rgb(199, 199, 199); transform-origin: 393.92px 234.41px;" id="elvugrucnhn59" class="animable"/><path d="M399.36,234.41a1.08,1.08,0,1,1-1.08-1.08A1.09,1.09,0,0,1,399.36,234.41Z" style="fill: rgb(255, 255, 255); transform-origin: 398.28px 234.41px;" id="ellflpe1ath9" class="animable"/><path d="M403.75,234.41a1.08,1.08,0,1,1-1.07-1.08A1.08,1.08,0,0,1,403.75,234.41Z" style="fill: #183059; transform-origin: 402.67px 234.41px;" id="el6g6o265jq7r" class="animable"/><rect x="619" y="237.26" width="4.15" height="142.18" style="fill: rgb(219, 219, 219); transform-origin: 621.075px 308.35px;" id="el6ykmrukxzvb" class="animable"/><path d="M621.07,286.55h0a1.06,1.06,0,0,1-1.07-1.07V239.16a1.06,1.06,0,0,1,1.07-1.07h0a1.07,1.07,0,0,1,1.07,1.07v46.32A1.07,1.07,0,0,1,621.07,286.55Z" style="fill: rgb(166, 166, 166); transform-origin: 621.07px 262.32px;" id="elna0kwa11mr" class="animable"/><path d="M572.49,368.71H440.26v-8.55H572.49Zm-131.73-.5H572v-7.55H440.76Z" style="fill: #183059; transform-origin: 506.375px 364.435px;" id="elnpm1e9pdfze" class="animable"/><rect x="442.03" y="361.94" width="2.99" height="4.99" style="fill: #183059; transform-origin: 443.525px 364.435px;" id="elz5xnugs5yf" class="animable"/><rect x="446.16" y="361.94" width="2.99" height="4.99" style="fill: #183059; transform-origin: 447.655px 364.435px;" id="elttfr6gjwb19" class="animable"/><rect x="450.28" y="361.94" width="2.99" height="4.99" style="fill: #183059; transform-origin: 451.775px 364.435px;" id="elf6uczkhiivc" class="animable"/><rect x="454.4" y="361.94" width="2.99" height="4.99" style="fill: #183059; transform-origin: 455.895px 364.435px;" id="el8cejm0ryrhp" class="animable"/><rect x="458.52" y="361.94" width="2.99" height="4.99" style="fill: #183059; transform-origin: 460.015px 364.435px;" id="elv37y3rt9yfe" class="animable"/><rect x="462.64" y="361.94" width="2.99" height="4.99" style="fill: #183059; transform-origin: 464.135px 364.435px;" id="elezdq501kp9j" class="animable"/><rect x="466.76" y="361.94" width="2.99" height="4.99" style="fill: #183059; transform-origin: 468.255px 364.435px;" id="eltl8v6hsalwb" class="animable"/><rect x="470.89" y="361.94" width="2.99" height="4.99" style="fill: #183059; transform-origin: 472.385px 364.435px;" id="ele0gzklkgqor" class="animable"/><rect x="475.01" y="361.94" width="2.99" height="4.99" style="fill: #183059; transform-origin: 476.505px 364.435px;" id="elts0l2mvlzf" class="animable"/><rect x="479.13" y="361.94" width="2.99" height="4.99" style="fill: #183059; transform-origin: 480.625px 364.435px;" id="elros849nlzn" class="animable"/><rect x="483.25" y="361.94" width="2.99" height="4.99" style="fill: #183059; transform-origin: 484.745px 364.435px;" id="el3saxne5w8s1" class="animable"/><rect x="487.37" y="361.94" width="2.99" height="4.99" style="fill: #183059; transform-origin: 488.865px 364.435px;" id="elqo8laaky5b8" class="animable"/></g><g id="freepik--Folder--inject-12" class="animable" style="transform-origin: 506.265px 297.91px;"><rect x="468.57" y="294.38" width="81.79" height="52.88" style="fill: #183059; transform-origin: 509.465px 320.82px;" id="el8md6e30k3cw" class="animable"/><polygon points="494.35 288.9 468.57 288.9 468.57 294.38 495.83 294.38 494.35 288.9" style="fill: #183059; transform-origin: 482.2px 291.64px;" id="eln92t7kjjz8q" class="animable"/><g id="elv6jf3ofukyg" class=""><g style="opacity: 0.1; transform-origin: 509.465px 318.08px;" class="animable" id="elzsmuyarc8xc"><rect x="468.57" y="294.38" width="81.79" height="52.88" id="elvyg760muyl" class="animable" style="transform-origin: 509.465px 320.82px;"/><polygon points="494.35 288.9 468.57 288.9 468.57 294.38 495.83 294.38 494.35 288.9" id="elmy6ls1mu8m" class="animable" style="transform-origin: 482.2px 291.64px;"/></g></g><polygon points="468.85 309.6 519.6 325.55 540.08 260.41 502.4 248.56 485.43 256.87 468.85 309.6" style="fill: rgb(235, 235, 235); transform-origin: 504.465px 287.055px;" id="elzmi10ked75q" class="animable"/><polygon points="502.4 248.56 485.43 256.87 498.5 260.98 502.4 248.56" style="fill: rgb(219, 219, 219); transform-origin: 493.915px 254.77px;" id="elzq1qktwyp8" class="animable"/><g id="el6830sbiy4m" class=""><rect x="502.53" y="265.31" width="29.58" height="1.75" style="fill: rgb(219, 219, 219); transform-origin: 517.32px 266.185px; transform: rotate(17.45deg);" class="animable" id="el8uq7919d9j8"/></g><g id="elftcvru6cnf4" class=""><rect x="501.21" y="269.53" width="29.58" height="1.75" style="fill: rgb(219, 219, 219); transform-origin: 516px 270.405px; transform: rotate(17.45deg);" class="animable" id="elih0dim4sjy"/></g><g id="elo5u423lerkb" class=""><rect x="499.88" y="273.75" width="29.58" height="1.75" style="fill: rgb(219, 219, 219); transform-origin: 514.67px 274.625px; transform: rotate(17.45deg);" class="animable" id="el76r956nrr9j"/></g><g id="el6l3o64wy49" class=""><rect x="485.11" y="275.91" width="43.34" height="1.75" style="fill: rgb(219, 219, 219); transform-origin: 506.78px 276.785px; transform: rotate(17.45deg);" class="animable" id="el7tmhrjmwtkx"/></g><g id="elj5zc6c90gtb" class=""><rect x="483.78" y="280.13" width="43.34" height="1.75" style="fill: rgb(219, 219, 219); transform-origin: 505.45px 281.005px; transform: rotate(17.45deg);" class="animable" id="elvlla86wejkc"/></g><g id="elii8qw86bicc" class=""><rect x="482.45" y="284.35" width="43.34" height="1.75" style="fill: rgb(219, 219, 219); transform-origin: 504.12px 285.225px; transform: rotate(17.45deg);" class="animable" id="eluvnyyohe8t"/></g><g id="elsk5o1cmxov" class=""><rect x="481.13" y="288.58" width="43.34" height="1.75" style="fill: rgb(219, 219, 219); transform-origin: 502.8px 289.455px; transform: rotate(17.45deg);" class="animable" id="elhj4bzd8gqkm"/></g><g id="el7ltxysohr8k" class=""><rect x="479.8" y="292.8" width="43.34" height="1.75" style="fill: rgb(219, 219, 219); transform-origin: 501.47px 293.675px; transform: rotate(17.45deg);" class="animable" id="else36hauq8hp"/></g><g id="el1gvfogqqme8" class=""><rect x="478.47" y="297.02" width="43.34" height="1.75" style="fill: rgb(219, 219, 219); transform-origin: 500.14px 297.895px; transform: rotate(17.5256deg);" class="animable" id="els3tcxbhux6"/></g><g id="elquc4to9zpqf" class=""><rect x="477.15" y="301.24" width="43.34" height="1.75" style="fill: rgb(219, 219, 219); transform-origin: 498.82px 302.115px; transform: rotate(17.45deg);" class="animable" id="el8xj2mm0iyl"/></g><g id="elbfr4g8r1u45" class=""><rect x="475.82" y="305.47" width="43.34" height="1.75" style="fill: rgb(219, 219, 219); transform-origin: 497.49px 306.345px; transform: rotate(17.45deg);" class="animable" id="elkzvxl4eyp7"/></g><g id="eluz6y5eadd4o" class=""><rect x="474.49" y="309.69" width="43.34" height="1.75" style="fill: rgb(219, 219, 219); transform-origin: 496.16px 310.565px; transform: rotate(17.45deg);" class="animable" id="elb6kwn541oxg"/></g><polygon points="550.17 347.26 468.38 347.26 462.75 298.76 544.55 298.76 550.17 347.26" style="fill: #183059; transform-origin: 506.46px 323.01px;" id="el6h635nv4h4m" class="animable"/><polygon points="487.95 293.74 462.17 293.74 462.75 298.76 490.01 298.76 487.95 293.74" style="fill: #183059; transform-origin: 476.09px 296.25px;" id="elpoyx3wyql9j" class="animable"/></g><g id="freepik--Documents--inject-12" class="animable" style="transform-origin: 379.01px 186.581px;"><path d="M355.29,164.7q-5.54-29.65-11.05-58.65c-24.54,2.91-48.93,15.75-73.52,15.51q5.52,29.67,11,58.65C306.31,177.3,330.69,164.47,355.29,164.7Z" style="fill: rgb(219, 219, 219); transform-origin: 313.005px 143.13px;" id="elhrdldkd23dh" class="animable"/><path d="M282.65,126.25q3.08,16.08,6.13,32l1.89-.38Q287.61,142,284.54,126Z" style="fill: rgb(199, 199, 199); transform-origin: 286.66px 142.125px;" id="el191me69iu87" class="animable"/><path d="M287.42,125.48q3.06,16,6.13,31.78l1.89-.44q-3.07-15.8-6.13-31.7C288.68,125.24,288.05,125.37,287.42,125.48Z" style="fill: rgb(199, 199, 199); transform-origin: 291.43px 141.19px;" id="eltzicoejrj9" class="animable"/><path d="M292.19,124.51q3.06,15.86,6.12,31.6l1.89-.49-6.13-31.54C293.44,124.23,292.82,124.38,292.19,124.51Z" style="fill: rgb(199, 199, 199); transform-origin: 296.195px 140.095px;" id="elrja9ta88q59" class="animable"/><path d="M297,123.39q4.49,23.08,9,46l1.89-.54q-4.49-22.95-9-46Z" style="fill: rgb(199, 199, 199); transform-origin: 302.445px 146.12px;" id="elyngmfbqupof" class="animable"/><path d="M301.71,122.14q4.49,23,9,45.91l1.88-.55q-4.47-22.92-9-45.89Z" style="fill: rgb(199, 199, 199); transform-origin: 307.15px 144.83px;" id="elg3zh8j2oom9" class="animable"/><path d="M306.47,120.8q4.48,23,9,45.86l1.88-.55q-4.49-22.94-9-45.86Z" style="fill: rgb(199, 199, 199); transform-origin: 311.91px 143.455px;" id="eln9nm92f2vj" class="animable"/><path d="M311.23,119.41q4.49,22.93,9,45.87l1.88-.54q-4.49-23-9-45.88Z" style="fill: rgb(199, 199, 199); transform-origin: 316.67px 142.07px;" id="elvq3v3cwa5z" class="animable"/><path d="M316,118q4.49,22.92,9,45.93l1.88-.5q-4.48-23.05-9-46Z" style="fill: rgb(199, 199, 199); transform-origin: 321.44px 140.68px;" id="elzjgs6c6chde" class="animable"/><path d="M320.75,116.65q4.49,23,9,46.06l1.89-.45q-4.5-23.16-9-46.14Z" style="fill: rgb(199, 199, 199); transform-origin: 326.195px 139.415px;" id="el16n35a2zkoij" class="animable"/><path d="M325.51,115.34q4.49,23,9,46.26l1.89-.39q-4.49-23.29-9-46.36Z" style="fill: rgb(199, 199, 199); transform-origin: 330.955px 138.225px;" id="eltsop07zbohh" class="animable"/><path d="M330.27,114.14q4.49,23.14,9,46.52l1.89-.31q-4.5-23.47-9-46.65Z" style="fill: rgb(199, 199, 199); transform-origin: 335.715px 137.18px;" id="el72jbn9jt8ew" class="animable"/><path d="M335,113.07q4.48,23.28,9,46.86l1.89-.23q-4.5-23.67-9-47Z" style="fill: rgb(199, 199, 199); transform-origin: 340.445px 136.315px;" id="eljgzfbyyn79d" class="animable"/><path d="M346.06,142.14q-.35,25.92-.69,51.84c27.65,26.91,55.3-18.17,83,7.85l.51-38.49a101,101,0,0,0-15.63-22C390.83,137.39,368.44,163,346.06,142.14Z" style="fill: rgb(235, 235, 235); transform-origin: 387.125px 171.909px;" id="elosfnaxkps6k" class="animable"/><path d="M428.84,163.34a101,101,0,0,0-15.63-22L413,154.81C418.3,155.7,423.57,158.22,428.84,163.34Z" style="fill: rgb(219, 219, 219); transform-origin: 420.92px 152.34px;" id="elsaa08hijaw" class="animable"/><path d="M414.47,189l.39-29.1c-.71-.17-1.42-.31-2.13-.43l-.39,29.14Q413.41,188.72,414.47,189Z" style="fill: rgb(219, 219, 219); transform-origin: 413.6px 174.235px;" id="elue8dea9hwiq" class="animable"/><path d="M409.1,188.3q.18-14.6.38-29.18c-.71,0-1.42,0-2.13,0q-.19,14.59-.38,29.2C407.68,188.28,408.39,188.28,409.1,188.3Z" style="fill: rgb(219, 219, 219); transform-origin: 408.225px 173.72px;" id="elz5oegl80fkk" class="animable"/><path d="M403.72,188.59q.19-14.62.38-29.24c-.71.09-1.42.19-2.13.31q-.18,14.63-.38,29.26Q402.66,188.73,403.72,188.59Z" style="fill: rgb(219, 219, 219); transform-origin: 402.845px 174.135px;" id="elvxdlbx4o65h" class="animable"/><path d="M398.34,189.6l.57-42.9-2.13.53-.57,42.93C396.92,190,397.63,189.78,398.34,189.6Z" style="fill: rgb(219, 219, 219); transform-origin: 397.56px 168.43px;" id="elvg656c3ojap" class="animable"/><path d="M393,191.11q.27-21.48.56-42.94c-.71.21-1.42.44-2.13.67q-.28,21.47-.56,42.95Z" style="fill: rgb(219, 219, 219); transform-origin: 392.215px 169.98px;" id="elrybi5tclinc" class="animable"/><path d="M387.59,192.87q.29-21.48.56-43l-2.13.72q-.28,21.48-.56,43Z" style="fill: rgb(219, 219, 219); transform-origin: 386.805px 171.73px;" id="el178i7oyflxt" class="animable"/><path d="M382.21,194.65l.57-43-2.14.67q-.27,21.47-.56,42.94Z" style="fill: rgb(219, 219, 219); transform-origin: 381.43px 173.455px;" id="el03inpd0uuap9" class="animable"/><path d="M376.84,196.22q.27-21.47.56-42.92c-.71.19-1.42.37-2.13.53q-.28,21.45-.56,42.9Q375.78,196.49,376.84,196.22Z" style="fill: rgb(219, 219, 219); transform-origin: 376.055px 175.015px;" id="elejd23n3v1dl" class="animable"/><path d="M371.46,197.34q.29-21.43.56-42.86-1.06.18-2.13.3-.28,21.42-.56,42.83Q370.4,197.51,371.46,197.34Z" style="fill: rgb(219, 219, 219); transform-origin: 370.675px 176.045px;" id="elr1ihjk5c3f" class="animable"/><path d="M366.08,197.78q.29-21.39.56-42.78c-.71,0-1.42,0-2.13,0q-.27,21.36-.56,42.73C364.66,197.76,365.37,197.78,366.08,197.78Z" style="fill: rgb(219, 219, 219); transform-origin: 365.295px 176.39px;" id="eliju1f5ze79l" class="animable"/><path d="M360.71,197.31q.27-21.33.56-42.67-1.06-.18-2.13-.45-.28,21.32-.56,42.63C359.29,197,360,197.17,360.71,197.31Z" style="fill: rgb(219, 219, 219); transform-origin: 359.925px 175.75px;" id="elkd8cy96vtqs" class="animable"/><path d="M355.33,195.69q.29-21.27.56-42.54c-.71-.28-1.42-.6-2.13-1q-.28,21.24-.56,42.48C353.91,195.05,354.62,195.39,355.33,195.69Z" style="fill: rgb(219, 219, 219); transform-origin: 354.545px 173.92px;" id="el6yegg1vd057" class="animable"/><path d="M435.27,182Q419.82,206.59,404,231.84c32.44-13,26.81,41.7,55.92,34.64l20-31.25q3.69-5.47,7.38-11C455.92,235.13,463.18,177.3,435.27,182Z" style="fill: rgb(219, 219, 219); transform-origin: 445.65px 224.42px;" id="elvepshzdlern" class="animable"/><path d="M450.38,261.42l21.45-33.33a11.78,11.78,0,0,1-1.5-.77q-10.69,16.59-21.41,33.26A16.23,16.23,0,0,0,450.38,261.42Z" style="fill: rgb(199, 199, 199); transform-origin: 460.375px 244.37px;" id="elokv4vs4wbt" class="animable"/><path d="M446.85,259l21.37-33.18c-.44-.37-.87-.76-1.28-1.17q-10.65,16.53-21.36,33.17C446,258.24,446.42,258.64,446.85,259Z" style="fill: rgb(199, 199, 199); transform-origin: 456.9px 241.825px;" id="elji44p3mcpcl" class="animable"/><path d="M443.77,255.8q10.71-16.65,21.36-33.17c-.38-.48-.75-1-1.11-1.48l-21.37,33.19C443,254.84,443.39,255.33,443.77,255.8Z" style="fill: rgb(199, 199, 199); transform-origin: 453.89px 238.475px;" id="elwsa8tdftq6" class="animable"/><path d="M441,252l21.45-33.33c-.33-.55-.66-1.12-1-1.7q-10.69,16.61-21.49,33.4Z" style="fill: rgb(199, 199, 199); transform-origin: 451.205px 234.485px;" id="elrge4oq86gjl" class="animable"/><path d="M438.51,247.77l21.57-33.54-.9-1.85L437.55,246Z" style="fill: rgb(199, 199, 199); transform-origin: 448.815px 230.075px;" id="elumz28lh5iud" class="animable"/><path d="M436.09,243.39q10.94-17.05,21.76-33.88l-.87-1.9q-10.86,16.9-21.85,34Z" style="fill: rgb(199, 199, 199); transform-origin: 446.49px 225.5px;" id="elkbte0waxfjd" class="animable"/><path d="M433.65,239q11.07-17.29,22-34.33c-.29-.63-.58-1.26-.88-1.88q-11,17.13-22.13,34.54C433,237.92,433.32,238.47,433.65,239Z" style="fill: rgb(199, 199, 199); transform-origin: 444.145px 220.895px;" id="el9wq18sji4wh" class="animable"/><path d="M431.07,234.93q11.25-17.6,22.33-34.89c-.31-.6-.62-1.19-.94-1.77Q441.3,215.7,430,233.42C430.35,233.91,430.71,234.42,431.07,234.93Z" style="fill: rgb(199, 199, 199); transform-origin: 441.7px 216.6px;" id="eln4js913lcp" class="animable"/><path d="M428.23,231.28,451,195.7c-.34-.54-.69-1.06-1.05-1.57Q438.54,211.9,427,230C427.43,230.42,427.84,230.84,428.23,231.28Z" style="fill: rgb(199, 199, 199); transform-origin: 439px 212.705px;" id="elkyyvga5psn" class="animable"/><path d="M425,228.31q11.69-18.37,23.17-36.39c-.39-.45-.79-.89-1.21-1.3q-11.58,18.19-23.36,36.74A16.4,16.4,0,0,1,425,228.31Z" style="fill: rgb(199, 199, 199); transform-origin: 435.885px 209.465px;" id="elua2xze7vjl" class="animable"/><path d="M421.31,226.21q12-18.86,23.69-37.31a16.45,16.45,0,0,0-1.41-.94q-11.85,18.66-23.91,37.71A14.15,14.15,0,0,1,421.31,226.21Z" style="fill: rgb(199, 199, 199); transform-origin: 432.34px 207.085px;" id="elvtib5bbd7ao" class="animable"/><path d="M417,225.2q12.25-19.38,24.27-38.34a14.53,14.53,0,0,0-1.66-.5l-24.52,38.79A17.08,17.08,0,0,1,417,225.2Z" style="fill: rgb(199, 199, 199); transform-origin: 428.18px 205.78px;" id="elqw0q396uwt9" class="animable"/></g><g id="freepik--Character--inject-12" class="animable animator-active" style="transform-origin: 170.458px 270.397px;"><path d="M159.54,98.56c-7.16,4.7-10.85,14.09-10.85,14.09s-7.71,8.64-7.2,14.28a9.89,9.89,0,0,0,4.84,7.82l0-3.06s1.14,4.18,7.22,7,14.92,2.58,19.77,1.26a17.23,17.23,0,0,0,7.61-4.37l-2.52,3.95a13,13,0,0,0,11.27-4.8c5-5.84-3.61-17.48-4.09-19.7s1.41-17.33-14.76-18C170.86,97.08,164.46,95.32,159.54,98.56Z" style="fill: rgb(199, 199, 199); transform-origin: 166.351px 118.747px;" id="elnawemzlba7m" class="animable"/><path d="M144.14,133.91a10.2,10.2,0,0,1-3.25-5.18,9.32,9.32,0,0,1,.21-6.06,20.71,20.71,0,0,1,4.29-6c1.71-1.88,3.57-3.64,5.24-5.55.09-.1-.07-.24-.17-.16a56.14,56.14,0,0,0-4.93,4.33,26.79,26.79,0,0,0-4.14,4.63,10,10,0,0,0-1.84,5.33,9.7,9.7,0,0,0,1.11,4.51A21.07,21.07,0,0,0,144,134C144.11,134.11,144.23,134,144.14,133.91Z" style="fill: rgb(199, 199, 199); transform-origin: 145.103px 122.491px;" id="elrxbpa88rxg" class="animable"/><path d="M192.42,128.23c-.76-5.86-5-10.34-7-15.73-1.09-2.92-1.77-6-3.42-8.71,0-.07-.17,0-.13.08,1.32,2.37,1.83,5,2.61,7.58a40.33,40.33,0,0,0,3.34,7.4c2.34,4.36,5.16,9.51,3.38,14.57-.82,2.34-2.78,4.71-5.39,5a.08.08,0,1,0,0,.15A7.84,7.84,0,0,0,191,135.1,10.09,10.09,0,0,0,192.42,128.23Z" style="fill: rgb(199, 199, 199); transform-origin: 187.2px 121.168px;" id="els4p60w2f7od" class="animable"/><path d="M192.34,129.75a10.32,10.32,0,0,0-.15-6.22,14.67,14.67,0,0,0-3.63-5.09c-1.69-1.7-3.5-3.36-4.32-5.67,0-.1-.18,0-.15.06,1.28,3.81,4.71,6.16,6.66,9.54,2.23,3.87,1.26,8.64-1.5,12a17,17,0,0,1-6.39,4.62s0,.08,0,.06C187.09,137.35,191.11,134.29,192.34,129.75Z" style="fill: rgb(199, 199, 199); transform-origin: 187.804px 125.89px;" id="elx2zlojtcihe" class="animable"/><path d="M230.84,440.58c-2.22.72-65.59-.1-68-1.67-.91-.58-1.33-9.82-1.52-21v-.35c0-2.3-.07-4.67-.08-7.08,0-.33,0-.66,0-1-.09-16.13.17-32.87.17-32.87l42.39.42-1.28,32.57-.05,1.29-.25,6.74,0,.69s24.12,11.16,26.57,13.16S233.07,439.87,230.84,440.58Z" style="fill: rgb(211, 118, 106); transform-origin: 196.534px 408.727px;" id="elgn85z1gkmv4" class="animable"/><path d="M211.8,422.66c-.16,0-.25-.09-.26-.14Z" style="fill: #183059; transform-origin: 211.67px 422.59px;" id="elkvkseqp96tk" class="animable"/><path d="M230.84,440.58c-2.22.72-65.58-.1-68-1.67-.81-.51-1.24-7.87-1.45-17.35C173,424,218,433.08,219.25,429.24c.48-1.52-3.37-4.13-5.8-5.61,6.65,3.17,14,6.8,15.32,7.86C231.19,433.48,233.07,439.87,230.84,440.58Z" style="fill: rgb(38, 50, 56); transform-origin: 196.613px 431.202px;" id="el3mxml4nnzdj" class="animable"/><path d="M148.41,194.08s9.52,107.08,11.07,115.25c.36,1.86.58,12,.72,25,.33,28.38.14,79.58.14,79.58H205s-1.32-88.7-3.3-105-14.62-114.79-14.62-114.79Z" style="fill: rgb(38, 50, 56); transform-origin: 176.705px 303.995px;" id="elr1omit7z6a" class="animable"/><path d="M203,406.11c-7-.14-5-.2-11.94-.27-3.41,0-25.83-.22-29,.3a.08.08,0,0,0,0,.15c3.19.52,25.61.33,29,.3,7-.07,5-.13,11.94-.27A.11.11,0,0,0,203,406.11Z" style="fill: rgb(55, 71, 79); transform-origin: 182.543px 406.221px;" id="elfxz3bs2986" class="animable"/><path d="M168.82,355.41q-.07-9.72-.14-19.44c-.05-6.27,0-12.55-.34-18.82-.6-12.7-3.18-25.18-5-37.73s-3.36-25.15-4.74-37.77c-1.55-14.15-2.92-28.32-4.38-42.48,0-.1-.16-.1-.15,0,2.1,25.29,4.45,50.57,7.95,75.7q1.31,9.38,2.86,18.72c1,6.3,2.08,12.61,2.57,19s.57,12.5.63,18.75q.1,9.72.2,19.43c.14,14.38.28,36.51.41,50.9a.22.22,0,0,0,.44,0C169,388.82,168.92,368.24,168.82,355.41Z" style="fill: rgb(55, 71, 79); transform-origin: 161.6px 300.492px;" id="el0csk1gnuf0j4" class="animable"/><path d="M139,194.08s18.94,107.08,20.49,115.25c.36,1.86.58,12,.72,25v0L181.5,194.08Z" style="fill: rgb(55, 71, 79); transform-origin: 160.25px 264.205px;" id="elkmw7aaq4kp" class="animable"/><path d="M125.21,444.18c-2.31-.36-58.47-29.71-59.9-32.19-.55-.93,3.25-9.36,8.13-19.42l.16-.32c1-2.07,21.05-35.89,21.05-35.89l34.55,20.28L110,410.79l-.33.6s16.47,20.86,17.75,23.74S127.52,444.56,125.21,444.18Z" style="fill: rgb(211, 118, 106); transform-origin: 97.2285px 400.278px;" id="elpw0edmg8yhp" class="animable"/><path d="M125.21,444.18c-2.31-.36-58.47-29.71-59.9-32.19-.47-.79,2.23-7.07,6.07-15.14,8.05,6.09,46.92,35.28,49.76,32.25.59-.65.15-2.16-.64-3.78,3.4,4.5,6.44,8.63,7,9.81C128.73,438,127.51,444.55,125.21,444.18Z" style="fill: rgb(38, 50, 56); transform-origin: 96.6222px 420.523px;" id="elc7j162qt9jo" class="animable"/><path d="M115,409.54,74.08,384.25s47.35-67.76,47.57-73.78c.34-9,4.63-45.88,8.23-75.78,0,0-6.83-16.19,6-40.64h51.28s-3.43,23.27-9.32,38a68.28,68.28,0,0,0-11.4,5.21s-5.11,66.67-5.3,75C160.73,328.7,115,409.54,115,409.54Z" style="fill: rgb(38, 50, 56); transform-origin: 130.62px 301.795px;" id="elula2m572pdk" class="animable"/><path d="M117.51,400.09c-5.9-3.7-4.15-2.72-10.1-6.36-2.91-1.78-22-13.46-25-14.64a.08.08,0,0,0-.08.12c2.47,2.09,21.8,13.43,24.75,15.15,6,3.53,4.32,2.45,10.38,5.9A.1.1,0,1,0,117.51,400.09Z" style="fill: rgb(55, 71, 79); transform-origin: 99.9742px 389.689px;" id="elx97w34gbhds" class="animable"/><path d="M179.75,231.06a84.33,84.33,0,0,0-13.35,6.22.15.15,0,0,0,.12.27c4.5-1.93,9.09-3.78,13.47-6A.3.3,0,0,0,179.75,231.06Z" style="fill: rgb(55, 71, 79); transform-origin: 173.196px 234.307px;" id="eltr1ir3pmuj" class="animable"/><path d="M173.46,223.63c.45-2.68.81-5.36,1-8.07a73,73,0,0,0-.17-15.14.13.13,0,0,0-.26,0,137.86,137.86,0,0,1-1.22,20.91c-.5,3.32-2.18,8.34,1.3,8.85s5.84-7.87,6.28-10.17a76.87,76.87,0,0,0,.75-19.81c0-.16-.29-.19-.29,0a149,149,0,0,1-.75,15c-.21,2.31-2.07,15.12-6.09,14.18-.67-.15-1-.82-1.12-1.83a16.09,16.09,0,0,1,.53-3.93" style="fill: rgb(55, 71, 79); transform-origin: 176.713px 215.135px;" id="elu1y0hqd07x" class="animable"/><path d="M174.16,229.74a20.71,20.71,0,0,0-.91,2.65,6.06,6.06,0,0,0-.37,2.18c0,.14.2.16.28.06a7.6,7.6,0,0,0,.93-2.12c.31-.82.63-1.64.91-2.47A.45.45,0,0,0,174.16,229.74Z" style="fill: rgb(55, 71, 79); transform-origin: 173.945px 232.095px;" id="elru131rb9vw" class="animable"/><path d="M141.86,197.28a47.55,47.55,0,0,0-3.84,8.44,51.73,51.73,0,0,0-2.28,9c-.3,1.52-.4,3.06-.56,4.59s-.19,3.09-.1,4.63a48.74,48.74,0,0,0,1.07,9.17v.1q-1.78,19.4-3.69,38.78t-3.82,38.78l-.12,1.21-.06.61a2,2,0,0,1-.13.65,19.6,19.6,0,0,1-1.18,2.25c-.81,1.41-1.66,2.8-2.51,4.18-1.7,2.77-3.44,5.52-5.17,8.26-3.48,5.48-7,10.92-10.57,16.36-7.07,10.89-14.27,21.7-21.48,32.5l20.92-32.86,10.4-16.46q2.59-4.12,5.14-8.26c.84-1.39,1.68-2.78,2.48-4.18a21.92,21.92,0,0,0,1.09-2,1.47,1.47,0,0,0,.1-.53l.06-.61.11-1.21q1.85-19.38,3.83-38.75t4-38.73v.09a48.44,48.44,0,0,1-1-9.29,45.45,45.45,0,0,1,.16-4.67c.2-1.55.33-3.1.66-4.63a52.6,52.6,0,0,1,2.47-9A47.81,47.81,0,0,1,141.86,197.28Z" style="fill: rgb(55, 71, 79); transform-origin: 114.64px 287.035px;" id="elrp54pu59v7b" class="animable"/><path d="M186.16,184.68l1.55,12.09-52.41-1.65s2.64-38.63,17.75-53.2c7.55-7.28,15.85-6.21,20.84-.51,1.27,1.45,16.12,20.86,17.33,29.06C192.27,177.7,186.16,184.68,186.16,184.68Z" style="fill: rgb(69, 90, 100); transform-origin: 163.321px 166.783px;" id="elznhlpjot8pl" class="animable"/><path d="M178.17,180.6a46.59,46.59,0,0,0-7.49,1.22c-1.22.32-2.43.7-3.63,1.12q-.9.3-1.8.57a7.55,7.55,0,0,1-1.93.36.05.05,0,0,0,0,.1,12.69,12.69,0,0,0,1.85,0,12,12,0,0,0,1.77-.34c1.25-.31,2.48-.69,3.72-1,2.5-.66,5-1.32,7.54-1.78C178.32,180.81,178.29,180.59,178.17,180.6Z" style="fill: rgb(38, 50, 56); transform-origin: 170.773px 182.302px;" id="eljbvwj89mm3d" class="animable"/><path d="M184.33,183.2a51.76,51.76,0,0,0-6.23-.46c-1,0-2.07.06-3.11.15-.5,0-1,.1-1.49.16s-1.08.21-1.63.27a.05.05,0,0,0,0,.1c.52,0,1,0,1.56,0H175c1,0,2.08,0,3.12,0,2.08,0,4.15-.05,6.23,0C184.44,183.39,184.44,183.21,184.33,183.2Z" style="fill: rgb(38, 50, 56); transform-origin: 178.118px 183.08px;" id="el6kwjrcy2qsv" class="animable"/><path d="M158.31,195.28a6.36,6.36,0,0,0,.35.58l.87,0A5,5,0,0,0,158.31,195.28Zm14.86-53.47a6.21,6.21,0,0,0-2-1.18,6.68,6.68,0,0,0,3.47,3A6,6,0,0,0,173.17,141.81Zm-32,30.09a6.4,6.4,0,0,0-1.18,2,6.13,6.13,0,0,0,1.79-1.46,6.39,6.39,0,0,0,1.18-2A6,6,0,0,0,141.13,171.9Zm11.42-27.57a6.24,6.24,0,0,0-1.17,2,6.28,6.28,0,0,0,1.78-1.47,6.36,6.36,0,0,0,1.19-2A6.51,6.51,0,0,0,152.55,144.33Zm16.87,24.47a6.55,6.55,0,0,0-1.19,2,6.37,6.37,0,0,0,1.8-1.47,6.13,6.13,0,0,0,1.17-2A6.42,6.42,0,0,0,169.42,168.8Zm-13.17,8.67a6.24,6.24,0,0,0-2.24.58,6.26,6.26,0,0,0,2.3.22,5.81,5.81,0,0,0,2.24-.58A6.24,6.24,0,0,0,156.25,177.47Zm31-6.12a6.3,6.3,0,0,0-2.24.58,6.74,6.74,0,0,0,4.54-.35A6.06,6.06,0,0,0,187.23,171.35Zm-19.48-19a5.87,5.87,0,0,0-2.24.59,6,6,0,0,0,2.3.21,6.28,6.28,0,0,0,2.24-.57A6.29,6.29,0,0,0,167.75,152.38Zm9.06,34.53a6,6,0,0,0-.57-2.24,6.51,6.51,0,0,0,.36,4.54A6,6,0,0,0,176.81,186.91Zm-33.42,1.74a6.53,6.53,0,0,0-.59-2.24,6.82,6.82,0,0,0,.36,4.54A6.49,6.49,0,0,0,143.39,188.65ZM184,157.09c0-.19,0-.38-.07-.57v0c-.19-.49-.38-1-.56-1.45a6.54,6.54,0,0,0-.17,2.1,6.35,6.35,0,0,0,.58,2.24A6.3,6.3,0,0,0,184,157.09Zm-29.44,4.6a5.91,5.91,0,0,0-.58-2.25,6.69,6.69,0,0,0,.36,4.55A6.3,6.3,0,0,0,154.6,161.69Z" style="fill: rgb(255, 255, 255); transform-origin: 164.79px 168.245px;" id="elp9a9jkk5rcb" class="animable"/><path d="M161.86,141.12c.27,1,5.4,7.57,10.12,7.21,1.53-.13,1.24-8.53,1.24-8.53l.12-.62,1.68-8.76-10.41-6.24-1.51-.82s-.3,2.42-.64,5.45c0,.14,0,.28-.05.43s0,.33-.07.49c-.05.45-.11.91-.16,1.37s-.07.69-.1,1.06l-.09,1.1A57.16,57.16,0,0,0,161.86,141.12Z" style="fill: rgb(211, 118, 106); transform-origin: 168.401px 135.852px;" id="elkkjha54xy5d" class="animable"/><path d="M175,130.42l-1.61,8.41a19.11,19.11,0,0,1-11.06-9.17l.11-.85c.35-3,.65-5.45.65-5.45l1.5.82Z" style="fill: rgb(38, 50, 56); transform-origin: 168.665px 131.095px;" id="ele8sx8dtj809" class="animable"/><path d="M186.94,118.13c.31,15.64-9,17.59-12.39,17.65-3.06.06-13.49-.13-15.42-15.65S164.37,99.51,171.37,99,186.63,102.49,186.94,118.13Z" style="fill: rgb(211, 118, 106); transform-origin: 172.879px 117.372px;" id="el01l8x1culakf" class="animable"/><path d="M184.57,115.74c-.36-.06-.69-.17-1-.26a1.7,1.7,0,0,1-1-.47.56.56,0,0,1,0-.68,1.38,1.38,0,0,1,1.37-.27,2,2,0,0,1,1.25.76A.59.59,0,0,1,184.57,115.74Z" style="fill: rgb(199, 199, 199); transform-origin: 183.879px 114.87px;" id="el0ojfqw86eetm" class="animable"/><path d="M174,115.37c.37,0,.71-.12,1.07-.18a1.82,1.82,0,0,0,1.05-.4.57.57,0,0,0,0-.68,1.38,1.38,0,0,0-1.35-.37,2.08,2.08,0,0,0-1.3.67A.6.6,0,0,0,174,115.37Z" style="fill: rgb(199, 199, 199); transform-origin: 174.79px 114.532px;" id="elp2tpferilfg" class="animable"/><path d="M176.13,118.26s-.08,0-.08.09c0,1.07-.13,2.29-1.1,2.63,0,0,0,.07,0,.06C176.13,120.89,176.32,119.26,176.13,118.26Z" style="fill: rgb(38, 50, 56); transform-origin: 175.572px 119.65px;" id="elc1ph51sugvq" class="animable"/><path d="M175.19,117.13c-1.71-.15-1.88,3.29-.3,3.43S176.63,117.26,175.19,117.13Z" style="fill: rgb(38, 50, 56); transform-origin: 174.99px 118.845px;" id="el1bnsuquki25" class="animable"/><path d="M174.51,117.28c-.31.18-.62.51-1,.53s-.72-.36-1-.72c0,0-.05,0-.06,0,0,.65.18,1.34.88,1.48s1.13-.44,1.33-1.09C174.73,117.4,174.64,117.21,174.51,117.28Z" style="fill: rgb(38, 50, 56); transform-origin: 173.567px 117.841px;" id="elf9rgn3oi7n" class="animable"/><path d="M182.1,118.42s.08.06.08.1c-.08,1.06,0,2.29,1,2.69a0,0,0,1,1,0,.05C182,121.05,181.86,119.42,182.1,118.42Z" style="fill: rgb(38, 50, 56); transform-origin: 182.591px 119.84px;" id="elv7vwyoyyf9" class="animable"/><path d="M183.09,117.35c1.72-.06,1.72,3.37.13,3.43S181.65,117.4,183.09,117.35Z" style="fill: rgb(38, 50, 56); transform-origin: 183.208px 119.065px;" id="elcgf61wr0mt8" class="animable"/><path d="M183.81,117.58c.27.18.54.51.87.53s.65-.35.89-.7c0,0,.05,0,.05,0,0,.66-.19,1.34-.83,1.47s-1-.45-1.15-1.1C183.61,117.69,183.7,117.5,183.81,117.58Z" style="fill: rgb(38, 50, 56); transform-origin: 184.627px 118.154px;" id="elmpqnjm5s8t8" class="animable"/><path d="M176.48,127c.26.25.52.58.91.61a2.88,2.88,0,0,0,1.14-.3,0,0,0,0,1,0,.06,1.45,1.45,0,0,1-1.34.61,1.14,1.14,0,0,1-.85-.93C176.36,127,176.44,127,176.48,127Z" style="fill: rgb(38, 50, 56); transform-origin: 177.435px 127.494px;" id="elrs6xuvasqdq" class="animable"/><path d="M176.08,124.18a3.54,3.54,0,0,0,2.42,1.49,4.58,4.58,0,0,0,1.28,0l.24,0,.23,0a.27.27,0,0,0,.2-.25h0a.41.41,0,0,0,0-.11h0v-.09c0-.8-.13-2-.13-2,.3.14,1.82.76,1.78.34a53.28,53.28,0,0,0-1.76-10.68.1.1,0,0,0-.19,0c.19,3.34,1,6.62,1.2,10a6.45,6.45,0,0,0-1.69-.45c-.11,0,.28,2.35.25,2.71v0a4.91,4.91,0,0,1-3.71-1C176.1,124,176,124.1,176.08,124.18Z" style="fill: rgb(38, 50, 56); transform-origin: 179.076px 119.263px;" id="eluvk65cyfzf9" class="animable"/><g id="elcri74j8t66r"><g style="opacity: 0.2; transform-origin: 177.964px 111.535px;" class="animable" id="elb4i9y7utfap"><path d="M177.34,111.69a13.37,13.37,0,0,0,2-.16c.67-.12,1.3-.38,2-.49a10.76,10.76,0,0,1,3.82.22c.11,0,.1.1,0,.08a9.51,9.51,0,0,0-4,.07,12,12,0,0,1-3.26.56,11.92,11.92,0,0,0-7.16,1.87s0,0,0,0A12.09,12.09,0,0,1,177.34,111.69Z" id="el8ftouuvvedc" class="animable" style="transform-origin: 177.989px 112.401px;"/><path d="M177,109.93a14.89,14.89,0,0,0,1.89-.15c.64-.13,1.24-.37,1.87-.48a10.32,10.32,0,0,1,3.62.22c.11,0,.1.09,0,.07a9,9,0,0,0-3.8.07,11.65,11.65,0,0,1-3.1.53,11.27,11.27,0,0,0-6.79,1.78,0,0,0,1,1,0,0A11.38,11.38,0,0,1,177,109.93Z" id="elvulnx9mk1bi" class="animable" style="transform-origin: 177.574px 110.6px;"/></g></g><path d="M159.79,122.1c2.63.09,3-5.43,3-5.43s5.32-.21,6.74-7.93a11.77,11.77,0,0,1-2.08,6.42s9.34-1.4,13-9.41c0,0-1.41,4.06-2.82,5.55a11,11,0,0,0,5.67-4.54s1.83,4.45,3.15,5.65c0,0,2-21.47-18.66-13.65,0,0-8.62.32-11.71,8S159.79,122.1,159.79,122.1Z" style="fill: rgb(199, 199, 199); transform-origin: 170.889px 109.573px;" id="elrv7uunoo2vh" class="animable"/><path d="M161.64,121.28s-3.09-5.1-5.38-4-.2,8.3,2.33,9.44a2.65,2.65,0,0,0,3.64-1.19Z" style="fill: rgb(211, 118, 106); transform-origin: 158.753px 122.079px;" id="elxgfwivjcndo" class="animable"/><path d="M156.91,119.31s0,0,0,.06c1.77.86,2.61,2.61,3.17,4.41a1.47,1.47,0,0,0-2.16-.55s0,.11.05.11a1.61,1.61,0,0,1,1.74.68,7.83,7.83,0,0,1,.76,1.5c.08.17.38.1.33-.09v0C161,123.07,159.39,119.71,156.91,119.31Z" style="fill: rgb(38, 50, 56); transform-origin: 158.863px 122.463px;" id="eldwh2ezexlzn" class="animable"/><path d="M160.43,126.09a.77.77,0,0,1-.81.73.78.78,0,0,1-.73-.82.77.77,0,0,1,.82-.72A.76.76,0,0,1,160.43,126.09Z" style="fill: rgb(255, 255, 255); transform-origin: 159.66px 126.05px;" id="elblbtok5hgcu" class="animable"/><polygon points="194.2 207.93 264.99 207.93 245.98 155.7 175.19 155.7 194.2 207.93" style="fill: #183059; transform-origin: 220.09px 181.815px;" id="elhlkwzf75xql" class="animable"/><polygon points="218.55 150.29 244.01 150.29 245.98 155.7 219.06 155.7 218.55 150.29" style="fill: #183059; transform-origin: 232.265px 152.995px;" id="elab60tpwtxis" class="animable"/><g id="elegunlvzq6yv"><g style="opacity: 0.2; transform-origin: 220.09px 179.11px;" class="animable" id="elhc3yz5lzcn4"><polygon points="194.2 207.93 264.99 207.93 245.98 155.7 175.19 155.7 194.2 207.93" id="elwghcylj2h0a" class="animable" style="transform-origin: 220.09px 181.815px;"/><polygon points="218.55 150.29 244.01 150.29 245.98 155.7 219.06 155.7 218.55 150.29" id="elg9so9kcg7xl" class="animable" style="transform-origin: 232.265px 152.995px;"/></g></g><polygon points="189.07 174.19 239.37 202.47 275.66 137.9 238.32 116.91 218.45 121.93 189.07 174.19" style="fill: rgb(235, 235, 235); transform-origin: 232.365px 159.69px;" id="elvhpzngqels" class="animable"/><polygon points="238.32 116.91 218.45 121.93 231.4 129.21 238.32 116.91" style="fill: rgb(219, 219, 219); transform-origin: 228.385px 123.06px;" id="elk5bh8vhzjag" class="animable"/><g id="elab4ewfdhg3c"><rect x="234.18" y="138" width="32.08" height="1.9" style="fill: rgb(219, 219, 219); transform-origin: 250.22px 138.95px; transform: rotate(29.34deg);" class="animable" id="elirriblbnrvd"/></g><g id="elnsf7jkvi1aq"><rect x="231.82" y="142.18" width="32.08" height="1.9" style="fill: rgb(219, 219, 219); transform-origin: 247.86px 143.13px; transform: rotate(29.34deg);" class="animable" id="el1pem5btrcqo"/></g><g id="ele6ogktjvvl"><rect x="229.47" y="146.37" width="32.08" height="1.9" style="fill: rgb(219, 219, 219); transform-origin: 245.51px 147.32px; transform: rotate(29.34deg);" class="animable" id="elrtjp1scehc"/></g><g id="el5swkqo7aign"><rect x="213.15" y="146.9" width="47" height="1.9" style="fill: rgb(219, 219, 219); transform-origin: 236.65px 147.85px; transform: rotate(29.34deg);" class="animable" id="el7wx7o21whb"/></g><g id="elcknrokss03h"><rect x="210.8" y="151.08" width="47" height="1.9" style="fill: rgb(219, 219, 219); transform-origin: 234.3px 152.03px; transform: rotate(29.34deg);" class="animable" id="el81bwh5hp11g"/></g><g id="elx7zeiw936dr"><rect x="208.45" y="155.26" width="47" height="1.9" style="fill: rgb(219, 219, 219); transform-origin: 231.95px 156.21px; transform: rotate(29.389deg);" class="animable" id="elpxuusfvfdu"/></g><g id="elwbtrgma77jf"><rect x="206.1" y="159.45" width="47" height="1.9" style="fill: rgb(219, 219, 219); transform-origin: 229.6px 160.4px; transform: rotate(29.34deg);" class="animable" id="eltc8w7kn74n"/></g><g id="elmfqbefgoche"><rect x="203.75" y="163.63" width="47" height="1.9" style="fill: rgb(219, 219, 219); transform-origin: 227.25px 164.58px; transform: rotate(29.34deg);" class="animable" id="elpm1kjusrg8"/></g><g id="elfzxs2ol0c4j"><rect x="201.39" y="167.82" width="47" height="1.9" style="fill: rgb(219, 219, 219); transform-origin: 224.89px 168.77px; transform: rotate(29.34deg);" class="animable" id="elzqk2x0vc2t"/></g><g id="elefs2omcc8u"><rect x="199.04" y="172" width="47" height="1.9" style="fill: rgb(219, 219, 219); transform-origin: 222.54px 172.95px; transform: rotate(29.34deg);" class="animable" id="elj5hbzgap74"/></g><g id="el9ncas9158du"><rect x="196.69" y="176.19" width="47" height="1.9" style="fill: rgb(219, 219, 219); transform-origin: 220.19px 177.14px; transform: rotate(29.34deg);" class="animable" id="elt4hcxv8n84g"/></g><g id="elhtuivoeajpq"><rect x="194.34" y="180.37" width="47" height="1.9" style="fill: rgb(219, 219, 219); transform-origin: 217.84px 181.32px; transform: rotate(29.34deg);" class="animable" id="el4qgo916y35"/></g><polygon points="193.92 207.93 264.71 207.93 270.27 160.03 199.48 160.03 193.92 207.93" style="fill: #183059; transform-origin: 232.095px 183.98px;" id="elqt0upfc7vko" class="animable"/><g id="el3uezp516x0w"><polygon points="193.92 207.93 264.71 207.93 270.27 160.03 199.48 160.03 193.92 207.93" style="opacity: 0.1; transform-origin: 232.095px 183.98px;" class="animable" id="elmwxs3fm8p"/></g><polygon points="245.38 155.07 270.84 155.07 270.27 160.03 243.34 160.03 245.38 155.07" style="fill: #183059; transform-origin: 257.09px 157.55px;" id="elwnngcdx79tf" class="animable"/><g id="ela2xpnlyn3ao"><polygon points="245.38 155.07 270.84 155.07 270.27 160.03 243.34 160.03 245.38 155.07" style="opacity: 0.1; transform-origin: 257.09px 157.55px;" class="animable" id="elvff63p5g70i"/></g><path d="M149.13,156.52c1.08,8.26,9,39.88,16,47.76,4.56,5.13,34.24,12.28,42.22,14.7,3.44,1,11.82-24.85,8-24.9-2.82,0-33.62-8.5-36.29-9.56,0,0-11.25-18.19-18.44-30.1C153.84,143.16,147.12,141.1,149.13,156.52Z" style="fill: rgb(211, 118, 106); transform-origin: 182.548px 182.237px;" id="el2o9jgkxtpdh" class="animable"/><path d="M226.38,200.35c-1.37-1-.84-1.74,2.18-1.82s15.08,2.15,15.5-2.12-16.62-7.18-21.65-6.65-13,3.14-13,3.14C212.64,194.13,220.13,197.86,226.38,200.35Z" style="fill: rgb(211, 118, 106); transform-origin: 226.739px 195.024px;" id="el6z7k2vccxa" class="animable"/><path d="M203,217.34c9.15,3.13,20.35,7.6,31,5.41a5.36,5.36,0,0,0,3.09-1.72c4.81-.9,5.83-3.44,5.83-3.44,4.23-2.2,4.92-4.94,4.92-4.94s5.63-1.11,5.53-4.63c-.11-4-8-1.61-13.13-3-11.74-3.14-27.56-10.89-30.85-12.13Z" style="fill: rgb(211, 118, 106); transform-origin: 228.186px 208.111px;" id="el2k6ose1cz0i" class="animable"/><path d="M225.67,210.39a77.07,77.07,0,0,0,10.44,2.17,78.38,78.38,0,0,0,11.67,0,.1.1,0,0,1,0,.19,41.46,41.46,0,0,1-22.18-2.2C225.47,210.48,225.49,210.35,225.67,210.39Z" style="fill: rgb(38, 50, 56); transform-origin: 236.683px 211.877px;" id="eljfd7tf6zkbk" class="animable"/><path d="M222.74,217.2c3.43.65,9.46,1.74,20.22.28,0,0,0,.05,0,.06a37,37,0,0,1-20.27-.18C222.5,217.31,222.51,217.16,222.74,217.2Z" style="fill: rgb(38, 50, 56); transform-origin: 232.758px 218.03px;" id="el5289beh6u13" class="animable"/><path d="M221.24,220.89c5.87.88,9.68.69,15.88.11,0,0,0,.06,0,.07-7,1.39-9.67,1.1-15.95,0C221,221.05,221,220.86,221.24,220.89Z" style="fill: rgb(38, 50, 56); transform-origin: 229.085px 221.447px;" id="elj9dicoiag0l" class="animable"/><path d="M171.78,169.28l-18.4,15.24s-5.46-25.7-4.93-33.71c.59-9,5.07-6.74,10.79-.33S171.78,169.28,171.78,169.28Z" style="fill: rgb(69, 90, 100); transform-origin: 160.097px 164.682px;" id="ele9d85xu9sy" class="animable"/><path d="M154.6,161.69a5.91,5.91,0,0,0-.58-2.25,6.69,6.69,0,0,0,.36,4.55A6.3,6.3,0,0,0,154.6,161.69Zm1.65,15.78a6.24,6.24,0,0,0-2.24.58,6.26,6.26,0,0,0,2.3.22,5.81,5.81,0,0,0,2.24-.58A6.24,6.24,0,0,0,156.25,177.47Zm14.56-9.9a6.84,6.84,0,0,0-1.39,1.23,6.55,6.55,0,0,0-1.19,2,6.37,6.37,0,0,0,1.8-1.47,7.16,7.16,0,0,0,1-1.45h0ZM152.12,144.9a5.23,5.23,0,0,0-.74,1.43,5.69,5.69,0,0,0,1.52-1.2A3.59,3.59,0,0,0,152.12,144.9Z" style="fill: rgb(255, 255, 255); transform-origin: 161.205px 161.598px;" id="elvev6gipflj9" class="animable"/><path d="M153.26,179.11c.56-.63,6.21-5.47,7.47-6.49s6.33-5.27,7.71-6.22c.06,0,.14,0,.08.09-1.17,1.19-6.28,5.48-7.54,6.55s-7,5.74-7.65,6.16C153.27,179.24,153.22,179.15,153.26,179.11Z" style="fill: rgb(38, 50, 56); transform-origin: 160.893px 172.805px;" id="el7txo81ts6jw" class="animable"/><path d="M170.31,170.48c.52-.5,1.36-1.25,1.36-1.25-1.31-2.44-9.08-14.18-10.9-17,0-.05,0-.09.07-.05,1.13,1.56,2.26,3.12,3.37,4.68-.11-.22-.21-.44-.31-.66-.38-.78-.73-1.57-1.13-2.34,0-.06.06-.12.1-.06a22.24,22.24,0,0,1,1.29,2.28c.26.56.47,1.13.69,1.7.63.91,1.27,1.8,1.88,2.72,1.87,2.83,3.92,5.69,5.57,8.65a12.77,12.77,0,0,1-1.9,1.5A.08.08,0,0,1,170.31,170.48Z" style="fill: rgb(38, 50, 56); transform-origin: 166.535px 161.412px;" id="elcbr0zqi9tfu" class="animable"/><path d="M155.16,183.05c-.55.54-1.12,1.06-1.68,1.6l-.18.17-.08-.26a78.72,78.72,0,0,1-2.2-9.22c-.27-1.56-.52-3.12-.69-4.69s-.34-3.14-.41-4.72c.34,1.54.63,3.09.93,4.64l.9,4.64,1.79,9.27-.26-.08C153.9,184,154.52,183.48,155.16,183.05Z" style="fill: rgb(38, 50, 56); transform-origin: 152.54px 175.375px;" id="elalgn109ke16" class="animable"/><path d="M150.78,171.84a4.21,4.21,0,0,1-1.07-1.63,5,5,0,0,1-.27-.93,3.57,3.57,0,0,1-.07-1,11.66,11.66,0,0,1,.8,1.73A16.71,16.71,0,0,1,150.78,171.84Z" style="fill: rgb(38, 50, 56); transform-origin: 150.07px 170.06px;" id="els4jimlwcc1" class="animable"/><path d="M173.3,139.58,171,146.84l-9.4-8.3-2.28,3s9.58,13.56,9.59,12.92l2.47-6.29,4.5,3.93-1.09-10.59Z" style="fill: rgb(69, 90, 100); transform-origin: 167.6px 146.511px;" id="elueuxnoxdtq" class="animable"/><path d="M175.61,146.88c-.24-1.74-.44-3.51-.76-5.24,0-.06-.11-.08-.12,0-.23,1.71.72,8.37.83,10l0,0c-.19-.17-4.15-3.45-4.19-3.39-.56,1-2.38,5.59-2.49,6-1.52-2.15-7.9-10.62-9.66-12.64,0,0-.14,0-.1.07,1.37,2.3,9.63,13.48,9.74,13.44a69.62,69.62,0,0,0,2.58-6.64c.68.73,4.71,4.45,4.71,4.19C176.09,150.87,175.84,148.62,175.61,146.88Z" style="fill: rgb(38, 50, 56); transform-origin: 167.631px 148.354px;" id="el2cpgmb94i95" class="animable"/></g><defs> 
    <filter id="active" height="200%"> 
        <feMorphology in="SourceAlpha" result="DILATED" operator="dilate" radius="2"/>
        
        <feFlood flood-color="#32DFEC" flood-opacity="1" result="PINK"/>
        <feComposite in="PINK" in2="DILATED" operator="in" result="OUTLINE"/>

        <feMerge>
            <feMergeNode in="OUTLINE"/>
            <feMergeNode in="SourceGraphic"/>
        </feMerge>
    </filter>
    <filter id="hover" height="200%">
        <feMorphology in="SourceAlpha" result="DILATED" operator="dilate" radius="2"/>
        
        <feFlood flood-color="#ff0000" flood-opacity="0.5" result="PINK"/>
        <feComposite in="PINK" in2="DILATED" operator="in" result="OUTLINE"/>

        <feMerge>
            <feMergeNode in="OUTLINE"/>
            <feMergeNode in="SourceGraphic"/>
        </feMerge>
            <feColorMatrix type="matrix" values="0   0   0   0   0                 0   1   0   0   0                 0   0   0   0   0                 0   0   0   1   0 "/>
    </filter>
</defs></svg>