<svg xmlns="http://www.w3.org/2000/svg" viewBox="0 0 750 500"><g id="freepik--background-simple--inject-2"><path d="M592,151.38c24,56.45,8,123.13-33.46,169.14S453,392.62,387.84,398c-46.52,3.83-95.51-2.73-135.38-25.84s-68.94-64.54-67.22-107.5c.65-16.23,6.07-33,19-43.88,20.62-17.38,52.66-14.9,80.67-11.33s60,6.13,80.72-11.17c15.91-13.29,20.15-34.44,29.6-52.23C411.3,115.79,445,94.26,481.59,90.84a113.18,113.18,0,0,1,13.78-.44c40.25,1.13,76.6,23.52,94.49,56.95Z" style="fill:#ebebeb"></path></g><g id="freepik--Floor--inject-2"><path d="M671.86,462.64c0,.14-132.92.26-296.85.26s-296.87-.12-296.87-.26S211,462.38,375,462.38,671.86,462.49,671.86,462.64Z" style="fill:#263238"></path></g><g id="freepik--Plant--inject-2"><path d="M419.29,416.64a9,9,0,0,1,5.91,3.78,15.83,15.83,0,0,1,2.55,6.67c.77,4.58-.47,9.79-2.17,14.11-4.68-2.19-7.17-7.64-8.26-10.48-1.72-4.49-2.11-13.65,2-14.08" style="fill:#183059"></path><path d="M432.46,447.65a7.65,7.65,0,0,1-.18-7.66,10.15,10.15,0,0,1,6.22-4.77,4.23,4.23,0,0,1,3.59.26,3.26,3.26,0,0,1,1.19,3.09,6.56,6.56,0,0,1-1.47,3.1c-2.44,3.15-5.37,5.74-9.35,6" style="fill:#183059"></path><path d="M431.28,462.17a3.7,3.7,0,0,1-.15-1c-.07-.63-.15-1.53-.21-2.65a32.82,32.82,0,0,1,.54-8.76,16.36,16.36,0,0,1,4-7.8,10.41,10.41,0,0,1,2.07-1.7,2.84,2.84,0,0,1,.87-.44,22.7,22.7,0,0,0-2.67,2.39,17.31,17.31,0,0,0-3.75,7.66,38,38,0,0,0-.67,8.64A27.27,27.27,0,0,1,431.28,462.17Z" style="fill:#263238"></path><path d="M420.38,423.59a11,11,0,0,1,.59,1.5c.35,1,.83,2.4,1.4,4.16,1.15,3.52,2.66,8.41,4.19,13.85s2.8,10.4,3.66,14c.42,1.8.76,3.26,1,4.28a10.71,10.71,0,0,1,.28,1.58,8.27,8.27,0,0,1-.48-1.54l-1.13-4.23c-.95-3.58-2.27-8.52-3.8-13.95s-3-10.34-4-13.88l-1.25-4.2A9.09,9.09,0,0,1,420.38,423.59Z" style="fill:#263238"></path><path d="M426.24,452a17.88,17.88,0,0,0-12.76-10.17c-1.42-.27-3.16-.23-4,1s-.11,2.82.74,4a15.24,15.24,0,0,0,16,5.59" style="fill:#183059"></path><path d="M415,445.91a3.38,3.38,0,0,1,.93.1,7.2,7.2,0,0,1,1.07.23,11.08,11.08,0,0,1,1.4.41,19.11,19.11,0,0,1,3.44,1.61,19.95,19.95,0,0,1,6.63,6.42,18.52,18.52,0,0,1,1.71,3.38,10.6,10.6,0,0,1,.46,1.38,6.69,6.69,0,0,1,.27,1.07,3,3,0,0,1,.12.92c-.1,0-.35-1.28-1.19-3.23a21.09,21.09,0,0,0-1.77-3.26,21.53,21.53,0,0,0-6.48-6.27A21,21,0,0,0,418.3,447C416.33,446.23,415,446,415,445.91Z" style="fill:#263238"></path></g><g id="freepik--Documents--inject-2"><path d="M288,205.16s52.34-2.06,63.43-37.29l-23,4.53s-4.23,13.34-10.79,20.4c0,0-2.89,1-14.89-3.33Z" style="fill:#e0e0e0"></path><path d="M302.77,189.47s.79.29,2.21.82a38.12,38.12,0,0,0,6.15,1.7,33.74,33.74,0,0,0,9.42.42,31.73,31.73,0,0,0,11.05-3.19,42.34,42.34,0,0,0,15.77-13.63,34.46,34.46,0,0,0,3.12-5.56c.6-1.39.88-2.18.93-2.16a2.81,2.81,0,0,1-.16.59c-.13.37-.28.95-.58,1.65a31.35,31.35,0,0,1-3,5.69,41.39,41.39,0,0,1-15.84,13.88,31.6,31.6,0,0,1-11.24,3.21,32.61,32.61,0,0,1-9.53-.54,34.13,34.13,0,0,1-6.16-1.87c-.71-.27-1.23-.56-1.59-.72A3.74,3.74,0,0,1,302.77,189.47Z" style="fill:#455a64"></path><path d="M344.26,176.81a10.59,10.59,0,0,1-2.23.94c-1.41.5-3.39,1.12-5.6,1.67s-4.26.93-5.74,1.14a9.79,9.79,0,0,1-2.41.2,13.59,13.59,0,0,1,2.35-.57c1.46-.3,3.47-.73,5.67-1.27s4.18-1.11,5.61-1.52A11.56,11.56,0,0,1,344.26,176.81Z" style="fill:#455a64"></path><path d="M341.67,181.59a10.29,10.29,0,0,1-2.23.94,58,58,0,0,1-5.6,1.68c-2.22.54-4.25.92-5.73,1.13a10.26,10.26,0,0,1-2.42.21A11.88,11.88,0,0,1,328,185c1.46-.3,3.47-.73,5.68-1.28s4.18-1.1,5.61-1.52A12.69,12.69,0,0,1,341.67,181.59Z" style="fill:#455a64"></path><path d="M334.71,187.86a5.58,5.58,0,0,1-1.66.76,28.4,28.4,0,0,1-4.23,1.22,43.27,43.27,0,0,1-4.35.62,6.23,6.23,0,0,1-1.82.08c0-.17,2.73-.59,6.07-1.21S334.66,187.69,334.71,187.86Z" style="fill:#455a64"></path><path d="M437,175.31s16.58,39.54,44.2,46.29c0,0,17.12-9.77,25.38-12.11,0,0-31.26-23.37-37.31-44.8C469.26,164.69,457.21,179.29,437,175.31Z" style="fill:#fafafa"></path><path d="M437,175.31l.61.07,1.84.23c.41,0,.87.12,1.37.17l1.64.05c.59,0,1.23.07,1.91.06l2.17-.14A33.86,33.86,0,0,0,457.27,173a34.23,34.23,0,0,0,6-3.38,32.1,32.1,0,0,0,5.8-5.07l.25-.28.1.36c2.22,7.63,7.42,15.35,13.89,22.82a168.29,168.29,0,0,0,23.21,21.69l.18.13.41.32-.5.14a54.7,54.7,0,0,0-6.81,2.61c-2.21,1-4.36,2-6.47,3.06-4.2,2.1-8.23,4.26-12,6.41l-.09.05-.1,0a42.32,42.32,0,0,1-12.66-5.65,62.89,62.89,0,0,1-9.79-8,98.24,98.24,0,0,1-12.95-16.4A121.32,121.32,0,0,1,439,179.8c-.71-1.43-1.22-2.56-1.55-3.32l-.36-.87a1.61,1.61,0,0,1-.11-.3,1.83,1.83,0,0,1,.15.28l.4.86c.36.75.89,1.86,1.62,3.28A132.7,132.7,0,0,0,446,191.58a99.57,99.57,0,0,0,13,16.27,62.6,62.6,0,0,0,9.75,8,41.68,41.68,0,0,0,12.52,5.56l-.18,0c3.82-2.16,7.85-4.32,12.06-6.43q3.17-1.59,6.49-3.08a55.56,55.56,0,0,1,6.88-2.63l-.08.46-.19-.14A166.88,166.88,0,0,1,483,187.78c-6.48-7.51-11.69-15.29-13.91-23l.36.07a32.72,32.72,0,0,1-5.91,5.11,34.52,34.52,0,0,1-6.11,3.38A33.77,33.77,0,0,1,446.55,176l-2.18.11c-.69,0-1.33-.06-1.92-.08l-1.65-.08c-.5-.06-.93-.15-1.33-.2l-1.83-.31Z" style="fill:#263238"></path><path d="M471.33,178.23s.08,0,0,.05a.49.49,0,0,1-.15.12,7,7,0,0,1-.63.35c-.55.28-1.37.66-2.38,1.1-2,.88-4.85,2-8,3.26s-6,2.31-8.07,3.06a23,23,0,0,1-3.39,1.12,23.36,23.36,0,0,1,3.26-1.46c2-.84,4.87-2,8-3.2l8-3.12C470.1,178.72,471.45,178.22,471.33,178.23Z" style="fill:#263238"></path><path d="M473.37,183.08c.06.13-4.46,2.49-10.1,5.27s-10.27,4.92-10.34,4.8,4.46-2.49,10.11-5.27S473.31,183,473.37,183.08Z" style="fill:#263238"></path><path d="M477.3,187.46c.07.13-4.33,2.77-9.83,5.91s-10,5.58-10.08,5.46,4.32-2.77,9.82-5.91S477.22,187.34,477.3,187.46Z" style="fill:#263238"></path><path d="M480.79,192.66c.08.12-3.88,3-8.86,6.38s-9.08,6.07-9.16,6,3.89-3,8.86-6.38S480.71,192.55,480.79,192.66Z" style="fill:#263238"></path><path d="M484.8,197.57a100,100,0,0,1-7.9,6.36,99.21,99.21,0,0,1-8.23,6,95.33,95.33,0,0,1,7.91-6.37A98.46,98.46,0,0,1,484.8,197.57Z" style="fill:#263238"></path><path d="M492.38,202.34c.08.12-4.1,2.75-9.32,5.87s-9.53,5.55-9.6,5.43,4.1-2.75,9.33-5.88S492.31,202.21,492.38,202.34Z" style="fill:#263238"></path><path d="M350.87,158.07s24-13.85,29.68-21.48c0,0,31.36,15,58.75,6.32l-21,24.4S384.07,174.66,350.87,158.07Z" style="fill:#fafafa"></path><path d="M350.87,158.07l4.74,2.07c1.47.72,3.44,1.36,5.68,2.21s4.9,1.57,7.82,2.48a118.75,118.75,0,0,0,21.52,3.56c1,.1,2.1.15,3.17.18l3.26.12c2.21,0,4.47,0,6.78-.1a98.77,98.77,0,0,0,14.37-1.52l-.14.08,19.64-22.79,1.39-1.62.28.42a64.94,64.94,0,0,1-16.63,2.66l-4.08,0-4-.23c-1.32-.05-2.62-.26-3.91-.4l-1.93-.22c-.64-.09-1.27-.21-1.9-.31a102.36,102.36,0,0,1-14.21-3.33,100.69,100.69,0,0,1-12.26-4.59l.25-.06a36,36,0,0,1-5.84,5.6c-2,1.61-3.95,3-5.78,4.32-3.69,2.59-7,4.68-9.68,6.37s-4.84,3-6.29,3.81l-1.67.95c-.38.22-.56.3-.58.31s.18-.13.55-.36l1.63-1c1.44-.88,3.55-2.18,6.24-3.9s5.94-3.84,9.61-6.45c1.82-1.31,3.77-2.72,5.74-4.34a35.67,35.67,0,0,0,5.75-5.55l.1-.13.15.07a99.36,99.36,0,0,0,12.21,4.51A102,102,0,0,0,407,144.21c.63.1,1.25.21,1.89.3l1.91.22c1.29.13,2.58.35,3.9.39l4,.22,4.05,0a65.1,65.1,0,0,0,16.49-2.64l.86-.27-.58.68-1.4,1.62-19.65,22.77-.06.07h-.08a98.82,98.82,0,0,1-14.45,1.51c-2.32.12-4.59.07-6.81.07l-3.27-.13c-1.08,0-2.14-.09-3.18-.19A117.2,117.2,0,0,1,369,165.13c-2.92-.94-5.6-1.62-7.82-2.56s-4.19-1.52-5.7-2.3Z" style="fill:#263238"></path><path d="M387.11,144.13c.09.11-4.15,3.68-9.46,8s-9.7,7.68-9.79,7.57,4.14-3.69,9.46-8S387,144,387.11,144.13Z" style="fill:#263238"></path><path d="M393.28,145.43c.1.1-3.77,3.92-8.65,8.53s-8.9,8.26-9,8.16,3.77-3.93,8.65-8.54S393.18,145.32,393.28,145.43Z" style="fill:#263238"></path><path d="M398.73,147.53c.11.1-2.93,3.81-6.78,8.29s-7.08,8-7.18,7.94,2.92-3.8,6.78-8.28S398.63,147.44,398.73,147.53Z" style="fill:#263238"></path><path d="M406.54,148c.11.09-2.56,3.81-6,8.31a96.57,96.57,0,0,1-6.37,8,101.66,101.66,0,0,1,6-8.31A100.87,100.87,0,0,1,406.54,148Z" style="fill:#263238"></path><path d="M413.36,148.89a100.74,100.74,0,0,1-6.13,8.14c-3.51,4.4-6.44,7.9-6.55,7.81a99.58,99.58,0,0,1,6.14-8.14A101.17,101.17,0,0,1,413.36,148.89Z" style="fill:#263238"></path><path d="M421.35,149.28a84.31,84.31,0,0,1-4.73,7.88,77.71,77.71,0,0,1-5.16,7.6,81.41,81.41,0,0,1,4.73-7.88A76.23,76.23,0,0,1,421.35,149.28Z" style="fill:#263238"></path></g><g id="freepik--character-2--inject-2"><path d="M572.33,204.91l-18.12-1c-.11-2.12,0-14.47,0-14.47s-7.54-1.17-7.63-8.71,1.21-24.85,1.21-24.85h0a26.22,26.22,0,0,1,26.33,3.31l1.11.86Z" style="fill:#aa755e"></path><path d="M549.56,169.28a1.1,1.1,0,1,0-1.54-.08A1.09,1.09,0,0,0,549.56,169.28Z" style="fill:#263238"></path><path d="M547.74,167.56c.11.13.85-.44,1.89-.45s1.8.53,1.91.4-.06-.3-.39-.55a2.64,2.64,0,0,0-1.52-.48,2.54,2.54,0,0,0-1.52.52C547.79,167.26,547.68,167.5,547.74,167.56Z" style="fill:#263238"></path><path d="M559.7,168a1.09,1.09,0,0,0-.36,1.51,1.1,1.1,0,1,0,.36-1.51Z" style="fill:#263238"></path><path d="M559,168c.12.13.86-.44,1.9-.44s1.79.53,1.91.4-.06-.3-.39-.55a2.56,2.56,0,0,0-3,0C559.07,167.71,559,167.94,559,168Z" style="fill:#263238"></path><path d="M554.85,176.57a5.1,5.1,0,0,0-1.68-.36c-.27,0-.48-.09-.5-.23a1.42,1.42,0,0,1,.19-.78l.82-2.11a28.79,28.79,0,0,0,1.78-5.55,28.58,28.58,0,0,0-2.33,5.34c-.27.73-.52,1.43-.78,2.13a1.71,1.71,0,0,0-.15,1.12.73.73,0,0,0,.47.44,2.23,2.23,0,0,0,.47.06A5,5,0,0,0,554.85,176.57Z" style="fill:#263238"></path><path d="M554.24,189.31a17.56,17.56,0,0,0,9.82-2.8s-2.32,5.43-9.84,4.75Z" style="fill:#7f5242"></path><path d="M549.06,154a2.83,2.83,0,1,1,1.88-5.13,8.31,8.31,0,0,1-2-2.84,2.85,2.85,0,0,1,.73-3.18,3.18,3.18,0,0,1,3.26,0c1.56.78,2.73,2.21,4.34,2.88s3.45.5,5.2.69a9.25,9.25,0,0,1,5.29,2.2,6.22,6.22,0,0,1,2.1,5.2c2.47-.15,5.19,0,7,1.63a7.05,7.05,0,0,1,2,5.7c-.12,2.08-1.1,4-1.84,6h0a4.33,4.33,0,0,1-.85,1.52L575,174l-3.34-.27.91-11.2s.63-4.71-3.46-4.54-9.9,4.4-17.75,2.76a8.6,8.6,0,0,1-3.62-1.29,3.64,3.64,0,0,1-1.49-3.39A2.48,2.48,0,0,1,549.06,154Z" style="fill:#263238"></path><path d="M575.29,167.32c.17,0,5.62-.42,4.72,5.93s-7,3.34-7,3.16S575.29,167.32,575.29,167.32Z" style="fill:#aa755e"></path><path d="M575.26,174.45s.1.1.27.21a1.17,1.17,0,0,0,.83.14,2.79,2.79,0,0,0,1.62-2.28,3.66,3.66,0,0,0-.09-1.63,1.28,1.28,0,0,0-.71-1,.55.55,0,0,0-.69.21c-.12.17-.09.3-.13.3s-.12-.12,0-.38a.69.69,0,0,1,.31-.36.84.84,0,0,1,.63-.07,1.56,1.56,0,0,1,1,1.15,3.79,3.79,0,0,1,.13,1.82,2.91,2.91,0,0,1-2,2.52,1.22,1.22,0,0,1-1-.32C575.25,174.61,575.24,174.46,575.26,174.45Z" style="fill:#7f5242"></path><path d="M559,163.33c.22.36,1.36.07,2.7.1s2.48.33,2.71,0c.1-.18-.08-.52-.56-.85a4.13,4.13,0,0,0-4.27-.05C559.13,162.81,558.94,163.15,559,163.33Z" style="fill:#263238"></path><path d="M548.86,164c.23.35.88.36,1.56.47s1.31.24,1.63,0c.14-.15.13-.44-.12-.76a2,2,0,0,0-1.31-.7,2.07,2.07,0,0,0-1.45.33C548.85,163.56,548.76,163.84,548.86,164Z" style="fill:#263238"></path><path d="M553.78,179.25c0,.06.28.21.81.27a4.17,4.17,0,0,0,2-.33,4.1,4.1,0,0,0,1.64-1.24c.33-.42.42-.74.37-.77a11,11,0,0,1-2.2,1.55A10.79,10.79,0,0,1,553.78,179.25Z" style="fill:#263238"></path><path d="M559.91,457.92l.21-9.23,17.29.28-.17,13.5-1.07.06c-4.77.18-24.29.61-27.46-.41C545.17,461,559.91,457.92,559.91,457.92Z" style="fill:#183059"></path><g style="opacity:0.4"><path d="M552.71,459.67s-5.17,1.4-4.55,2.26,20.37,1.17,29.08.54l0-.38-23-.17S553.71,459.73,552.71,459.67Z" style="fill:#fff"></path></g><path d="M577.49,462.08l-.29,0-.86,0-3.14.08c-2.66.06-6.32.08-10.38,0s-7.72-.2-10.37-.33l-3.14-.18-.85-.06-.3,0h.3l.86,0,3.14.11c2.65.1,6.32.21,10.37.27s7.71.06,10.37,0h4.29Z" style="fill:#263238"></path><path d="M554.2,462.19a7,7,0,0,0-.56-1.51,7.38,7.38,0,0,0-1-1.22,2.4,2.4,0,0,1,1.23,1.11A2.36,2.36,0,0,1,554.2,462.19Z" style="fill:#263238"></path><path d="M559.34,459.68c-.05,0-.29-.27-.53-.67s-.41-.75-.36-.78.29.27.54.67S559.39,459.65,559.34,459.68Z" style="fill:#263238"></path><path d="M560.75,459c0,.05-.31-.14-.6-.41s-.5-.53-.46-.57.31.14.6.41S560.79,458.92,560.75,459Z" style="fill:#263238"></path><path d="M561.66,457.35a2.2,2.2,0,0,1-.9.1,1.94,1.94,0,0,1-.9-.11,2,2,0,0,1,.9-.1A1.94,1.94,0,0,1,561.66,457.35Z" style="fill:#263238"></path><path d="M562,456.2a1.89,1.89,0,0,1-1,.28,1.7,1.7,0,0,1-1-.16,5.14,5.14,0,0,1,1-.05A5.65,5.65,0,0,1,562,456.2Z" style="fill:#263238"></path><path d="M558.78,458.17a3.56,3.56,0,0,1-1.11,0,6.39,6.39,0,0,1-1.18-.28,3,3,0,0,1-.67-.29.58.58,0,0,1-.27-.35.44.44,0,0,1,.17-.44,2,2,0,0,1,2.51.64,1.78,1.78,0,0,1,.35.74.76.76,0,0,1,0,.3,3.36,3.36,0,0,0-.49-.95,2.05,2.05,0,0,0-.94-.63,1.67,1.67,0,0,0-1.33.07c-.18.12-.11.33.08.45a3.46,3.46,0,0,0,.62.28,7.33,7.33,0,0,0,1.14.31C558.36,458.12,558.78,458.13,558.78,458.17Z" style="fill:#263238"></path><path d="M558.49,458.22a1.08,1.08,0,0,1-.12-.78,2,2,0,0,1,.32-.8,1.13,1.13,0,0,1,.93-.56.45.45,0,0,1,.34.52,1.25,1.25,0,0,1-.2.5,3.81,3.81,0,0,1-.53.66,1.67,1.67,0,0,1-.65.44s.23-.2.54-.54a4.71,4.71,0,0,0,.48-.66c.15-.24.26-.65,0-.71s-.57.24-.74.46a1.92,1.92,0,0,0-.33.72A4.68,4.68,0,0,0,558.49,458.22Z" style="fill:#263238"></path><path d="M577.22,457.35a11.47,11.47,0,0,0-1.28,0,5.44,5.44,0,0,0-4.58,3.54c-.28.74-.31,1.23-.35,1.23s0-.13,0-.35a4.13,4.13,0,0,1,.21-.93,5.26,5.26,0,0,1,1.79-2.55,5.38,5.38,0,0,1,2.92-1.09,5.15,5.15,0,0,1,1,0C577.1,457.3,577.22,457.33,577.22,457.35Z" style="fill:#263238"></path><path d="M575.54,450.12a29.39,29.39,0,0,1,.09,3.56,31.53,31.53,0,0,1-.11,3.55,57.51,57.51,0,0,1,0-7.11Z" style="fill:#263238"></path><path d="M568.83,460.52a10.06,10.06,0,0,1-2.53.21,9.42,9.42,0,0,1-2.52-.25c0-.06,1.13,0,2.53,0S568.83,460.46,568.83,460.52Z" style="fill:#263238"></path><path d="M572.22,460.56c0,.05-.1.24-.22.5s-.18.49-.24.48-.09-.27,0-.57S572.18,460.52,572.22,460.56Z" style="fill:#263238"></path><path d="M573.52,459s-.07.22-.25.39-.37.29-.41.25.08-.22.26-.4S573.48,459,573.52,459Z" style="fill:#263238"></path><path d="M575.36,458.3c0,.06-.24.05-.5.14s-.44.21-.48.17.1-.27.42-.37S575.38,458.25,575.36,458.3Z" style="fill:#263238"></path><path d="M576.66,458s-.08.14-.22.19-.28.05-.3,0,.08-.14.23-.2S576.64,457.92,576.66,458Z" style="fill:#263238"></path><g style="opacity:0.30000000000000004"><polygon points="577.2 456.88 559.94 456.32 560 454.24 577.36 455.79 577.2 456.88"></polygon></g><path d="M543.85,456l-2.93-8.75,16.36-5.6,4.42,12.76-1,.41c-4.43,1.79-22.64,8.82-26,8.93C531,463.88,543.85,456,543.85,456Z" style="fill:#183059"></path><g style="opacity:0.4"><path d="M537.67,460.09s-4.39,3.08-3.51,3.67,19.55-5.81,27.54-9.35l-.15-.36-21.71,7.65S538.64,459.81,537.67,460.09Z" style="fill:#fff"></path></g><path d="M561.81,454l-.28.13-.79.32-2.92,1.15c-2.48.95-5.93,2.22-9.76,3.54s-7.33,2.43-9.87,3.21l-3,.89-.83.23a1.29,1.29,0,0,1-.29.07l.28-.11.81-.26,3-1c2.53-.81,6-2,9.84-3.27s7.28-2.56,9.77-3.48l3-1.08.81-.29Z" style="fill:#263238"></path><path d="M539.93,462a6.87,6.87,0,0,0-1-1.23,6.58,6.58,0,0,0-1.41-.79,2.25,2.25,0,0,1,1.54.63A2.34,2.34,0,0,1,539.93,462Z" style="fill:#263238"></path><path d="M543.91,457.85s-.36-.15-.73-.45-.63-.57-.6-.61.37.16.73.45S544,457.81,543.91,457.85Z" style="fill:#263238"></path><path d="M545,456.7c0,.05-.34,0-.71-.19s-.65-.32-.63-.38.34,0,.71.19S545,456.65,545,456.7Z" style="fill:#263238"></path><path d="M545.31,454.87a2.2,2.2,0,0,1-.82.4c-.47.17-.87.26-.89.2a2.3,2.3,0,0,1,.82-.4A2.22,2.22,0,0,1,545.31,454.87Z" style="fill:#263238"></path><path d="M545.22,453.68c0,.05-.32.38-.86.61a1.69,1.69,0,0,1-1,.2,6.2,6.2,0,0,1,.94-.4A5.9,5.9,0,0,1,545.22,453.68Z" style="fill:#263238"></path><path d="M542.87,456.62a3.2,3.2,0,0,1-1,.35,6.72,6.72,0,0,1-1.21.14,3.13,3.13,0,0,1-.73-.05.63.63,0,0,1-.37-.23.44.44,0,0,1,0-.48,2.07,2.07,0,0,1,3.16.33c.1.17.13.27.12.28a3,3,0,0,0-.79-.74,2,2,0,0,0-1.09-.27,1.78,1.78,0,0,0-1.23.51c-.12.18,0,.36.24.41a3.71,3.71,0,0,0,.67.05,7.88,7.88,0,0,0,1.18-.09C542.46,456.72,542.86,456.59,542.87,456.62Z" style="fill:#263238"></path><path d="M542.62,456.76a1.11,1.11,0,0,1-.38-.68,1.86,1.86,0,0,1,0-.87,1.1,1.1,0,0,1,.69-.84.45.45,0,0,1,.49.38,1.17,1.17,0,0,1,0,.53,3,3,0,0,1-.28.8,1.59,1.59,0,0,1-.45.64s.14-.26.32-.7a3.47,3.47,0,0,0,.22-.78c.07-.27,0-.7-.25-.66s-.45.42-.54.68a2,2,0,0,0-.06.79A4,4,0,0,0,542.62,456.76Z" style="fill:#263238"></path><path d="M559.94,449.59s-.49.12-1.2.46a5.55,5.55,0,0,0-2.26,2,5.65,5.65,0,0,0-.85,2.89c0,.79.13,1.27.09,1.28a1.13,1.13,0,0,1-.11-.33,4.6,4.6,0,0,1-.13-.95,5.35,5.35,0,0,1,.82-3,5.44,5.44,0,0,1,2.38-2,4.87,4.87,0,0,1,.91-.28A1.28,1.28,0,0,1,559.94,449.59Z" style="fill:#263238"></path><path d="M555.91,443.37a31.5,31.5,0,0,1,1.29,3.31,32.11,32.11,0,0,1,1.1,3.38,28,28,0,0,1-1.3-3.31A30.58,30.58,0,0,1,555.91,443.37Z" style="fill:#263238"></path><path d="M553.12,455.42a9.45,9.45,0,0,1-2.3,1.05,9.13,9.13,0,0,1-2.46.63c0-.06,1.08-.36,2.39-.82S553.1,455.36,553.12,455.42Z" style="fill:#263238"></path><path d="M556.33,454.32s0,.25,0,.53,0,.52-.06.54-.18-.23-.15-.56S556.28,454.29,556.33,454.32Z" style="fill:#263238"></path><path d="M557,452.4c.05,0,0,.23-.11.46s-.24.39-.29.37,0-.23.11-.46S557,452.37,557,452.4Z" style="fill:#263238"></path><path d="M558.51,451.12c0,.06-.21.13-.42.3s-.34.35-.39.33,0-.3.26-.5S558.51,451.06,558.51,451.12Z" style="fill:#263238"></path><path d="M559.63,450.37c0,.05,0,.16-.14.26s-.25.15-.28.1,0-.16.14-.26S559.59,450.33,559.63,450.37Z" style="fill:#263238"></path><g style="opacity:0.30000000000000004"><polygon points="559.76 449.16 543.34 454.49 542.69 452.51 559.54 448.08 559.76 449.16"></polygon></g><path d="M510.69,380.26c5.38,21.89,30.4,73.27,30.4,73.27l13.28-3.43c0,3.34,0,5.24,0,5.24l25.14.83,3.56-171-31.2.88h0l-20.33-.88S506.2,362,510.69,380.26ZM537,372.93c.15-4.66,15.54-63.75,15.54-63.75.58,8.21,2.33,75.33,1.91,114.8C547.73,403,536.93,375.77,537,372.93Z" style="fill:#263238"></path><path d="M554.59,412.77a9.55,9.55,0,0,0-.1,1.66c0,1.14-.06,2.67-.09,4.52-.06,3.82-.1,9.09-.11,14.92s0,11.1,0,14.92l.07,4.52a9,9,0,0,0,.09,1.65,13,13,0,0,0,.1-1.66c0-1.14,0-2.67.09-4.52.05-3.82.09-9.09.11-14.92s0-11.09,0-14.91c0-1.85,0-3.38-.06-4.52A12.23,12.23,0,0,0,554.59,412.77Z" style="fill:#455a64"></path><path d="M566.69,287.49a2.6,2.6,0,0,0,0,.88,10,10,0,0,0,.5,2.36,11.49,11.49,0,0,0,12.52,7.81A10.88,10.88,0,0,0,582,298a2.61,2.61,0,0,0,.79-.4,23.59,23.59,0,0,1-3.17.65,11.63,11.63,0,0,1-12.16-7.59A22.78,22.78,0,0,1,566.69,287.49Z" style="fill:#455a64"></path><path d="M550.28,287.75a3.52,3.52,0,0,0-.09.89c0,.58-.07,1.41-.1,2.45-.05,2.06-.1,4.91-.12,8.06v4.44a6.42,6.42,0,0,0,.83,3.59,3.07,3.07,0,0,0,2.07,1.37,1.3,1.3,0,0,0,.91-.12,6.17,6.17,0,0,1-.88-.06,3,3,0,0,1-1.81-1.38,6.35,6.35,0,0,1-.67-3.4c0-1.38,0-2.87,0-4.44,0-3.15,0-6,0-8.06,0-1,0-1.87-.07-2.45A2.7,2.7,0,0,0,550.28,287.75Z" style="fill:#455a64"></path><path d="M529.66,298.39s.25,0,.69,0a10.91,10.91,0,0,0,1.87-.29,15.52,15.52,0,0,0,9.72-7.32,10.82,10.82,0,0,0,.8-1.71c.15-.42.21-.65.18-.67s-.44.88-1.28,2.2a17,17,0,0,1-9.51,7.17C530.63,298.21,529.65,298.31,529.66,298.39Z" style="fill:#455a64"></path><path d="M595,211.59c-2.55-4.79-4.28-7.58-8.91-10.43a28.33,28.33,0,0,0-13.05-4.37h0a32,32,0,0,1-19.32,0c-2.74.35-6.94-.67-16.33,4.15a22.42,22.42,0,0,0-9.34,9L516.85,230l15.67,9.84,4.17-12.12-3,27.22-4.78,31.11h56.6l-.73-35.84c0,1.29,0-10.62,0-10.62Z" style="fill:#183059"></path><path d="M570.24,244.81a2.09,2.09,0,0,1-.48.36,12.54,12.54,0,0,1-1.52.88A15.29,15.29,0,0,1,553,244.6a10.8,10.8,0,0,1-3.64-4.34,6.62,6.62,0,0,1,.25-6,4.53,4.53,0,0,1,5.46-2.14,3.8,3.8,0,0,1,2.29,1.9,4.18,4.18,0,0,1,.23,2.84,6.61,6.61,0,0,1-3.27,3.93,12.37,12.37,0,0,1-4.19,1.51,12.84,12.84,0,0,1-6.37-.54,11,11,0,0,1-1.59-.73,2.11,2.11,0,0,1-.51-.33c0-.05.74.4,2.16.86a13.08,13.08,0,0,0,6.24.38,12.09,12.09,0,0,0,4-1.52,6.25,6.25,0,0,0,3-3.67,3.75,3.75,0,0,0-.22-2.51,3.33,3.33,0,0,0-2-1.64,4.29,4.29,0,0,0-2.74.06,4.23,4.23,0,0,0-2.11,1.86,6.15,6.15,0,0,0-.23,5.55,10.52,10.52,0,0,0,3.45,4.16,14.79,14.79,0,0,0,8.73,2.85,15.34,15.34,0,0,0,6.16-1.21C569.53,245.25,570.21,244.76,570.24,244.81Z" style="fill:#fafafa"></path><path d="M585.41,275.83l-.29.1-.85.25a16.47,16.47,0,0,1-3.4.45,18.41,18.41,0,0,1-5.4-.6,18.67,18.67,0,0,1-6.48-3.1,16.87,16.87,0,0,1-3-2.9,7.66,7.66,0,0,1-1.87-4.17,4.12,4.12,0,0,1,2.48-4.11,2.85,2.85,0,0,1,2.62.32,4.43,4.43,0,0,1,1.58,2.2c2,7.17-4.83,15.54-13.22,15.57a16.6,16.6,0,0,1-11-4,13.67,13.67,0,0,1-3.55-4.44,7,7,0,0,1-.69-2.72,5.09,5.09,0,0,1,.65-2.69,4.26,4.26,0,0,1,2-1.85,3.6,3.6,0,0,1,2.64-.06,4.88,4.88,0,0,1,3.09,3.73,8.12,8.12,0,0,1-.45,4.55,10.56,10.56,0,0,1-2.33,3.51,13.51,13.51,0,0,1-6.25,3.52,22,22,0,0,1-5.38.69c-1.49,0-2.64-.06-3.42-.12l-.89-.08a1,1,0,0,1-.3,0,1.13,1.13,0,0,1,.3,0l.89,0c.78,0,1.94.07,3.41,0a23,23,0,0,0,5.32-.77,13.2,13.2,0,0,0,6-3.49,10.17,10.17,0,0,0,2.22-3.41,7.66,7.66,0,0,0,.4-4.31,4.42,4.42,0,0,0-2.81-3.39,3.15,3.15,0,0,0-2.3.06,3.77,3.77,0,0,0-1.74,1.66,5.31,5.31,0,0,0,.07,5,13.42,13.42,0,0,0,3.43,4.26,16.15,16.15,0,0,0,10.7,3.91,13.54,13.54,0,0,0,10.12-4.91,13,13,0,0,0,2.58-4.82,8.58,8.58,0,0,0,.07-5.16,3.86,3.86,0,0,0-1.38-2,2.42,2.42,0,0,0-2.21-.28,3.66,3.66,0,0,0-2.19,3.65,7.26,7.26,0,0,0,1.74,3.95,16.94,16.94,0,0,0,3,2.86,18.48,18.48,0,0,0,6.33,3.11,19.23,19.23,0,0,0,5.31.68A21.93,21.93,0,0,0,585.41,275.83Z" style="fill:#fafafa"></path><path d="M573,224.91a7.93,7.93,0,0,1-1.14-.24,15,15,0,0,1-3.08-1.24,15.35,15.35,0,0,1-4.14-3.22,13.76,13.76,0,0,1-1.93-2.67,7.31,7.31,0,0,1-1-3.59,4.82,4.82,0,0,1,1.73-3.68,3.72,3.72,0,0,1,2.07-.82,4.48,4.48,0,0,1,2.27.43,5,5,0,0,1,2.79,3.79,7.5,7.5,0,0,1-.91,4.94,11.44,11.44,0,0,1-8.94,5.47,20.79,20.79,0,0,1-11.2-2.34,11.67,11.67,0,0,1-4.46-3.83,7.36,7.36,0,0,1-1.06-5.59,5.67,5.67,0,0,1,1.28-2.54,4.6,4.6,0,0,1,2.42-1.41,5.37,5.37,0,0,1,2.73.08,4.29,4.29,0,0,1,2.27,1.42,3.5,3.5,0,0,1,.77,2.51,4.68,4.68,0,0,1-.91,2.37,9.91,9.91,0,0,1-3.71,3,20.5,20.5,0,0,1-8.21,1.9,21.66,21.66,0,0,1-11.7-3.06,17.8,17.8,0,0,1-2.66-2l-.63-.59a2.65,2.65,0,0,1-.2-.22l.24.18.66.55a20.11,20.11,0,0,0,2.7,1.89,22,22,0,0,0,11.58,2.86,20.33,20.33,0,0,0,8-1.92,9.42,9.42,0,0,0,3.52-2.83,4.21,4.21,0,0,0,.82-2.14,3,3,0,0,0-.67-2.18,4.64,4.64,0,0,0-4.52-1.31,4.51,4.51,0,0,0-3.32,3.58,6.86,6.86,0,0,0,1,5.19,11.25,11.25,0,0,0,4.27,3.65,20.33,20.33,0,0,0,10.9,2.29,11,11,0,0,0,8.58-5.2,7,7,0,0,0,.88-4.62,4.61,4.61,0,0,0-2.53-3.48,3.65,3.65,0,0,0-3.9.31A4.43,4.43,0,0,0,562.1,214a7,7,0,0,0,.9,3.42,13.89,13.89,0,0,0,1.85,2.64,16.06,16.06,0,0,0,4,3.24,17.83,17.83,0,0,0,3,1.31C572.61,224.8,573,224.88,573,224.91Z" style="fill:#fafafa"></path><path d="M454.05,246.37c1.23-2,9.7,2.74,10.45,3.09s1.27-.72.58-1c-1-.4-11.32-4.83-10.13-6.78.66-1.08,2.49.28,2.49.28s9.35,4.86,9.88,3.92-4.86-4-6.75-4.88-2.21-2.14-1.13-2.64c.74-.34,6.6,2.26,8.45,3.19s6.88,3.57,5.46.25-1.27-6.4-.64-7.21a1.13,1.13,0,0,1,1.94.89,12.85,12.85,0,0,0,.77,3.56,8.77,8.77,0,0,0,1.35,2.59c.7.9,1.33,1.64,1.87,2.26,5.4,1.88,20.8,6.65,35.2,5.34,2.6-.24,12.29-25,12.29-25l16.65,7.55a180.33,180.33,0,0,1-11.37,25.12c-11.69,21.34-59.66,0-59.66,0l0-.05A106.28,106.28,0,0,1,460.51,254c-5.05-1.82-4.9-2.28-4.58-2.83.84-1.48,9,2.87,7.79.92S453.11,247.88,454.05,246.37Z" style="fill:#aa755e"></path><path d="M554.81,289.45c0,.08.58.17.91.93a1.55,1.55,0,0,1,0,1.3,1.4,1.4,0,0,1-2.48-.4,1.5,1.5,0,0,1,.4-1.23,2.14,2.14,0,0,1,1.15-.6s-.12-.1-.39-.1a1.61,1.61,0,0,0-1,.44,1.84,1.84,0,0,0-.61,1.56,1.83,1.83,0,0,0,3.35.54,1.83,1.83,0,0,0-.08-1.66,1.6,1.6,0,0,0-.83-.74C555,289.4,554.81,289.43,554.81,289.45Z" style="fill:#455a64"></path><path d="M551.87,224.06l-20,42.33H477.66L498.12,224h25.22A11.67,11.67,0,0,1,531.2,221h18.72A2.16,2.16,0,0,1,551.87,224.06Z" style="fill:#263238"></path><polygon points="538.95 223.41 485.75 223.21 479.38 262 532.57 262.27 538.95 223.41" style="fill:#fafafa"></polygon><path d="M539,223.42s0,.22-.09.68-.18,1.16-.31,2c-.29,1.82-.7,4.46-1.23,7.82-1.09,6.82-2.65,16.56-4.54,28.35l0,.18h-.18l-53.16-.23h-.34l.05-.3c2.3-13.93,4.47-27.13,6.39-38.79l0-.2h.2l38.5.27,10.87.11,2.86,0h.73l.24,0H535l-10.93,0-38.34,0,.24-.2L479.63,262l-.25-.3h0l53.16.32-.21.18c2-11.72,3.6-21.4,4.74-28.17.58-3.37,1-6,1.35-7.86q.22-1.34.36-2.07C538.89,223.67,539,223.42,539,223.42Z" style="fill:#263238"></path><path d="M490.33,256.43c-.14,0,.78-6.35,2.06-14.12s2.42-14.05,2.56-14-.77,6.34-2.05,14.12S490.47,256.45,490.33,256.43Z" style="fill:#263238"></path><path d="M496.2,256.05c-.14,0,.72-6,1.93-13.33s2.3-13.28,2.44-13.26-.72,6-1.93,13.34S496.35,256.08,496.2,256.05Z" style="fill:#263238"></path><path d="M502.39,255.56c-.15,0,.72-6,1.92-13.34s2.3-13.28,2.44-13.25-.72,6-1.92,13.33S502.53,255.58,502.39,255.56Z" style="fill:#263238"></path><path d="M508.28,255.94c-.14,0,.72-6,1.92-13.33s2.3-13.28,2.44-13.26-.72,6-1.92,13.34S508.42,256,508.28,255.94Z" style="fill:#263238"></path><path d="M514.84,256.67c-.14,0,.72-6,1.93-13.34s2.3-13.27,2.44-13.25-.72,6-1.93,13.34S515,256.69,514.84,256.67Z" style="fill:#263238"></path><path d="M520.05,256.26c-.15,0,.72-6,1.92-13.34s2.3-13.27,2.44-13.25-.72,6-1.93,13.34S520.19,256.28,520.05,256.26Z" style="fill:#263238"></path><path d="M531.91,266.39,510,229a1.37,1.37,0,0,0-1.18-.62H457.16c-1,0-1.62.9-1.17,1.65l21.67,36.39Z" style="fill:#455a64"></path><path d="M505.64,248.78c1.22-2,9.69,2.74,10.44,3.08s1.27-.72.58-1c-1-.4-11.31-4.83-10.13-6.78.66-1.08,2.49.28,2.49.28s9.36,4.86,9.89,3.92-4.86-4-6.75-4.89-2.21-2.13-1.13-2.63c.73-.35,6.59,2.26,8.44,3.19s6.88,3.57,5.46.25-1.26-6.4-.64-7.21a1.13,1.13,0,0,1,1.94.89,13.23,13.23,0,0,0,.77,3.56,8.62,8.62,0,0,0,1.36,2.58c.69.91,1.32,1.65,1.87,2.26,5.4,1.89,20.8,6.66,35.19,5.35,2.6-.24,12.29-25,12.29-25l16.66,7.54A180.58,180.58,0,0,1,583,259.31c-11.68,21.34-59.65,0-59.65,0l0-.06a109.4,109.4,0,0,1-11.27-2.87c-5.05-1.82-4.89-2.28-4.58-2.83.84-1.49,9,2.87,7.8.91S504.7,250.29,505.64,248.78Z" style="fill:#aa755e"></path><path d="M595,238.82s7.34-30.58-8.91-37.66l-11.36,28.92Z" style="fill:#183059"></path><path d="M595,238.82a2.41,2.41,0,0,1-.47-.15l-1.33-.52-4.87-2L572,229.2l-.22-.09.08-.23c.42-1.2.87-2.46,1.32-3.74,1.34-3.77,2.62-7.35,3.78-10.62.6-1.62,1.08-3.2,1.66-4.64a18.9,18.9,0,0,1,2-3.84,9.66,9.66,0,0,1,4.85-3.85,6.47,6.47,0,0,1,1.67-.32,1.79,1.79,0,0,1,.59,0,10.23,10.23,0,0,0-2.19.48,9.74,9.74,0,0,0-4.61,3.86A19,19,0,0,0,579,210c-.55,1.42-1,3-1.61,4.63l-3.73,10.63c-.46,1.28-.9,2.55-1.33,3.75l-.14-.32,16.3,7.09,4.82,2.15,1.28.61C594.87,238.72,595,238.8,595,238.82Z" style="fill:#263238"></path></g><g id="freepik--character-1--inject-2"><path d="M241.15,458.26v-1.38l-15.11-.75-.07,5.72.93.07c4.15.26,21.1,1.06,23.88.24C253.89,461.25,241.15,458.26,241.15,458.26Z" style="fill:#183059"></path><g style="opacity:0.5"><path d="M231.43,461.78a5.18,5.18,0,0,0-1.89-3.22,5,5,0,0,0-3.5-1.13l0,4.2Z" style="fill:#fff"></path></g><path d="M247.37,459.94s4.47,1.33,3.9,2.07-17.73.57-25.29-.16l0-.34,20,.36S246.5,460,247.37,459.94Z" style="fill:#fff;opacity:0.5"></path><path d="M225.77,461.5l.26,0,.74.05,2.73.15c2.31.1,5.5.2,9,.24s6.72,0,9-.06l2.73-.09.74,0,.26,0h-1l-2.74,0c-2.3,0-5.49,0-9,0s-6.71-.12-9-.19l-2.74-.09h-1Z" style="fill:#263238"></path><path d="M246,462.1a6.42,6.42,0,0,1,.52-1.3,6.68,6.68,0,0,1,.94-1,2.11,2.11,0,0,0-1.09.94A2,2,0,0,0,246,462.1Z" style="fill:#263238"></path><path d="M241.6,459.81c.05,0,.26-.23.48-.57s.37-.65.33-.67-.26.22-.48.57S241.56,459.78,241.6,459.81Z" style="fill:#263238"></path><path d="M240.39,459.15s.28-.11.54-.34.44-.45.41-.49-.27.12-.53.35S240.36,459.12,240.39,459.15Z" style="fill:#263238"></path><path d="M239.64,457.73a1.77,1.77,0,0,0,.78.11,1.92,1.92,0,0,0,.79-.08,1.79,1.79,0,0,0-.79-.11A1.86,1.86,0,0,0,239.64,457.73Z" style="fill:#263238"></path><path d="M239.38,456.73a1.57,1.57,0,0,0,.87.26,1.67,1.67,0,0,0,.91-.11,4,4,0,0,0-.89-.07A4.66,4.66,0,0,0,239.38,456.73Z" style="fill:#263238"></path><path d="M242.13,458.5a2.84,2.84,0,0,0,1,0,6,6,0,0,0,1-.22,3.18,3.18,0,0,0,.59-.24.51.51,0,0,0,.25-.3.37.37,0,0,0-.15-.38,1.77,1.77,0,0,0-2.51,1.14.57.57,0,0,0,0,.26,2.6,2.6,0,0,1,.45-.82,1.66,1.66,0,0,1,.83-.53,1.49,1.49,0,0,1,1.15.09c.15.11.09.29-.08.39a3.35,3.35,0,0,1-.55.23,7.28,7.28,0,0,1-1,.25C242.5,458.48,242.13,458.47,242.13,458.5Z" style="fill:#263238"></path><path d="M242.38,458.55a1,1,0,0,0,.11-.67,1.53,1.53,0,0,0-.25-.7,1,1,0,0,0-.8-.5.37.37,0,0,0-.3.44,1,1,0,0,0,.16.43,2.93,2.93,0,0,0,.45.59,1.45,1.45,0,0,0,.55.4s-.2-.18-.46-.49a3.63,3.63,0,0,1-.4-.58c-.13-.21-.22-.57,0-.61s.48.22.63.41a1.69,1.69,0,0,1,.27.63A4.65,4.65,0,0,1,242.38,458.55Z" style="fill:#263238"></path><path d="M226.12,457.39s.43,0,1.11.05a4.89,4.89,0,0,1,2.41,1,4.75,4.75,0,0,1,1.49,2.16,10.3,10.3,0,0,1,.28,1.07.78.78,0,0,0,0-.3,3.44,3.44,0,0,0-.15-.81,4.59,4.59,0,0,0-4-3.27,3.56,3.56,0,0,0-.83,0A.72.72,0,0,0,226.12,457.39Z" style="fill:#263238"></path><path d="M233.34,460.35a8.78,8.78,0,0,0,2.19.22,8.51,8.51,0,0,0,2.2-.18c0-.05-1,0-2.2,0S233.34,460.29,233.34,460.35Z" style="fill:#263238"></path><path d="M230.39,460.3s.08.21.18.43.15.43.2.43.08-.24,0-.5S230.42,460.26,230.39,460.3Z" style="fill:#263238"></path><path d="M229.29,458.91s.06.19.22.35.3.26.34.22-.06-.19-.21-.35S229.33,458.87,229.29,458.91Z" style="fill:#263238"></path><path d="M227.71,458.26c0,.05.21.05.43.13s.38.2.42.17-.09-.25-.36-.34S227.7,458.21,227.71,458.26Z" style="fill:#263238"></path><path d="M226.58,458c0,.05.07.13.19.18s.24.05.26,0-.07-.12-.19-.17S226.6,457.9,226.58,458Z" style="fill:#263238"></path><path d="M259.17,458.93l0-1.39-15.08-1.09-.21,5.71.93.09c4.14.36,21.07,1.55,23.87.8C271.84,462.21,259.17,458.93,259.17,458.93Z" style="fill:#183059"></path><g style="opacity:0.5"><path d="M249.37,462.21a5.18,5.18,0,0,0-1.81-3.26,5.06,5.06,0,0,0-3.48-1.21l-.14,4.2Z" style="fill:#fff"></path></g><path d="M265.35,460.76s4.43,1.43,3.85,2.15-17.73.16-25.28-.75l0-.34,20,.83S264.48,460.76,265.35,460.76Z" style="fill:#fff;opacity:0.5"></path><path d="M243.72,461.8l.26,0,.74.07,2.72.21c2.31.16,5.49.33,9,.45s6.71.16,9,.15l2.73,0,.75,0,.26,0a1.33,1.33,0,0,0-.26,0h-.75l-2.73,0c-2.31,0-5.5-.08-9-.2s-6.7-.28-9-.4l-2.73-.15-.74,0Z" style="fill:#263238"></path><path d="M264,462.88a3.89,3.89,0,0,1,1.52-2.3,2.41,2.41,0,0,0-1.52,2.3Z" style="fill:#263238"></path><path d="M259.59,460.49s.26-.23.49-.56.38-.64.34-.67-.26.22-.49.56S259.55,460.46,259.59,460.49Z" style="fill:#263238"></path><path d="M258.39,459.8s.28-.11.54-.33.46-.44.43-.48-.28.11-.54.34S258.36,459.76,258.39,459.8Z" style="fill:#263238"></path><path d="M257.67,458.36a1.78,1.78,0,0,0,.78.13,1.92,1.92,0,0,0,.79-.06,1.78,1.78,0,0,0-.78-.13A1.74,1.74,0,0,0,257.67,458.36Z" style="fill:#263238"></path><path d="M257.44,457.35a2.23,2.23,0,0,0,1.77.19,5.61,5.61,0,0,0-.88-.09A4.8,4.8,0,0,0,257.44,457.35Z" style="fill:#263238"></path><path d="M260.14,459.19a2.82,2.82,0,0,0,1,0,5.78,5.78,0,0,0,1-.2,2.76,2.76,0,0,0,.6-.22.52.52,0,0,0,.25-.29.38.38,0,0,0-.14-.39,1.76,1.76,0,0,0-2.2.45,1.72,1.72,0,0,0-.34.63.58.58,0,0,0,0,.26,2.68,2.68,0,0,1,.46-.81,1.83,1.83,0,0,1,.85-.51,1.46,1.46,0,0,1,1.14.12c.15.12.09.29-.09.39a2.41,2.41,0,0,1-.55.21,5.63,5.63,0,0,1-1,.23C260.51,459.17,260.14,459.16,260.14,459.19Z" style="fill:#263238"></path><path d="M260.39,459.25a1,1,0,0,0,.13-.67,1.43,1.43,0,0,0-.24-.71,1,1,0,0,0-.79-.52.39.39,0,0,0-.31.44,1.15,1.15,0,0,0,.15.43,2.74,2.74,0,0,0,.44.6,1.31,1.31,0,0,0,.54.41s-.19-.18-.44-.49a3.28,3.28,0,0,1-.39-.6c-.12-.21-.2-.57,0-.61s.48.23.62.43a1.63,1.63,0,0,1,.26.64A3.19,3.19,0,0,1,260.39,459.25Z" style="fill:#263238"></path><path d="M244.16,457.7s.43,0,1.11.08A4.71,4.71,0,0,1,249.1,461c.21.66.22,1.09.25,1.09a.94.94,0,0,0,0-.31,4,4,0,0,0-.13-.81,4.58,4.58,0,0,0-3.94-3.36,3.76,3.76,0,0,0-.83,0A1,1,0,0,0,244.16,457.7Z" style="fill:#263238"></path><path d="M251.31,460.83a9,9,0,0,0,2.19.27,8.63,8.63,0,0,0,2.2-.12c0-.05-1,0-2.2-.06S251.32,460.78,251.31,460.83Z" style="fill:#263238"></path><path d="M248.37,460.71s.07.21.16.44.14.43.2.43.08-.24,0-.5S248.4,460.67,248.37,460.71Z" style="fill:#263238"></path><path d="M247.3,459.29s.06.2.21.36.3.27.34.23-.06-.19-.21-.35S247.34,459.26,247.3,459.29Z" style="fill:#263238"></path><path d="M245.73,458.61c0,.05.21.06.43.14s.37.21.41.18-.07-.25-.35-.35S245.72,458.56,245.73,458.61Z" style="fill:#263238"></path><path d="M244.61,458.27c0,.05.07.13.19.18s.24.06.26,0-.06-.12-.19-.17S244.63,458.23,244.61,458.27Z" style="fill:#263238"></path><path d="M257.07,282.17s12.59,83.63,10.76,87.67-12.75,87.46-12.75,87.46l-31.27-.36s17.33-95.79,16.95-97.34-23.7-84.16-23.7-84.16Z" style="fill:#263238"></path><path d="M246.7,285.34l-35.63-11.95-1.24,2.95a36.55,36.55,0,0,0-.45,27.22l24.39,63.8a47.68,47.68,0,0,1,3,14.1l3.77,75.7L265,458.87s-1.71-61.89-1.74-81.3c0-14.65-10.56-61.05-16.48-83.45" style="fill:#263238"></path><path d="M223.09,340.26s.06.09.14.28l.35.83c.3.77.74,1.86,1.29,3.24l4.66,11.92,6.86,17.73a34.76,34.76,0,0,1,1,5.44c.21,1.87.4,3.77.55,5.71.33,3.88.58,7.9.82,12,.9,16.49,1.32,31.42,1.61,42.23.1,5.39.19,9.75.25,12.81,0,1.48,0,2.65,0,3.48v.91a1.71,1.71,0,0,1,0,.3,1.16,1.16,0,0,1,0-.3c0-.23,0-.53,0-.91,0-.83-.07-2-.13-3.48-.09-3.05-.24-7.42-.41-12.8-.37-10.8-.85-25.74-1.75-42.21-.23-4.12-.49-8.14-.8-12-.15-1.94-.34-3.84-.54-5.69a35.64,35.64,0,0,0-.93-5.36c-2.53-6.67-4.82-12.68-6.75-17.74s-3.44-9.13-4.52-12c-.52-1.4-.92-2.5-1.21-3.27l-.3-.86Z" style="fill:#455a64"></path><path d="M263.45,395.64a.84.84,0,0,1,0-.28c0-.21,0-.48,0-.82,0-.76,0-1.81,0-3.16,0-2.78-.05-6.75-.08-11.63,0-2.46,0-5.15,0-8a27.79,27.79,0,0,0-.21-4.44c-.28-1.51-.57-3.06-.87-4.66-1.18-6.38-2.48-13.4-3.85-20.76-2.69-14.74-5.13-28.07-6.9-37.76-.86-4.81-1.55-8.71-2-11.45-.23-1.33-.4-2.37-.53-3.12,0-.33-.09-.6-.13-.81a1.18,1.18,0,0,1,0-.28,1.23,1.23,0,0,1,.07.27c0,.21.11.47.18.8.15.75.35,1.78.62,3.1.52,2.74,1.27,6.63,2.19,11.43,1.8,9.68,4.29,23,7,37.73,1.35,7.37,2.64,14.39,3.82,20.78.29,1.59.57,3.15.84,4.67a26.5,26.5,0,0,1,.19,4.5c0,2.88,0,5.57,0,8,0,4.88-.06,8.85-.07,11.63,0,1.35,0,2.4-.05,3.16,0,.34,0,.61,0,.82A1,1,0,0,1,263.45,395.64Z" style="fill:#455a64"></path><path d="M250.91,282.74a3.7,3.7,0,0,1,.72,1.45,10.58,10.58,0,0,1,.51,3.85,10.44,10.44,0,0,1-.93,3.78,3.79,3.79,0,0,1-.86,1.36,18.43,18.43,0,0,0,1.3-5.16A17.52,17.52,0,0,0,250.91,282.74Z" style="fill:#455a64"></path><path d="M231.12,280.76a2.06,2.06,0,0,1,0,.81,7.15,7.15,0,0,1-.53,2.16,8.34,8.34,0,0,1-1.87,2.73,8,8,0,0,1-3.52,2,7.88,7.88,0,0,1-4.05-.11,8,8,0,0,1-2.93-1.53,6.93,6.93,0,0,1-1.49-1.64,2,2,0,0,1-.36-.73,12.76,12.76,0,0,0,2.06,2.1,7.69,7.69,0,0,0,11.84-3A12.48,12.48,0,0,0,231.12,280.76Z" style="fill:#455a64"></path><path d="M312.91,251l4.26.88c3.94.46,6.12.87,7.42.08,1.74-1.07.05-2.85.05-2.85s3-.35,3.12-2.11a1.75,1.75,0,0,0-1.23-1.62s2.68-.43,3.39-1.35c1-1.26-.61-2.38-.61-2.38,3.81-1.34,3.95-3.46,3.22-3.83s-3.62.26-3.62.26c-2.35.15-8.79.68-5.83-2.16s4.17-6.16,3.88-7.28a1.29,1.29,0,0,0-2.43.07,15,15,0,0,1-2.39,3.39,9.86,9.86,0,0,1-2.57,2.11c-1.14.63-2.12,1.13-3,1.53L312,238.56Z" style="fill:#ffbe9d"></path><path d="M329.34,241.68a9.28,9.28,0,0,1-2.17.88,19,19,0,0,1-2.47.64,11.52,11.52,0,0,1-1.51.19,2.49,2.49,0,0,1-.88-.1,1.17,1.17,0,0,1-.74-.69,1.49,1.49,0,0,1,.66-1.68,7,7,0,0,1,1.41-.66l2.35-.93a9.94,9.94,0,0,1,2.22-.72,10.26,10.26,0,0,1-2.07,1.07l-2.32,1a8.46,8.46,0,0,0-1.28.63,1,1,0,0,0-.47,1.08c.12.35.63.47,1.1.45a13.42,13.42,0,0,0,1.45-.15c.93-.15,1.75-.35,2.45-.52A11.44,11.44,0,0,1,329.34,241.68Z" style="fill:#eb996e"></path><path d="M327.12,245.32a5.7,5.7,0,0,1-1.65.54l-1.83.44-1.08.25a2.13,2.13,0,0,1-1.33-.08,1,1,0,0,1-.52-.6,1.09,1.09,0,0,1,.07-.76,2.21,2.21,0,0,1,.88-.85,9,9,0,0,1,1.7-.88,3.77,3.77,0,0,1,1.7-.39,12.71,12.71,0,0,1-1.55.74,12.06,12.06,0,0,0-1.57.93,1.82,1.82,0,0,0-.68.67.45.45,0,0,0,.22.66c.54.25,1.42-.08,2.07-.17l1.84-.33A5.84,5.84,0,0,1,327.12,245.32Z" style="fill:#eb996e"></path><path d="M325.12,248.66a4,4,0,0,1-1.82.67,7.9,7.9,0,0,1-2.14.13,1.82,1.82,0,0,1-1.25-.6,1.2,1.2,0,0,1-.29-.77,1.12,1.12,0,0,1,.36-.77,3.6,3.6,0,0,1,1.26-.67l1.17-.41c.75-.24,1.44-.43,2-.57a5.67,5.67,0,0,1,1.91-.29,8.72,8.72,0,0,1-1.81.65c-.56.19-1.23.41-2,.68l-1.14.43a3.19,3.19,0,0,0-1.07.56.58.58,0,0,0-.05.83,1.34,1.34,0,0,0,.91.44,9.65,9.65,0,0,0,2,0C324.4,248.83,325.09,248.58,325.12,248.66Z" style="fill:#eb996e"></path><path d="M319.93,252.19s-.12.06-.31,0a1,1,0,0,1-.48-.74,1.47,1.47,0,0,1,.5-1.19,3.05,3.05,0,0,1,1.31-.68,10.25,10.25,0,0,1,3.56-.72,15.67,15.67,0,0,1-3.37,1.22,3.11,3.11,0,0,0-1.17.55,1.09,1.09,0,0,0-.45.8C319.52,252,320,252.13,319.93,252.19Z" style="fill:#eb996e"></path><path d="M261.65,212.13s3.82,11.37,4.07,12c2.32,6.14,4.94,15.13,7.85,16.22s38.4-6.16,38.4-6.16l5.43,18.53S289,263.09,273.57,262.9c-14.43-.18-18.56-1.81-23.64-13.46s-10.84-25-12-32.75" style="fill:#455a64"></path><path d="M317.43,252.75a5,5,0,0,1-.83.38c-.56.23-1.38.55-2.45.94-2.13.79-5.26,1.84-9.16,3s-8.59,2.38-13.8,3.7a87.92,87.92,0,0,1-17.25,3,30.83,30.83,0,0,1-4.62-.12,19.19,19.19,0,0,1-4.42-.92,21.22,21.22,0,0,1-7.23-4.42,43.56,43.56,0,0,1-8.5-11.48c-1.92-3.6-3.22-6.63-4.11-8.72-.45-1-.78-1.87-1-2.43a5,5,0,0,1-.31-.86,6,6,0,0,1,.41.82c.26.59.62,1.38,1.08,2.39.94,2.06,2.3,5.06,4.25,8.61a44,44,0,0,0,8.5,11.31,20.93,20.93,0,0,0,7.07,4.28,18,18,0,0,0,4.3.89,31.25,31.25,0,0,0,4.55.12,90.32,90.32,0,0,0,17.15-3c5.22-1.29,9.9-2.49,13.81-3.59s7.05-2.08,9.2-2.8l2.48-.85A5.22,5.22,0,0,1,317.43,252.75Z" style="fill:#263238"></path><path d="M219.68,197.19l28.94,2.46s11-1.81,17.1,25.26l-3.3,10.19L260,250.76h0L258.84,283l-53.66-3.95c1.21-7.32,6.93-16.95,8.85-23.13-1.95-4.88-13.28-24.76-13.27-35,0-21.86,18.92-23.75,18.92-23.75" style="fill:#455a64"></path><path d="M260,250.76a6.9,6.9,0,0,1-.31-1.26,14.18,14.18,0,0,1,0-3.53,35.37,35.37,0,0,1,1.1-5.1,45,45,0,0,0,1.41-6.16,12,12,0,0,0-.65-6.12,15.63,15.63,0,0,0-2.75-4.29c-1.94-2.21-3.32-3.43-3.25-3.5a5.58,5.58,0,0,1,1,.8,32.76,32.76,0,0,1,2.53,2.45A15.54,15.54,0,0,1,262,228.4a12.25,12.25,0,0,1,.72,6.38,40.61,40.61,0,0,1-1.47,6.22,39.93,39.93,0,0,0-1.19,5,15.83,15.83,0,0,0-.18,3.45A5.55,5.55,0,0,1,260,250.76Z" style="fill:#263238"></path><path d="M250.93,208.3s.3,0,.77.26a3.21,3.21,0,0,1,1.36,1.75,3.25,3.25,0,0,1,.13,1.57,3,3,0,0,1-.86,1.62,3.61,3.61,0,0,1-3.92.75,3.73,3.73,0,0,1-2-3.44A3.45,3.45,0,0,1,248,208a3.76,3.76,0,0,1,2.13-.62c.53,0,.8.14.79.17s-.29,0-.78,0a3.89,3.89,0,0,0-1.93.72,3.14,3.14,0,0,0-1.36,2.55,3.28,3.28,0,0,0,1.78,3,3.16,3.16,0,0,0,3.37-.63,2.7,2.7,0,0,0,.71-2.73,3.22,3.22,0,0,0-1.13-1.69C251.19,208.43,250.91,208.34,250.93,208.3Z" style="fill:#fafafa"></path><path d="M234.33,219.9s.3,0,.77.26a3.21,3.21,0,0,1,1.36,1.75,3.25,3.25,0,0,1,.13,1.57,3,3,0,0,1-.86,1.61,3.6,3.6,0,0,1-3.92.76,3.73,3.73,0,0,1-2-3.44,3.45,3.45,0,0,1,1.63-2.84,3.76,3.76,0,0,1,2.13-.62,1.48,1.48,0,0,1,.8.17s-.3,0-.79,0a3.89,3.89,0,0,0-1.93.72,3.14,3.14,0,0,0-1.36,2.55,3.28,3.28,0,0,0,1.78,3,3.16,3.16,0,0,0,3.37-.63,2.7,2.7,0,0,0,.71-2.73,3.22,3.22,0,0,0-1.13-1.69C234.59,220,234.31,219.94,234.33,219.9Z" style="fill:#fafafa"></path><path d="M251.61,231.2a1.33,1.33,0,0,1,.76.26,3.17,3.17,0,0,1,1.37,1.75,3.25,3.25,0,0,1,.13,1.57,3,3,0,0,1-.86,1.62,3.58,3.58,0,0,1-3.92.75,3.73,3.73,0,0,1-2-3.44,3.44,3.44,0,0,1,1.63-2.84,3.76,3.76,0,0,1,2.13-.62c.53,0,.8.14.79.17s-.29,0-.78,0a3.89,3.89,0,0,0-1.93.72,3.17,3.17,0,0,0-1.37,2.55,3.31,3.31,0,0,0,1.79,3,3.16,3.16,0,0,0,3.37-.63,2.67,2.67,0,0,0,.7-2.73,3.16,3.16,0,0,0-1.12-1.69C251.87,231.33,251.59,231.24,251.61,231.2Z" style="fill:#fafafa"></path><path d="M267.93,241.25a1.34,1.34,0,0,1,.77.26,3.16,3.16,0,0,1,1.36,1.75,3.25,3.25,0,0,1,.13,1.57,3,3,0,0,1-.85,1.62,3.58,3.58,0,0,1-3.92.75,3.74,3.74,0,0,1-2.05-3.44,3.48,3.48,0,0,1,1.64-2.84,3.76,3.76,0,0,1,2.13-.62c.53,0,.8.14.79.17s-.29,0-.79,0a3.86,3.86,0,0,0-1.92.72,3.15,3.15,0,0,0-1.37,2.55,3.31,3.31,0,0,0,1.79,3,3.14,3.14,0,0,0,3.36-.63,2.66,2.66,0,0,0,.71-2.73,3.16,3.16,0,0,0-1.12-1.69C268.19,241.38,267.92,241.29,267.93,241.25Z" style="fill:#fafafa"></path><path d="M217.38,269.56a1.34,1.34,0,0,1,.77.26,3.16,3.16,0,0,1,1.36,1.75,3.25,3.25,0,0,1,.13,1.57,3,3,0,0,1-.85,1.62,3.58,3.58,0,0,1-3.92.75,3.74,3.74,0,0,1-2.05-3.44,3.48,3.48,0,0,1,1.64-2.84,3.76,3.76,0,0,1,2.13-.62c.53,0,.8.14.79.17s-.29,0-.79,0a3.86,3.86,0,0,0-1.92.72,3.15,3.15,0,0,0-1.37,2.55,3.31,3.31,0,0,0,1.79,3,3.14,3.14,0,0,0,3.36-.63,2.66,2.66,0,0,0,.71-2.73A3.16,3.16,0,0,0,218,270C217.64,269.69,217.37,269.6,217.38,269.56Z" style="fill:#fafafa"></path><path d="M289.22,247.17a1.44,1.44,0,0,1,.76.26,3.17,3.17,0,0,1,1.37,1.76,3.22,3.22,0,0,1,.13,1.57,3,3,0,0,1-.86,1.61,3.6,3.6,0,0,1-3.92.76,3.76,3.76,0,0,1-2.05-3.44,3.49,3.49,0,0,1,1.64-2.85,3.76,3.76,0,0,1,2.13-.62,1.62,1.62,0,0,1,.79.17c0,.05-.29,0-.78,0a3.8,3.8,0,0,0-1.93.72,3.14,3.14,0,0,0-1.37,2.54,3.3,3.3,0,0,0,1.79,3,3.18,3.18,0,0,0,3.37-.62,2.69,2.69,0,0,0,.7-2.74,3.16,3.16,0,0,0-1.12-1.69C289.48,247.3,289.2,247.22,289.22,247.17Z" style="fill:#fafafa"></path><path d="M243.35,243.07a1.44,1.44,0,0,1,.77.26,3.16,3.16,0,0,1,1.36,1.75,3.28,3.28,0,0,1,.13,1.58,3,3,0,0,1-.85,1.61,3.58,3.58,0,0,1-3.92.75,3.7,3.7,0,0,1-2.05-3.43,3.49,3.49,0,0,1,1.64-2.85,3.76,3.76,0,0,1,2.13-.62,1.62,1.62,0,0,1,.79.17c0,.05-.29,0-.79,0a3.83,3.83,0,0,0-1.93.72,3.13,3.13,0,0,0-1.36,2.54,3.3,3.3,0,0,0,1.78,3,3.17,3.17,0,0,0,3.37-.62,2.68,2.68,0,0,0,.71-2.74A3.16,3.16,0,0,0,244,243.5C243.61,243.2,243.34,243.12,243.35,243.07Z" style="fill:#fafafa"></path><path d="M251.82,273.71s.31,0,.77.26a3.17,3.17,0,0,1,1.37,1.75,3.37,3.37,0,0,1,.13,1.57,3,3,0,0,1-.86,1.62,3.6,3.6,0,0,1-3.92.75,3.75,3.75,0,0,1-2.05-3.44,3.46,3.46,0,0,1,1.64-2.84,3.76,3.76,0,0,1,2.13-.62c.53,0,.8.14.79.17s-.29,0-.78,0a3.89,3.89,0,0,0-1.93.72,3.15,3.15,0,0,0-1.37,2.55,3.31,3.31,0,0,0,1.79,3,3.16,3.16,0,0,0,3.37-.63,2.67,2.67,0,0,0,.7-2.73,3.16,3.16,0,0,0-1.12-1.69C252.09,273.84,251.81,273.75,251.82,273.71Z" style="fill:#fafafa"></path><path d="M306.85,240.69a1.44,1.44,0,0,1,.77.26A3.16,3.16,0,0,1,309,242.7a3.28,3.28,0,0,1,.13,1.58,3,3,0,0,1-.85,1.61,3.58,3.58,0,0,1-3.92.75,3.72,3.72,0,0,1-2-3.43,3.49,3.49,0,0,1,1.64-2.85,3.76,3.76,0,0,1,2.13-.62c.53,0,.8.14.79.17s-.29,0-.79,0a3.83,3.83,0,0,0-1.92.71,3.15,3.15,0,0,0-1.37,2.55,3.31,3.31,0,0,0,1.79,3,3.16,3.16,0,0,0,3.36-.62,2.68,2.68,0,0,0,.71-2.74,3.16,3.16,0,0,0-1.12-1.69C307.11,240.82,306.84,240.74,306.85,240.69Z" style="fill:#fafafa"></path><path d="M250.8,160.29c1.85.59,2.92,2.6,3.16,4.53a34.58,34.58,0,0,1-.25,5.83c-.08,1.94.21,4,1.54,5.46,1.09,1.15,2.69,1.66,3.9,2.67,2.64,2.21,2.81,6.14,2.77,9.59a2.76,2.76,0,0,1-3.14,3.49l-22.59.89" style="fill:#183059"></path><path d="M224,200.88l-1.65-37.6L237.25,152l13.57,6.64s.45,17,0,24.43-7.9,8.18-7.9,8.18.17,4.33.34,8.89a9.66,9.66,0,0,1-9.74,10h0A9.66,9.66,0,0,1,224,200.88Z" style="fill:#ffbe9d"></path><path d="M249.34,171a.95.95,0,1,1-.94-.94A.94.94,0,0,1,249.34,171Z" style="fill:#263238"></path><path d="M250.26,170c-.12.12-.82-.47-1.84-.52s-1.78.43-1.89.29.07-.28.41-.51a2.46,2.46,0,0,1,1.52-.4,2.49,2.49,0,0,1,1.46.58C250.22,169.7,250.32,169.94,250.26,170Z" style="fill:#263238"></path><path d="M238.38,171a.95.95,0,1,1-.94-.94A.94.94,0,0,1,238.38,171Z" style="fill:#263238"></path><path d="M239,170c-.12.12-.82-.47-1.84-.52s-1.78.43-1.89.29.08-.28.41-.51a2.46,2.46,0,0,1,1.52-.4,2.49,2.49,0,0,1,1.46.58C238.93,169.7,239,169.94,239,170Z" style="fill:#263238"></path><path d="M242.92,191.21a18.42,18.42,0,0,1-9.79-3.3s2.45,5.53,9.86,5.22Z" style="fill:#eb996e"></path><path d="M242.64,178.59a7.59,7.59,0,0,1,1.67-.21c.26,0,.51,0,.57-.24a1.41,1.41,0,0,0-.15-.82l-.69-2.11c-.49-1.5-.91-2.87-1.19-3.86a6.44,6.44,0,0,1-.37-1.64,6.75,6.75,0,0,1,.65,1.55c.35,1,.81,2.32,1.3,3.82l.66,2.12a1.68,1.68,0,0,1,.11,1.07.63.63,0,0,1-.44.36,1.39,1.39,0,0,1-.44,0A6.31,6.31,0,0,1,242.64,178.59Z" style="fill:#263238"></path><path d="M241.89,179.46a2.4,2.4,0,0,0-1,.6,1.09,1.09,0,0,0-.25,1.1,1.13,1.13,0,0,0,1.29.55,1.38,1.38,0,0,0,.93-.7,1.05,1.05,0,0,0-.13-1.13.87.87,0,0,0-1.09-.17" style="fill:#eb996e"></path><path d="M243.21,181c0,.14-.84.37-1.74-.15s-1.15-1.38-1-1.41.53.54,1.27,1S243.19,180.8,243.21,181Z" style="fill:#263238"></path><path d="M228.41,158.74c0,1.59-.95,3-1.43,4.57s-.41,3.44,1,4.39a4,4,0,0,0,1.22.51,13.26,13.26,0,0,0,5.6-.2c.08-1.4.16-2.8.25-4.2a5.64,5.64,0,0,0,2,3.32,4.23,4.23,0,0,0,4,.6,2.46,2.46,0,0,0,1.45-3.21c.46,1.59,2.17,2.67,4,3a16.67,16.67,0,0,0,5.41-.11c-.88-1.4-.29-3.14.24-4.67s.91-3.38-.24-4.6a16.44,16.44,0,0,0-1.3-1,14.1,14.1,0,0,1-2.12-3c-2.41-3.48-7.63-5-12-3.77a12.35,12.35,0,0,0-8.58,8.82" style="fill:#183059"></path><path d="M209.91,195.49c7-.59,14.18-.17,21.2-.76-1.57-.74-2.41-5.39-2.12-7.11a18.81,18.81,0,0,1,2-4.81,7.1,7.1,0,0,0,.77-5.05c-.59-1.8-2.33-3-3-4.8s0-4,.64-5.84q2.53-7.27,5.08-14.54a26.62,26.62,0,0,0-8.89-.37c-2.93.55-5.81,2.3-6.9,5.07-1.22,3.13,0,6.94-1.74,9.81-1.19,1.95-3.43,2.93-5.15,4.43-2.92,2.54-4.21,6.55-4.3,10.41s1.42,9.82,2.4,13.56" style="fill:#183059"></path><path d="M213.55,167.49s-.1-.11-.32-.27a1.49,1.49,0,0,0-1.13-.22,1.55,1.55,0,0,0-1.19,1.23,2.11,2.11,0,0,0,.8,2.14,2.87,2.87,0,0,0,2.78.44,4.38,4.38,0,0,0,2.37-2.36,9.07,9.07,0,0,0,.6-3.81c0-1.36-.17-2.79-.19-4.28a11.06,11.06,0,0,1,.68-4.3,6.43,6.43,0,0,1,2.61-3.13,11.06,11.06,0,0,1,3.41-1.36,14.74,14.74,0,0,1,3.16-.41,10.41,10.41,0,0,1,4.5.87,8.17,8.17,0,0,1,1.09.62c.23.17.34.26.33.28s-.51-.31-1.5-.71a10.88,10.88,0,0,0-4.41-.69,14.2,14.2,0,0,0-3.07.46,10.87,10.87,0,0,0-3.25,1.34,6.07,6.07,0,0,0-2.4,2.91,10.74,10.74,0,0,0-.63,4.12c0,1.45.17,2.88.18,4.28a9.45,9.45,0,0,1-.68,4,4.79,4.79,0,0,1-2.65,2.57,3.25,3.25,0,0,1-3.16-.57,2.42,2.42,0,0,1-.85-2.49,1.79,1.79,0,0,1,1.44-1.36,1.57,1.57,0,0,1,1.22.33C213.51,167.34,213.56,167.49,213.55,167.49Z" style="fill:#183059"></path><path d="M260.15,177s.09-.07.29-.08a1,1,0,0,1,.77.39,1.3,1.3,0,0,1,.23,1.34,1.91,1.91,0,0,1-1.47,1.06,3.11,3.11,0,0,1-2.14-.45,4.56,4.56,0,0,1-1.67-1.85c-.85-1.6-.7-3.64-.32-5.54a17.26,17.26,0,0,0,.6-5.36,6.24,6.24,0,0,0-2-3.75,19.32,19.32,0,0,0-2.36-1.84,5.16,5.16,0,0,1-.9-.66,4.17,4.17,0,0,1,1,.49,14.84,14.84,0,0,1,2.51,1.74,6.46,6.46,0,0,1,2.24,3.95,16.56,16.56,0,0,1-.56,5.52,8.15,8.15,0,0,0,.24,5.23,3.41,3.41,0,0,0,3.32,2.15,1.63,1.63,0,0,0,1.27-.81,1.09,1.09,0,0,0-.13-1.1A1,1,0,0,0,260.15,177Z" style="fill:#183059"></path><path d="M240.19,221.37l20,42.34h54.26l-20.47-42.36H268.72a11.61,11.61,0,0,0-7.86-3.06H242.15A2.16,2.16,0,0,0,240.19,221.37Z" style="fill:#183059"></path><path d="M240.19,221.37l20,42.34h54.26l-20.47-42.36H268.72a11.61,11.61,0,0,0-7.86-3.06H242.15A2.16,2.16,0,0,0,240.19,221.37Z" style="opacity:0.5"></path><path d="M260.15,263.71l21.91-37.42a1.35,1.35,0,0,1,1.18-.62H334.9c1,0,1.63.9,1.18,1.65l-21.67,36.39Z" style="fill:#183059"></path><path d="M274.63,250.57l0,.06c.33-.39.68-.82,1.06-1.3a8.11,8.11,0,0,0,1.26-2.4,11.72,11.72,0,0,0,.72-3.31,1.05,1.05,0,0,1,1.81-.83c.58.75.72,3.62-.61,6.71s3.36.64,5.08-.22,7.18-3.28,7.86-3c1,.47.69,1.63-1.05,2.45s-6.79,3.65-6.29,4.53,9.2-3.62,9.2-3.62,1.71-1.27,2.32-.26c1.1,1.82-8.51,5.92-9.44,6.29-.64.25-.13,1.24.54.93s8.59-4.7,9.72-2.86c.88,1.41-7.87,3.45-9,5.27s6.47-2.22,7.25-.84c.29.51.44.94-4.27,2.62a116.11,116.11,0,0,1-12.26,3Z" style="fill:#ffbe9d"></path><path d="M273.62,247.22l5.43,18.53s-28.43,10.35-43.83,10.16c-14.43-.18-18.56-1.82-23.64-13.47s-10.84-25-12-32.74c0,0-8.15-35.48,22.92-32.31l.84,27.75s3.44,11.37,3.69,12c2.32,6.14,5.32,15.12,8.23,16.21S273.62,247.22,273.62,247.22Z" style="fill:#455a64"></path><path d="M205.41,247.82a3.49,3.49,0,0,1,.2.41c.13.29.31.7.55,1.22.47,1.07,1.18,2.66,2.13,4.69s2.18,4.48,3.79,7.23a42.36,42.36,0,0,0,6.5,8.64,22.9,22.9,0,0,0,5,3.84,11.29,11.29,0,0,0,1.47.75,9.65,9.65,0,0,0,1.56.64,17.73,17.73,0,0,0,3.38.8c4.7.68,9.83,0,15.09-1s10.77-2.54,16.47-4A173.1,173.1,0,0,0,279,265.51l-.16.32c-.79-2.69-1.63-5.56-2.49-8.45l-3-10.09.3.19c-7,1.21-13.64,2.87-20,4.18a81.32,81.32,0,0,1-18.42,2h-.15l-.06-.14c-2.65-6.9-4.71-13.35-6.55-19.05s-3.43-10.68-4.74-14.78-2.44-7.28-3.22-9.45l-.9-2.48c-.09-.26-.17-.47-.22-.63l-.07-.22s0,.06.1.2l.26.63c.22.55.56,1.37,1,2.45.82,2.15,2,5.34,3.34,9.41s3,9,4.85,14.75,3.95,12.13,6.62,19l-.21-.15a81.21,81.21,0,0,0,18.31-2c6.38-1.31,13-3,20-4.2l.24,0,.07.22q1.46,5,3,10.09l2.48,8.45.07.23-.22.09a171.5,171.5,0,0,1-17.52,5.5c-5.72,1.48-11.21,2.94-16.51,4s-10.47,1.67-15.26,1a18.57,18.57,0,0,1-3.44-.83,10.75,10.75,0,0,1-1.6-.66,13.3,13.3,0,0,1-1.5-.78,23.09,23.09,0,0,1-5-3.92,42.29,42.29,0,0,1-6.48-8.75c-1.6-2.78-2.79-5.26-3.73-7.3s-1.6-3.64-2.05-4.73l-.5-1.24A4.49,4.49,0,0,1,205.41,247.82Z" style="fill:#263238"></path><path d="M205.93,224.77a1.44,1.44,0,0,1,.77.26,3.17,3.17,0,0,1,1.37,1.75,3.4,3.4,0,0,1,.13,1.58,3,3,0,0,1-.86,1.61,3.6,3.6,0,0,1-3.92.76,3.76,3.76,0,0,1-2-3.44,3.49,3.49,0,0,1,1.64-2.85,3.76,3.76,0,0,1,2.13-.62,1.62,1.62,0,0,1,.79.17s-.29,0-.78,0a3.8,3.8,0,0,0-1.93.72,3.11,3.11,0,0,0-1.37,2.54,3.31,3.31,0,0,0,1.79,3,3.18,3.18,0,0,0,3.37-.62,2.69,2.69,0,0,0,.7-2.74,3.16,3.16,0,0,0-1.12-1.69C206.19,224.9,205.92,224.82,205.93,224.77Z" style="fill:#fafafa"></path><path d="M269.37,257.59a1.44,1.44,0,0,1,.77.26,3.16,3.16,0,0,1,1.36,1.75,3.28,3.28,0,0,1,.13,1.58,3,3,0,0,1-.85,1.61,3.6,3.6,0,0,1-3.92.76,3.73,3.73,0,0,1-2.05-3.44,3.47,3.47,0,0,1,1.64-2.85,3.76,3.76,0,0,1,2.13-.62,1.67,1.67,0,0,1,.79.17c0,.05-.29,0-.79,0a3.83,3.83,0,0,0-1.93.72,3.13,3.13,0,0,0-1.36,2.54,3.29,3.29,0,0,0,1.78,3,3.17,3.17,0,0,0,3.37-.62,2.68,2.68,0,0,0,.71-2.74A3.16,3.16,0,0,0,270,258C269.63,257.72,269.36,257.64,269.37,257.59Z" style="fill:#fafafa"></path><path d="M246.76,255.27a1.34,1.34,0,0,1,.77.26,3.17,3.17,0,0,1,1.37,1.75,3.38,3.38,0,0,1,.12,1.57,3,3,0,0,1-.85,1.62,3.58,3.58,0,0,1-3.92.75,3.75,3.75,0,0,1-2.05-3.44,3.48,3.48,0,0,1,1.64-2.84,3.76,3.76,0,0,1,2.13-.62c.53,0,.8.14.79.17s-.29,0-.79,0a3.86,3.86,0,0,0-1.92.72,3.15,3.15,0,0,0-1.37,2.55,3.31,3.31,0,0,0,1.79,3,3.16,3.16,0,0,0,3.37-.63,2.67,2.67,0,0,0,.7-2.73,3.16,3.16,0,0,0-1.12-1.69C247,255.4,246.75,255.31,246.76,255.27Z" style="fill:#fafafa"></path><path d="M226,262.71a1.37,1.37,0,0,1,.77.26,3.21,3.21,0,0,1,1.36,1.75,3.25,3.25,0,0,1,.13,1.57,3,3,0,0,1-.86,1.62,3.58,3.58,0,0,1-3.92.75,3.73,3.73,0,0,1-2-3.44,3.47,3.47,0,0,1,1.63-2.84,3.76,3.76,0,0,1,2.13-.62c.53,0,.8.14.79.17s-.29,0-.78,0a3.89,3.89,0,0,0-1.93.72,3.14,3.14,0,0,0-1.36,2.55,3.28,3.28,0,0,0,1.78,3,3.16,3.16,0,0,0,3.37-.63,2.7,2.7,0,0,0,.71-2.73,3.22,3.22,0,0,0-1.13-1.69C226.21,262.84,225.93,262.75,226,262.71Z" style="fill:#fafafa"></path><path d="M222.73,240.21a1.34,1.34,0,0,1,.77.26,3.17,3.17,0,0,1,1.37,1.75,3.37,3.37,0,0,1,.13,1.57,3,3,0,0,1-.86,1.62,3.58,3.58,0,0,1-3.92.75,3.75,3.75,0,0,1-2.05-3.44,3.48,3.48,0,0,1,1.64-2.84,3.76,3.76,0,0,1,2.13-.62c.53,0,.8.14.79.17s-.29,0-.78,0a3.89,3.89,0,0,0-1.93.72,3.15,3.15,0,0,0-1.37,2.55,3.31,3.31,0,0,0,1.79,3,3.16,3.16,0,0,0,3.37-.63,2.67,2.67,0,0,0,.7-2.73,3.16,3.16,0,0,0-1.12-1.69C223,240.34,222.72,240.25,222.73,240.21Z" style="fill:#fafafa"></path><path d="M212.76,206.54a1.34,1.34,0,0,1,.77.26,3.16,3.16,0,0,1,1.36,1.75,3.25,3.25,0,0,1,.13,1.57,3,3,0,0,1-.85,1.62,3.58,3.58,0,0,1-3.92.75,3.71,3.71,0,0,1-2.05-3.44,3.48,3.48,0,0,1,1.64-2.84,3.76,3.76,0,0,1,2.13-.62c.52,0,.8.14.79.17s-.29,0-.79,0a3.92,3.92,0,0,0-1.93.72,3.17,3.17,0,0,0-1.36,2.55,3.32,3.32,0,0,0,1.78,3,3.15,3.15,0,0,0,3.37-.63,2.66,2.66,0,0,0,.71-2.73,3.16,3.16,0,0,0-1.12-1.69C213,206.67,212.75,206.59,212.76,206.54Z" style="fill:#fafafa"></path></g></svg>