<?xml version="1.0" encoding="utf-8"?>
<!-- Generator: Adobe Illustrator 27.5.0, SVG Export Plug-In . SVG Version: 6.00 Build 0)  -->
<svg version="1.1" xmlns="http://www.w3.org/2000/svg" xmlns:xlink="http://www.w3.org/1999/xlink" x="0px" y="0px"
	 width="500" height="400" viewBox="0 0 1100 1000" style="enable-background:new 0 0 3710 3710;" xml:space="preserve">
	 <g id="Background">
	<g>
		<g>
			<rect style="fill:#FFF;" width="100" height="200"/>
		</g>
	</g>
</g>
<g id="Illustration">
<g transform="matrix(3.18 0 0 3.18 540 540)"><g><g transform="matrix(1 0 0 1 0 -29.25)"><rect vector-effect="non-scaling-stroke" x="-30" y="-29.702088056790394" rx="0" ry="0" width="60" height="59.40417611358079" style="stroke: none; stroke-width: 2; stroke-dasharray: none; stroke-linecap: butt; stroke-dashoffset: 0; stroke-linejoin: miter; stroke-miterlimit: 4; fill: rgb(51, 51, 51); fill-opacity: 0; fill-rule: nonzero; opacity: 1;"></rect></g><g transform="matrix(1 0 0 1 -4.47 -45.71)"><path vector-effect="non-scaling-stroke" transform=" translate(-25.52, -13.24)" d="M 5.88 17.49 L 40.18 26.4 C 40.872195347502824 26.582075657049877 41.60883495938943 26.470749602928034 42.216313559633655 26.09225826321201 C 42.82379215987787 25.71376692349599 43.24837506353618 25.101589852667725 43.39 24.4 L 47.06 6.629999999999999 C 47.30986148762298 5.422143344511821 46.68006736139328 4.204263312332515 45.550000000000004 3.71 C 39 0.86 17.41 -6.54 4.33 13.55 C 3.876529620228525 14.255581750126785 3.789776959415964 15.136102819933638 4.0968311113881395 15.91661466430162 C 4.403885263360315 16.697126508669605 5.067329887924978 17.282519204787448 5.879999999999999 17.490000000000002 z" stroke-linecap="round" style="stroke: none; stroke-width: 1; stroke-dasharray: none; stroke-linecap: butt; stroke-dashoffset: 0; stroke-linejoin: miter; stroke-miterlimit: 4; fill: rgb(254, 140, 134); fill-rule: nonzero; opacity: 1;"></path></g><g transform="matrix(1 0 0 1 -13.75 -18.45)"><path vector-effect="non-scaling-stroke" transform=" translate(-16.24, -40.51)" d="M 32.38 56.64 L 22.3 22.88 C 22.09703246914283 22.191866146992975 21.619752559064064 21.617624143513947 20.98033847720906 21.29224182967057 C 20.340924395354055 20.966859515827196 19.595765014595216 20.919031821010165 18.92 21.16 L 1.74 27.25 C 0.5920131652289258 27.6516889444654 -0.12859579215205597 28.790582411590513 2.220446049250313e-16 30 C 0.66 36.7 4.69 57.89 29.67 60 C 30.531346726924017 60.07042938885235 31.371707502863103 59.709923088571635 31.91426368352078 59.0372335066492 C 32.45681986417846 58.36454392472677 32.631214047523926 57.466903854824416 32.38 56.64 z" stroke-linecap="round" style="stroke: none; stroke-width: 1; stroke-dasharray: none; stroke-linecap: butt; stroke-dashoffset: 0; stroke-linejoin: miter; stroke-miterlimit: 4; fill: rgb(207, 66, 165); fill-rule: nonzero; opacity: 1;"></path></g><g transform="matrix(1 0 0 1 14.09 -23.56)"><path vector-effect="non-scaling-stroke" transform=" translate(-44.08, -35.39)" d="M 53.19 15 L 28.33 40 C 27.82283954249601 40.504778296337804 27.546130727258134 41.19625894416175 27.5650540202024 41.91155941745497 C 27.583977313146665 42.62685989074818 27.896859769732536 43.302742885878374 28.43 43.78 L 42 55.9 C 42.88657653084157 56.70407960538851 44.20754413659241 56.79902415205185 45.2 56.129999999999995 C 50.800000000000004 52.339999999999996 67.5 38.69 57.43000000000001 15.739999999999995 C 57.072454530335044 14.95754701565691 56.35230243121529 14.40153451393485 55.50483849677259 14.253628072546265 C 54.65737456232989 14.10572163115768 53.791454586380176 14.384919666947805 53.190000000000005 14.999999999999995 z" stroke-linecap="round" style="stroke: none; stroke-width: 1; stroke-dasharray: none; stroke-linecap: butt; stroke-dashoffset: 0; stroke-linejoin: miter; stroke-miterlimit: 4; fill: rgb(79, 81, 254); fill-rule: nonzero; opacity: 1;"></path></g><g transform="matrix(1 0 0 1 0 25.84)"><path vector-effect="non-scaling-stroke" transform=" translate(-62.42, 14.98)" d="M 8.14 -33.11 C 5.72 -33.11 3.25 -33.05 0.82 -33.05 L 0.66 -33.05 L 0.49 -32.95 C -0.99 -32.01 -1.21 -31.02 -1.21 -29.59 C -1.21 -22.27 -0.99 -15.02 -0.99 -7.7 C -0.99 -7.09 -1.04 -6.27 -0.99 -5.45 C -0.99 -3.14 -0.66 0.11 2.15 0.6 C 2.58 2.09 3.58 3.41 5.61 3.41 C 6.76 3.41 7.87 3.19 9.02 3.19 C 9.85 3.19 10.72 3.3 11.55 3.3 C 13.09 3.3 15.68 3.08 15.68 0.99 C 15.68 -0.11 14.9 -0.71 14.24 -1.1 C 14.19 -1.1 14.19 -1.16 14.13 -1.16 C 14.03 -1.21 13.8 -1.32 13.59 -1.32 C 13.37 -1.32 13.09 -1.32 12.87 -1.32 C 12.93 -1.43 12.93 -1.59 12.93 -1.76 C 12.93 -2.86 12.15 -3.46 11.49 -3.85 C 11.44 -3.85 11.44 -3.9 11.38 -3.9 C 11.28 -3.96 11.05 -4.07 10.84 -4.07 C 9.52 -4.07 8.14 -3.9 6.76 -3.85 C 6.76 -4.62 6.76 -5.39 6.76 -6.11 C 6.66 -8.09 6.49 -10.12 6.49 -12.1 C 6.54 -12.1 6.54 -12.15 6.6 -12.15 C 6.93 -12.15 7.21 -12.04 7.54 -12.04 C 8.25 -12.04 8.96 -11.99 9.68 -11.99 C 11.22 -11.99 14.03 -12.15 14.03 -14.24 C 14.03 -15.62 12.87 -16.55 11.61 -16.55 L 11.22 -16.55 C 11.28 -16.72 11.28 -16.83 11.28 -17 C 11.28 -18.37 10.12 -19.3 8.86 -19.3 L 6.6 -19.3 C 6.54 -21.5 6.49 -23.65 6.38 -25.85 C 7.42 -25.91 8.47 -25.91 9.52 -25.91 C 10.84 -25.91 12.15 -25.91 13.47 -25.8 L 13.7 -25.8 L 13.92 -25.91 C 14.69 -26.46 15.51 -27.23 15.51 -28.27 C 15.51 -29.75 13.75 -30.14 12.6 -30.25 C 12.71 -30.52 12.76 -30.75 12.76 -31.02 C 12.76 -33 9.52 -33.11 8.14 -33.11 Z M 6.93 -15.4 C 6.05 -15.4 5.22 -15.46 4.79 -15.46 C 4.46 -15.46 4.13 -15.56 3.85 -15.56 C 3.58 -15.56 3.3 -15.46 3.08 -14.96 C 3.25 -11.17 3.41 -7.7 3.46 -3.52 C 3.41 -3.25 4.24 -3.14 5.33 -3.14 C 6.99 -3.14 9.35 -3.35 10.84 -3.41 C 11.82 -2.97 12.27 -2.48 12.27 -1.76 C 12.27 -0.39 10.45 -0.11 8.8 -0.11 C 7.75 -0.11 6.76 -0.22 6.27 -0.22 C 5.12 -0.22 4.01 0 2.86 0 C -0.82 0 -0.33 -5.17 -0.33 -7.7 C -0.33 -14.79 -0.55 -21.89 -0.55 -28.98 C -0.55 -30.58 -0.66 -31.46 0.82 -32.4 L 6.71 -32.4 C 6.99 -32.4 7.54 -32.45 8.14 -32.45 C 9.79 -32.45 12.1 -32.23 12.1 -31.02 C 12.1 -30.36 11.66 -29.81 10.78 -29.21 C 9.13 -29.32 7.87 -29.32 6.76 -29.32 C 5.78 -29.32 4.79 -29.32 2.92 -29.21 C 3.14 -25.68 3.19 -22.11 3.19 -18.59 C 3.52 -18.59 3.79 -18.64 4.13 -18.64 L 8.86 -18.64 C 9.85 -18.64 10.62 -17.93 10.62 -17 C 10.62 -15.62 8.63 -15.4 6.93 -15.4 Z M 22.93 -33.33 C 21.67 -33.33 20.02 -32.73 19.96 -30.86 C 19.96 -30.2 19.96 -29.48 19.96 -28.82 C 19.96 -21.45 19.58 -14.08 19.58 -6.71 C 19.58 -5.39 19.8 -4.01 19.8 -2.69 C 19.8 -0.44 20.02 0.66 22.55 0.66 C 22.55 2.25 23.1 3.41 24.91 3.41 C 27.06 3.41 27.55 1.76 27.55 0.28 C 27.55 -1.21 27.34 -2.64 27.34 -4.13 L 27.34 -6.93 C 27.34 -8.63 27.34 -10.39 27.45 -12.1 C 28.93 -12.1 33.44 -12.27 33.44 -14.24 C 33.44 -15.35 32.73 -16.5 31.35 -16.45 L 30.58 -16.45 C 30.63 -16.61 30.69 -16.77 30.69 -17 C 30.69 -18.09 29.98 -19.25 28.6 -19.2 L 27.61 -19.14 C 27.72 -20.57 27.77 -22 27.77 -23.43 C 27.77 -24.36 27.72 -25.3 27.72 -26.23 L 30.14 -26.23 C 30.47 -26.23 30.8 -26.13 31.24 -26.02 C 31.73 -25.85 32.23 -25.74 32.73 -25.74 C 33.83 -25.74 35.2 -26.73 35.2 -28.05 C 35.2 -29.48 33.49 -30.03 32.39 -30.3 C 32.45 -30.47 32.45 -30.64 32.45 -30.8 C 32.45 -32.78 29.04 -33.33 27.61 -33.33 Z M 20.46 -2.69 C 20.46 -4.01 20.24 -5.39 20.24 -6.71 C 20.24 -14.08 20.63 -21.45 20.63 -28.82 L 20.63 -30.86 C 20.79 -32.29 21.78 -32.67 22.93 -32.67 L 27.61 -32.67 C 29.81 -32.67 31.79 -31.79 31.79 -30.8 C 31.79 -29.98 30.85 -29.15 29.98 -29.15 C 29.09 -29.15 28.27 -29.64 27.39 -29.64 L 24.31 -29.64 C 24.31 -28.49 24.36 -27.34 24.36 -26.18 C 24.36 -23.54 24.09 -20.96 24.09 -18.37 L 28.6 -18.54 C 29.48 -18.54 30.03 -17.88 30.03 -17 C 30.03 -15.89 27.66 -15.68 24.09 -15.46 C 23.87 -12.87 23.93 -9.52 23.93 -6.88 C 23.93 -5.39 24.14 -3.96 24.14 -2.48 C 24.14 -0.82 23.54 0 22.16 0 C 20.35 0 20.46 -1.32 20.46 -2.69 Z M 42.52 -33.33 C 41.25 -33.33 39.6 -32.73 39.55 -30.86 C 39.55 -30.2 39.55 -29.48 39.55 -28.82 C 39.55 -21.45 39.16 -14.08 39.16 -6.71 C 39.16 -5.39 39.38 -4.01 39.38 -2.69 C 39.38 -0.44 39.6 0.66 42.13 0.66 C 42.13 2.25 42.68 3.41 44.5 3.41 C 46.64 3.41 47.14 1.76 47.14 0.28 C 47.14 -1.21 46.92 -2.64 46.92 -4.13 L 46.92 -6.93 C 46.92 -8.63 46.92 -10.39 47.03 -12.1 C 48.51 -12.1 53.02 -12.27 53.02 -14.24 C 53.02 -15.35 52.31 -16.5 50.93 -16.45 L 50.16 -16.45 C 50.22 -16.61 50.27 -16.77 50.27 -17 C 50.27 -18.09 49.56 -19.25 48.18 -19.2 L 47.19 -19.14 C 47.3 -20.57 47.36 -22 47.36 -23.43 C 47.36 -24.36 47.3 -25.3 47.3 -26.23 L 49.72 -26.23 C 50.05 -26.23 50.38 -26.13 50.82 -26.02 C 51.32 -25.85 51.81 -25.74 52.31 -25.74 C 53.41 -25.74 54.78 -26.73 54.78 -28.05 C 54.78 -29.48 53.08 -30.03 51.98 -30.3 C 52.03 -30.47 52.03 -30.64 52.03 -30.8 C 52.03 -32.78 48.62 -33.33 47.19 -33.33 Z M 40.04 -2.69 C 40.04 -4.01 39.82 -5.39 39.82 -6.71 C 39.82 -14.08 40.21 -21.45 40.21 -28.82 L 40.21 -30.86 C 40.37 -32.29 41.36 -32.67 42.52 -32.67 L 47.19 -32.67 C 49.39 -32.67 51.37 -31.79 51.37 -30.8 C 51.37 -29.98 50.44 -29.15 49.56 -29.15 C 48.68 -29.15 47.85 -29.64 46.97 -29.64 L 43.89 -29.64 C 43.89 -28.49 43.95 -27.34 43.95 -26.18 C 43.95 -23.54 43.67 -20.96 43.67 -18.37 L 48.18 -18.54 C 49.06 -18.54 49.61 -17.88 49.61 -17 C 49.61 -15.89 47.25 -15.68 43.67 -15.46 C 43.45 -12.87 43.51 -9.52 43.51 -6.88 C 43.51 -5.39 43.73 -3.96 43.73 -2.48 C 43.73 -0.82 43.12 0 41.75 0 C 39.93 0 40.04 -1.32 40.04 -2.69 Z M 58.96 -6.16 C 58.96 -5.12 58.85 -4.13 58.85 -3.08 C 58.85 -1.32 59.46 0.66 61.6 0.66 L 61.66 0.66 C 61.88 2.15 62.7 3.41 64.35 3.41 C 65.17 3.41 66.77 2.58 66.77 1.59 L 66.77 -20.13 C 66.77 -22.05 66.55 -23.93 66.55 -25.85 C 66.55 -27.94 66.17 -29.59 63.75 -29.59 C 63.64 -30.91 63.03 -32.34 61.44 -32.34 C 59.4 -32.34 58.74 -30.91 58.74 -29.32 C 58.74 -27.39 58.96 -25.41 58.96 -23.48 Z M 63.36 -1.16 C 62.92 -0.39 62.37 0 61.6 0 C 60.23 0 59.51 -1.1 59.51 -3.08 C 59.51 -4.13 59.62 -5.12 59.62 -6.16 L 59.62 -23.48 C 59.62 -25.46 59.4 -27.39 59.4 -29.32 C 59.4 -30.91 60.06 -31.68 61.44 -31.68 C 62.59 -31.68 63.14 -30.64 63.14 -28.6 C 63.14 -26.73 63.36 -24.8 63.36 -22.88 Z M 78.48 -11.99 C 78.48 -15.79 78.71 -22.16 81.51 -25.14 C 82.06 -25.74 82.61 -26.07 83 -26.07 C 83.49 -26.07 84.37 -25.91 84.76 -25.63 L 84.98 -25.3 C 85.42 -24.48 86.3 -23.65 87.51 -23.65 C 88.66 -23.65 89.98 -24.53 89.98 -25.96 C 89.98 -27.5 88.66 -28.6 87.18 -29.32 C 86.57 -31.84 82.23 -33.05 80.63 -33.05 C 72.05 -33.05 70.73 -20.46 70.73 -15.07 C 70.73 -10.56 71.56 -3.19 76.18 -0.44 C 77.61 1.81 79.75 3.41 83.05 3.41 L 84.43 3.41 C 88.28 3.41 90.64 0.82 90.64 -2.92 C 90.64 -4.73 89.81 -6 87.89 -6 C 87.78 -7.26 87.12 -8.74 85.31 -8.74 C 83.38 -8.74 83.05 -7.21 82.94 -6.11 C 82.89 -5.55 82.89 -5 82.83 -4.51 C 82.78 -3.96 82.61 -3.74 82.56 -3.69 C 82.28 -3.58 81.84 -3.58 81.56 -3.58 C 80.85 -3.58 80.19 -3.69 79.64 -3.9 C 78.54 -6.27 78.48 -9.4 78.48 -11.99 Z M 82.78 -28.38 C 82.78 -28.98 81.23 -29.48 80.25 -29.48 C 79.2 -29.48 77.77 -28.16 76.89 -26.34 C 75.73 -23.93 75.08 -19.8 75.08 -14.74 C 75.08 -10.01 75.35 -2.92 81.56 -2.92 C 81.79 -2.92 82.06 -2.92 82.34 -2.97 C 84.65 -2.97 82.28 -8.09 85.31 -8.09 C 86.52 -8.09 87.23 -7.21 87.23 -5.67 C 87.23 -2.2 85.09 0 81.68 0 L 80.3 0 C 72.66 0 71.39 -9.4 71.39 -15.07 C 71.39 -25.63 74.97 -32.4 80.63 -32.4 C 83.38 -32.4 86.57 -30.41 86.57 -28.71 C 86.57 -27.83 85.75 -27.06 84.76 -27.06 C 83.98 -27.06 83.27 -27.55 82.78 -28.38 Z M 94.77 -6.16 C 94.77 -5.12 94.66 -4.13 94.66 -3.08 C 94.66 -1.32 95.26 0.66 97.41 0.66 L 97.46 0.66 C 97.68 2.15 98.51 3.41 100.16 3.41 C 100.98 3.41 102.58 2.58 102.58 1.59 L 102.58 -20.13 C 102.58 -22.05 102.36 -23.93 102.36 -25.85 C 102.36 -27.94 101.97 -29.59 99.55 -29.59 C 99.44 -30.91 98.84 -32.34 97.24 -32.34 C 95.21 -32.34 94.55 -30.91 94.55 -29.32 C 94.55 -27.39 94.77 -25.41 94.77 -23.48 Z M 99.17 -1.16 C 98.73 -0.39 98.18 0 97.41 0 C 96.03 0 95.32 -1.1 95.32 -3.08 C 95.32 -4.13 95.43 -5.12 95.43 -6.16 L 95.43 -23.48 C 95.43 -25.46 95.21 -27.39 95.21 -29.32 C 95.21 -30.91 95.87 -31.68 97.24 -31.68 C 98.4 -31.68 98.95 -30.64 98.95 -28.6 C 98.95 -26.73 99.17 -24.8 99.17 -22.88 Z M 126.06 -15.46 C 126.06 -18.64 126.06 -22.05 125.07 -25.08 C 124.41 -27.06 123.26 -28.71 121.44 -29.7 C 120.23 -31.9 118.14 -33.38 114.73 -33.38 C 108.13 -33.38 107.2 -28.88 106.7 -23.32 C 106.43 -20.35 106.48 -17.21 106.48 -15.46 C 106.48 -14.24 106.43 -12.65 106.48 -10.95 C 106.7 -7.21 107.31 -1.81 111.05 0.06 C 112.15 1.98 113.91 3.41 116.71 3.41 C 125.73 3.41 126.06 -9.02 126.06 -15.46 Z M 113.96 0 C 109.51 0 107.14 -4.18 107.14 -12.04 C 107.14 -15.84 106.81 -27.94 109.23 -30.52 C 110.17 -32.06 112.86 -32.73 114.73 -32.73 C 121.33 -32.73 122.65 -26.23 122.65 -21.07 C 122.65 -14.9 123.37 0 113.96 0 Z M 110.83 -16.23 C 110.83 -13.75 110.06 -2.97 113.74 -2.97 C 114.62 -2.97 115.94 -3.69 116.77 -4.73 C 118.64 -6.88 118.91 -18.86 118.91 -22.33 C 118.91 -27.11 117.65 -29.48 114.29 -29.59 C 110.39 -28.93 110.83 -24.25 110.83 -16.23 Z M 114.24 -17.55 C 114.24 -18.81 114.13 -20.73 114.4 -22.5 C 114.68 -24.09 115.12 -25.57 116.77 -26.13 C 116.88 -26.13 116.99 -26.18 117.04 -26.18 C 117.32 -26.18 117.59 -26.18 117.81 -26.13 C 118.14 -25.02 118.25 -23.71 118.25 -22.33 C 118.25 -19.2 117.98 -7.15 116.27 -5.17 C 115.83 -4.62 115.23 -4.13 114.62 -3.85 C 114.18 -5.72 114.18 -7.7 114.18 -9.63 C 114.18 -10.89 114.24 -12.21 114.24 -13.47 Z" stroke-linecap="round" style="stroke: none; stroke-width: 1; stroke-dasharray: none; stroke-linecap: butt; stroke-dashoffset: 0; stroke-linejoin: miter; stroke-miterlimit: 4; fill: rgb(51, 51, 51); fill-rule: nonzero; opacity: 1;"></path></g><g transform="matrix(1 0 0 1 0 54.59)"><path vector-effect="non-scaling-stroke" transform=" translate(-64.03, 2.59)" d="M 0.94 -6.82 L 0.94 0 L 4.97 0 L 4.97 -0.74 L 1.8 -0.74 L 1.8 -3.21 L 4.39 -3.21 L 4.39 -3.95 L 1.8 -3.95 L 1.8 -6.09 L 4.87 -6.09 L 4.87 -6.82 Z M 4.9 -6.82 L 4.9 0 L 5.77 0 L 5.77 -3.06 L 8.37 -3.06 L 8.37 -3.78 L 5.77 -3.78 L 5.77 -6.09 L 8.83 -6.09 L 8.83 -6.82 Z M 8.53 -6.82 L 8.53 0 L 9.39 0 L 9.39 -3.06 L 11.99 -3.06 L 11.99 -3.78 L 9.39 -3.78 L 9.39 -6.09 L 12.46 -6.09 L 12.46 -6.82 Z M 12.16 -6.82 L 12.16 0 L 13.02 0 L 13.02 -6.82 Z M 12.98 -3.41 C 12.98 -2.86 13.06 -2.36 13.21 -1.92 C 13.36 -1.48 13.56 -1.11 13.83 -0.81 C 14.1 -0.5 14.41 -0.27 14.78 -0.11 C 15.14 0.05 15.54 0.12 15.97 0.12 C 16.4 0.12 16.79 0.04 17.13 -0.14 C 17.47 -0.31 17.78 -0.55 18.05 -0.86 L 17.56 -1.39 C 17.34 -1.15 17.1 -0.96 16.86 -0.83 C 16.61 -0.7 16.32 -0.63 15.99 -0.63 C 15.66 -0.63 15.37 -0.7 15.11 -0.83 C 14.85 -0.96 14.63 -1.15 14.45 -1.39 C 14.27 -1.64 14.13 -1.93 14.03 -2.27 C 13.93 -2.61 13.88 -3 13.88 -3.43 C 13.88 -3.85 13.93 -4.24 14.03 -4.57 C 14.14 -4.91 14.28 -5.2 14.47 -5.44 C 14.66 -5.68 14.88 -5.87 15.15 -5.99 C 15.41 -6.12 15.7 -6.19 16.03 -6.19 C 16.32 -6.19 16.58 -6.13 16.79 -6.01 C 17.01 -5.9 17.21 -5.75 17.39 -5.55 L 17.88 -6.1 C 17.68 -6.33 17.42 -6.52 17.11 -6.69 C 16.8 -6.86 16.44 -6.95 16.02 -6.95 C 15.58 -6.95 15.18 -6.86 14.81 -6.7 C 14.44 -6.54 14.12 -6.3 13.85 -6 C 13.58 -5.69 13.37 -5.32 13.21 -4.89 C 13.06 -4.45 12.98 -3.96 12.98 -3.41 Z M 17.81 -6.82 L 17.81 0 L 18.67 0 L 18.67 -6.82 Z M 19.03 -6.82 L 19.03 0 L 23.06 0 L 23.06 -0.74 L 19.89 -0.74 L 19.89 -3.21 L 22.48 -3.21 L 22.48 -3.95 L 19.89 -3.95 L 19.89 -6.09 L 22.96 -6.09 L 22.96 -6.82 Z M 23 -6.82 L 23 0 L 23.82 0 L 23.82 -3.57 C 23.82 -3.93 23.81 -4.29 23.78 -4.64 C 23.76 -5 23.73 -5.35 23.7 -5.7 L 23.75 -5.7 L 24.48 -4.29 L 26.96 0 L 27.85 0 L 27.85 -6.82 L 27.03 -6.82 L 27.03 -3.3 C 27.03 -2.94 27.04 -2.57 27.07 -2.2 C 27.09 -1.83 27.11 -1.47 27.14 -1.12 L 27.09 -1.12 L 26.36 -2.54 L 23.89 -6.82 Z M 29.63 -6.09 L 29.63 0 L 30.5 0 L 30.5 -6.09 L 32.56 -6.09 L 32.56 -6.82 L 27.57 -6.82 L 27.57 -6.09 Z M 32.87 -6.82 L 32.87 0 L 33.73 0 L 33.73 -2.7 L 34.95 -2.7 C 35.33 -2.7 35.67 -2.75 35.98 -2.83 C 36.29 -2.92 36.55 -3.05 36.77 -3.22 C 37 -3.4 37.17 -3.61 37.29 -3.88 C 37.41 -4.14 37.47 -4.45 37.47 -4.81 C 37.47 -5.19 37.41 -5.5 37.29 -5.76 C 37.17 -6.02 37 -6.22 36.78 -6.38 C 36.56 -6.53 36.3 -6.65 35.98 -6.72 C 35.67 -6.79 35.33 -6.82 34.95 -6.82 Z M 34.85 -3.41 L 33.73 -3.41 L 33.73 -6.12 L 34.85 -6.12 C 35.44 -6.12 35.88 -6.03 36.17 -5.84 C 36.46 -5.65 36.61 -5.31 36.61 -4.81 C 36.61 -4.33 36.46 -3.97 36.18 -3.75 C 35.89 -3.52 35.45 -3.41 34.85 -3.41 Z M 38.21 -3.59 L 38.21 -6.12 L 39.35 -6.12 C 39.88 -6.12 40.29 -6.03 40.58 -5.85 C 40.86 -5.67 41 -5.36 41 -4.91 C 41 -4.46 40.86 -4.13 40.58 -3.91 C 40.29 -3.7 39.88 -3.59 39.35 -3.59 Z M 41.09 0 L 42.06 0 L 40.34 -2.97 C 40.8 -3.09 41.17 -3.31 41.45 -3.63 C 41.73 -3.95 41.87 -4.37 41.87 -4.91 C 41.87 -5.26 41.81 -5.56 41.69 -5.8 C 41.57 -6.04 41.41 -6.24 41.2 -6.39 C 40.98 -6.55 40.73 -6.66 40.44 -6.72 C 40.14 -6.79 39.82 -6.82 39.47 -6.82 L 37.34 -6.82 L 37.34 0 L 38.21 0 L 38.21 -2.88 L 39.44 -2.88 Z M 44.39 0.12 C 44.82 0.12 45.21 0.04 45.57 -0.12 C 45.93 -0.29 46.23 -0.53 46.49 -0.84 C 46.75 -1.15 46.96 -1.52 47.1 -1.96 C 47.24 -2.4 47.31 -2.89 47.31 -3.44 C 47.31 -3.98 47.24 -4.47 47.1 -4.9 C 46.96 -5.34 46.75 -5.7 46.49 -6 C 46.23 -6.31 45.93 -6.54 45.57 -6.7 C 45.21 -6.86 44.82 -6.95 44.39 -6.95 C 43.96 -6.95 43.57 -6.87 43.21 -6.71 C 42.85 -6.55 42.55 -6.32 42.29 -6.01 C 42.03 -5.71 41.83 -5.35 41.69 -4.91 C 41.55 -4.48 41.48 -3.99 41.48 -3.44 C 41.48 -2.89 41.55 -2.4 41.69 -1.96 C 41.83 -1.52 42.03 -1.15 42.29 -0.84 C 42.55 -0.53 42.85 -0.29 43.21 -0.12 C 43.57 0.04 43.96 0.12 44.39 0.12 Z M 44.39 -0.63 C 44.08 -0.63 43.81 -0.7 43.56 -0.83 C 43.32 -0.96 43.11 -1.15 42.93 -1.4 C 42.75 -1.64 42.61 -1.94 42.52 -2.28 C 42.42 -2.63 42.37 -3.01 42.37 -3.44 C 42.37 -3.86 42.42 -4.25 42.52 -4.59 C 42.61 -4.92 42.75 -5.21 42.93 -5.45 C 43.11 -5.68 43.32 -5.87 43.56 -5.99 C 43.81 -6.12 44.08 -6.19 44.39 -6.19 C 44.69 -6.19 44.97 -6.12 45.22 -5.99 C 45.46 -5.87 45.67 -5.68 45.85 -5.45 C 46.03 -5.21 46.16 -4.92 46.26 -4.59 C 46.36 -4.25 46.41 -3.86 46.41 -3.44 C 46.41 -3.01 46.36 -2.63 46.26 -2.28 C 46.16 -1.94 46.03 -1.64 45.85 -1.4 C 45.67 -1.15 45.46 -0.96 45.22 -0.83 C 44.97 -0.7 44.69 -0.63 44.39 -0.63 Z M 47.27 -6.82 L 47.27 0 L 49.01 0 C 49.53 0 49.98 -0.08 50.38 -0.23 C 50.77 -0.39 51.1 -0.62 51.37 -0.91 C 51.64 -1.2 51.85 -1.56 51.99 -1.99 C 52.13 -2.42 52.19 -2.9 52.19 -3.44 C 52.19 -4.53 51.92 -5.37 51.37 -5.95 C 50.83 -6.53 50.02 -6.82 48.97 -6.82 Z M 48.91 -0.71 L 48.13 -0.71 L 48.13 -6.11 L 48.91 -6.11 C 49.71 -6.11 50.3 -5.88 50.7 -5.43 C 51.1 -4.97 51.3 -4.31 51.3 -3.44 C 51.3 -2.58 51.1 -1.9 50.7 -1.42 C 50.3 -0.95 49.71 -0.71 48.91 -0.71 Z M 52.12 -6.82 L 52.12 -2.82 C 52.12 -2.27 52.18 -1.81 52.31 -1.43 C 52.43 -1.06 52.6 -0.76 52.82 -0.53 C 53.04 -0.29 53.3 -0.13 53.6 -0.03 C 53.9 0.07 54.23 0.12 54.57 0.12 C 54.92 0.12 55.24 0.07 55.54 -0.03 C 55.84 -0.13 56.1 -0.29 56.31 -0.53 C 56.53 -0.76 56.7 -1.06 56.83 -1.43 C 56.95 -1.81 57.02 -2.27 57.02 -2.82 L 57.02 -6.82 L 56.18 -6.82 L 56.18 -2.8 C 56.18 -2.39 56.14 -2.04 56.06 -1.77 C 55.98 -1.49 55.86 -1.27 55.72 -1.1 C 55.57 -0.94 55.4 -0.82 55.21 -0.74 C 55.01 -0.67 54.8 -0.63 54.57 -0.63 C 54.35 -0.63 54.14 -0.67 53.95 -0.74 C 53.75 -0.82 53.59 -0.94 53.44 -1.1 C 53.3 -1.27 53.19 -1.49 53.11 -1.77 C 53.02 -2.04 52.98 -2.39 52.98 -2.8 L 52.98 -6.82 Z M 56.95 -3.41 C 56.95 -2.86 57.02 -2.36 57.17 -1.92 C 57.32 -1.48 57.53 -1.11 57.8 -0.81 C 58.06 -0.5 58.38 -0.27 58.74 -0.11 C 59.11 0.05 59.5 0.12 59.93 0.12 C 60.37 0.12 60.76 0.04 61.1 -0.14 C 61.44 -0.31 61.74 -0.55 62.01 -0.86 L 61.52 -1.39 C 61.3 -1.15 61.07 -0.96 60.82 -0.83 C 60.58 -0.7 60.29 -0.63 59.95 -0.63 C 59.63 -0.63 59.34 -0.7 59.08 -0.83 C 58.82 -0.96 58.6 -1.15 58.42 -1.39 C 58.24 -1.64 58.1 -1.93 58 -2.27 C 57.89 -2.61 57.84 -3 57.84 -3.43 C 57.84 -3.85 57.9 -4.24 58 -4.57 C 58.1 -4.91 58.25 -5.2 58.44 -5.44 C 58.62 -5.68 58.85 -5.87 59.11 -5.99 C 59.38 -6.12 59.67 -6.19 60 -6.19 C 60.29 -6.19 60.54 -6.13 60.76 -6.01 C 60.98 -5.9 61.18 -5.75 61.36 -5.55 L 61.85 -6.1 C 61.65 -6.33 61.39 -6.52 61.08 -6.69 C 60.77 -6.86 60.4 -6.95 59.99 -6.95 C 59.55 -6.95 59.15 -6.86 58.77 -6.7 C 58.4 -6.54 58.08 -6.3 57.81 -6 C 57.54 -5.69 57.33 -5.32 57.18 -4.89 C 57.03 -4.45 56.95 -3.96 56.95 -3.41 Z M 63 -6.09 L 63 0 L 63.87 0 L 63.87 -6.09 L 65.93 -6.09 L 65.93 -6.82 L 60.94 -6.82 L 60.94 -6.09 Z M 65.65 -6.82 L 65.65 0 L 66.51 0 L 66.51 -6.82 Z M 65.93 -6.82 L 68.12 0 L 69.13 0 L 71.29 -6.82 L 70.41 -6.82 L 69.31 -3.14 C 69.2 -2.73 69.09 -2.35 68.99 -2.01 C 68.89 -1.66 68.78 -1.29 68.66 -0.88 L 68.62 -0.88 C 68.49 -1.29 68.37 -1.66 68.28 -2.01 C 68.19 -2.35 68.08 -2.73 67.95 -3.14 L 66.86 -6.82 Z M 70.71 -6.82 L 70.71 0 L 71.58 0 L 71.58 -6.82 Z M 73.35 -6.09 L 73.35 0 L 74.22 0 L 74.22 -6.09 L 76.28 -6.09 L 76.28 -6.82 L 71.29 -6.82 L 71.29 -6.09 Z M 76.96 -2.64 L 76.96 0 L 77.83 0 L 77.83 -2.64 L 79.88 -6.82 L 78.97 -6.82 L 78.1 -4.9 C 78 -4.65 77.88 -4.4 77.77 -4.16 C 77.65 -3.92 77.53 -3.67 77.41 -3.41 L 77.37 -3.41 C 77.25 -3.67 77.14 -3.92 77.04 -4.16 C 76.94 -4.4 76.83 -4.65 76.72 -4.9 L 75.83 -6.82 L 74.91 -6.82 Z M 77.9 1.27 L 78.11 1.77 C 78.53 1.59 78.86 1.33 79.11 1 C 79.35 0.67 79.47 0.27 79.47 -0.18 C 79.47 -0.49 79.4 -0.73 79.28 -0.91 C 79.15 -1.1 78.97 -1.19 78.75 -1.19 C 78.58 -1.19 78.43 -1.13 78.3 -1.02 C 78.18 -0.92 78.12 -0.77 78.12 -0.58 C 78.12 -0.39 78.18 -0.24 78.3 -0.14 C 78.42 -0.04 78.56 0.01 78.73 0.01 C 78.78 0.01 78.81 0.01 78.83 0 C 78.83 0.28 78.75 0.53 78.59 0.75 C 78.42 0.96 78.19 1.14 77.9 1.27 Z M 80.01 -6.82 L 80.01 0 L 84.05 0 L 84.05 -0.74 L 80.88 -0.74 L 80.88 -3.21 L 83.47 -3.21 L 83.47 -3.95 L 80.88 -3.95 L 80.88 -6.09 L 83.94 -6.09 L 83.94 -6.82 Z M 83.98 -6.82 L 83.98 0 L 84.85 0 L 84.85 -3.06 L 87.44 -3.06 L 87.44 -3.78 L 84.85 -3.78 L 84.85 -6.09 L 87.91 -6.09 L 87.91 -6.82 Z M 87.61 -6.82 L 87.61 0 L 88.47 0 L 88.47 -3.06 L 91.07 -3.06 L 91.07 -3.78 L 88.47 -3.78 L 88.47 -6.09 L 91.54 -6.09 L 91.54 -6.82 Z M 93.65 0.12 C 94.08 0.12 94.47 0.04 94.83 -0.12 C 95.18 -0.29 95.49 -0.53 95.75 -0.84 C 96.01 -1.15 96.21 -1.52 96.35 -1.96 C 96.5 -2.4 96.57 -2.89 96.57 -3.44 C 96.57 -3.98 96.5 -4.47 96.35 -4.9 C 96.21 -5.34 96.01 -5.7 95.75 -6 C 95.49 -6.31 95.18 -6.54 94.83 -6.7 C 94.47 -6.86 94.08 -6.95 93.65 -6.95 C 93.22 -6.95 92.82 -6.87 92.47 -6.71 C 92.11 -6.55 91.8 -6.32 91.55 -6.01 C 91.29 -5.71 91.09 -5.35 90.95 -4.91 C 90.81 -4.48 90.73 -3.99 90.73 -3.44 C 90.73 -2.89 90.81 -2.4 90.95 -1.96 C 91.09 -1.52 91.29 -1.15 91.55 -0.84 C 91.8 -0.53 92.11 -0.29 92.47 -0.12 C 92.82 0.04 93.22 0.12 93.65 0.12 Z M 93.65 -0.63 C 93.34 -0.63 93.06 -0.7 92.82 -0.83 C 92.57 -0.96 92.36 -1.15 92.18 -1.4 C 92.01 -1.64 91.87 -1.94 91.77 -2.28 C 91.68 -2.63 91.63 -3.01 91.63 -3.44 C 91.63 -3.86 91.68 -4.25 91.77 -4.59 C 91.87 -4.92 92.01 -5.21 92.18 -5.45 C 92.36 -5.68 92.57 -5.87 92.82 -5.99 C 93.06 -6.12 93.34 -6.19 93.65 -6.19 C 93.95 -6.19 94.23 -6.12 94.47 -5.99 C 94.72 -5.87 94.93 -5.68 95.11 -5.45 C 95.28 -5.21 95.42 -4.92 95.52 -4.59 C 95.61 -4.25 95.66 -3.86 95.66 -3.44 C 95.66 -3.01 95.61 -2.63 95.52 -2.28 C 95.42 -1.94 95.28 -1.64 95.11 -1.4 C 94.93 -1.15 94.72 -0.96 94.47 -0.83 C 94.23 -0.7 93.95 -0.63 93.65 -0.63 Z M 97.39 -3.59 L 97.39 -6.12 L 98.53 -6.12 C 99.06 -6.12 99.47 -6.03 99.76 -5.85 C 100.04 -5.67 100.18 -5.36 100.18 -4.91 C 100.18 -4.46 100.04 -4.13 99.76 -3.91 C 99.47 -3.7 99.06 -3.59 98.53 -3.59 Z M 100.27 0 L 101.24 0 L 99.52 -2.97 C 99.98 -3.09 100.35 -3.31 100.63 -3.63 C 100.91 -3.95 101.05 -4.37 101.05 -4.91 C 101.05 -5.26 100.99 -5.56 100.87 -5.8 C 100.75 -6.04 100.59 -6.24 100.37 -6.39 C 100.16 -6.55 99.91 -6.66 99.62 -6.72 C 99.32 -6.79 99 -6.82 98.65 -6.82 L 96.52 -6.82 L 96.52 0 L 97.39 0 L 97.39 -2.88 L 98.62 -2.88 Z M 102.26 -6.09 L 102.26 0 L 103.13 0 L 103.13 -6.09 L 105.19 -6.09 L 105.19 -6.82 L 100.2 -6.82 L 100.2 -6.09 Z M 104.91 -6.82 L 104.91 0 L 108.75 0 L 108.75 -0.74 L 105.77 -0.74 L 105.77 -6.82 Z M 108.45 -6.82 L 108.45 0 L 112.48 0 L 112.48 -0.74 L 109.31 -0.74 L 109.31 -3.21 L 111.9 -3.21 L 111.9 -3.95 L 109.31 -3.95 L 109.31 -6.09 L 112.38 -6.09 L 112.38 -6.82 Z M 112.44 -1.49 L 111.92 -0.88 C 112.22 -0.57 112.57 -0.33 112.98 -0.15 C 113.39 0.03 113.83 0.12 114.31 0.12 C 114.67 0.12 114.99 0.07 115.28 -0.03 C 115.56 -0.13 115.8 -0.27 116 -0.44 C 116.21 -0.62 116.36 -0.82 116.47 -1.06 C 116.57 -1.3 116.63 -1.55 116.63 -1.82 C 116.63 -2.07 116.59 -2.29 116.52 -2.48 C 116.45 -2.67 116.35 -2.84 116.22 -2.98 C 116.1 -3.12 115.95 -3.25 115.78 -3.35 C 115.6 -3.46 115.42 -3.56 115.22 -3.64 L 114.26 -4.05 C 114.12 -4.11 113.98 -4.17 113.85 -4.24 C 113.72 -4.3 113.6 -4.38 113.49 -4.47 C 113.38 -4.55 113.29 -4.65 113.22 -4.77 C 113.16 -4.88 113.12 -5.02 113.12 -5.19 C 113.12 -5.5 113.24 -5.74 113.47 -5.92 C 113.7 -6.1 114.01 -6.19 114.39 -6.19 C 114.71 -6.19 115 -6.13 115.25 -6.01 C 115.5 -5.9 115.73 -5.74 115.94 -5.54 L 116.41 -6.1 C 116.17 -6.35 115.87 -6.56 115.53 -6.71 C 115.18 -6.87 114.8 -6.95 114.39 -6.95 C 114.08 -6.95 113.8 -6.9 113.54 -6.81 C 113.28 -6.72 113.05 -6.59 112.86 -6.43 C 112.67 -6.27 112.52 -6.08 112.41 -5.85 C 112.3 -5.63 112.25 -5.39 112.25 -5.14 C 112.25 -4.89 112.29 -4.67 112.38 -4.48 C 112.46 -4.29 112.57 -4.12 112.7 -3.98 C 112.83 -3.84 112.98 -3.73 113.15 -3.63 C 113.31 -3.53 113.47 -3.45 113.63 -3.38 L 114.61 -2.95 C 114.77 -2.88 114.92 -2.8 115.06 -2.73 C 115.2 -2.67 115.32 -2.59 115.42 -2.5 C 115.52 -2.41 115.6 -2.31 115.66 -2.19 C 115.72 -2.07 115.74 -1.92 115.74 -1.75 C 115.74 -1.41 115.62 -1.15 115.37 -0.94 C 115.12 -0.74 114.77 -0.63 114.32 -0.63 C 113.97 -0.63 113.63 -0.71 113.3 -0.87 C 112.97 -1.02 112.68 -1.23 112.44 -1.49 Z M 116.33 -1.49 L 115.81 -0.88 C 116.11 -0.57 116.47 -0.33 116.87 -0.15 C 117.28 0.03 117.73 0.12 118.21 0.12 C 118.57 0.12 118.89 0.07 119.17 -0.03 C 119.46 -0.13 119.7 -0.27 119.9 -0.44 C 120.1 -0.62 120.26 -0.82 120.36 -1.06 C 120.47 -1.3 120.52 -1.55 120.52 -1.82 C 120.52 -2.07 120.49 -2.29 120.41 -2.48 C 120.34 -2.67 120.24 -2.84 120.12 -2.98 C 119.99 -3.12 119.84 -3.25 119.67 -3.35 C 119.5 -3.46 119.31 -3.56 119.12 -3.64 L 118.15 -4.05 C 118.01 -4.11 117.88 -4.17 117.75 -4.24 C 117.62 -4.3 117.49 -4.38 117.38 -4.47 C 117.27 -4.55 117.18 -4.65 117.12 -4.77 C 117.05 -4.88 117.02 -5.02 117.02 -5.19 C 117.02 -5.5 117.14 -5.74 117.37 -5.92 C 117.6 -6.1 117.91 -6.19 118.29 -6.19 C 118.61 -6.19 118.89 -6.13 119.15 -6.01 C 119.4 -5.9 119.63 -5.74 119.84 -5.54 L 120.31 -6.1 C 120.06 -6.35 119.77 -6.56 119.42 -6.71 C 119.08 -6.87 118.7 -6.95 118.29 -6.95 C 117.98 -6.95 117.69 -6.9 117.43 -6.81 C 117.17 -6.72 116.95 -6.59 116.76 -6.43 C 116.56 -6.27 116.42 -6.08 116.31 -5.85 C 116.2 -5.63 116.15 -5.39 116.15 -5.14 C 116.15 -4.89 116.19 -4.67 116.27 -4.48 C 116.35 -4.29 116.46 -4.12 116.59 -3.98 C 116.73 -3.84 116.87 -3.73 117.04 -3.63 C 117.21 -3.53 117.37 -3.45 117.53 -3.38 L 118.51 -2.95 C 118.67 -2.88 118.82 -2.8 118.95 -2.73 C 119.09 -2.67 119.21 -2.59 119.31 -2.5 C 119.41 -2.41 119.49 -2.31 119.55 -2.19 C 119.61 -2.07 119.64 -1.92 119.64 -1.75 C 119.64 -1.41 119.52 -1.15 119.27 -0.94 C 119.02 -0.74 118.67 -0.63 118.22 -0.63 C 117.86 -0.63 117.52 -0.71 117.19 -0.87 C 116.86 -1.02 116.58 -1.23 116.33 -1.49 Z M 120.35 -6.82 L 120.35 0 L 124.2 0 L 124.2 -0.74 L 121.22 -0.74 L 121.22 -6.82 Z M 124.21 -2.64 L 124.21 0 L 125.08 0 L 125.08 -2.64 L 127.13 -6.82 L 126.23 -6.82 L 125.35 -4.9 C 125.25 -4.65 125.14 -4.4 125.02 -4.16 C 124.9 -3.92 124.78 -3.67 124.67 -3.41 L 124.62 -3.41 C 124.51 -3.67 124.4 -3.92 124.29 -4.16 C 124.19 -4.4 124.08 -4.65 123.97 -4.9 L 123.09 -6.82 L 122.16 -6.82 Z" stroke-linecap="round" style="stroke: none; stroke-width: 1; stroke-dasharray: none; stroke-linecap: butt; stroke-dashoffset: 0; stroke-linejoin: miter; stroke-miterlimit: 4; fill: rgb(51, 51, 51); fill-rule: nonzero; opacity: 1;"></path></g></g></g></g>
</svg>
