

<svg fill="#000000" width='80px' viewBox="0 0 512 512" xmlns="http://www.w3.org/2000/svg"><circle cx="184.31" cy="351.26" r="32.67" transform="translate(-74.8 50.9) rotate(-13.1)" style="fill:#1E2749"></circle><path d="M199.57,350.15l9.36-9.36,7.93,7.94-6.36,16.11-37.16,15-1.72-1.73,23-23a3.51,3.51,0,0,0,4.91-4.91Zm-30.63,25.27,1.72,1.72,23.08-23.08a3.51,3.51,0,0,1,4.83-4.83l9.4-9.4L200,331.89l-16.12,6.36Z" style="fill:#fff;stroke:#263238;stroke-linecap:round;stroke-linejoin:round"></path><rect x="200.69" y="332.22" width="23.57" height="7.97" transform="translate(124.99 724.18) rotate(-135)" style="stroke:#263238;stroke-linecap:round;stroke-linejoin:round"></rect><rect x="157.4" y="335.52" width="3.98" height="28.88"></rect><rect x="157.4" y="335.52" width="3.98" height="28.88" transform="translate(509.35 190.57) rotate(90)"></rect></svg>