<svg xmlns="http://www.w3.org/2000/svg" viewBox="0 0 750 500"><g id="freepik--Gears--inject-658"><path d="M385.9,231.55a44.74,44.74,0,0,1,11-4.77l2.26-10.85,18.34-.33,2.64,10.77a45.23,45.23,0,0,1,11.13,4.38l9.27-6.07,13.2,12.74L448,246.89a44.74,44.74,0,0,1,4.77,11l10.85,2.26.32,18.34-10.77,2.64a44.81,44.81,0,0,1-4.37,11.13l6.07,9.27-12.74,13.2L432.61,309a45.05,45.05,0,0,1-11,4.77l-2.26,10.85-18.34.32-2.64-10.77a44.65,44.65,0,0,1-11.13-4.37L378,315.82l-13.2-12.74,5.75-9.48a44.67,44.67,0,0,1-4.77-11l-10.85-2.26L354.61,262l10.77-2.64a45.07,45.07,0,0,1,4.38-11.13L363.69,239l12.74-13.2,9.47,5.75Z" style="fill:#1E2749"></path><rect x="387.65" y="252.83" width="10.08" height="31.47" style="fill:#fff"></rect><rect x="402.7" y="260.02" width="10.08" height="24.28" style="fill:#fff"></rect><rect x="416.62" y="269.88" width="10.08" height="14.42" style="fill:#fff"></rect><path d="M234.86,229.32a45,45,0,0,1,11-4.76l2.26-10.86,18.34-.32,2.64,10.77a44.68,44.68,0,0,1,11.13,4.38l9.27-6.08,13.2,12.74-5.75,9.48a44.74,44.74,0,0,1,4.77,11l10.85,2.26.32,18.34-10.76,2.64A45.23,45.23,0,0,1,297.71,290l6.07,9.27L291,312.47l-9.47-5.74a45.09,45.09,0,0,1-11,4.76l-2.26,10.86-18.34.32-2.64-10.77a45.23,45.23,0,0,1-11.13-4.38L227,313.6l-13.2-12.74,5.75-9.48a44.74,44.74,0,0,1-4.77-11l-10.85-2.26-.32-18.34,10.77-2.64A44.81,44.81,0,0,1,218.71,246l-6.07-9.27,12.74-13.19,9.48,5.74Z" style="fill:#1E2749"></path><path d="M261.13,298.76a31.37,31.37,0,0,1-29.88-22.25.51.51,0,0,1,.34-.62.5.5,0,0,1,.62.33,30.17,30.17,0,1,0-.37-15.91.5.5,0,0,1-1-.24,31.17,31.17,0,1,1,30.26,38.69Z" style="fill:#fff"></path><path d="M261,289.24a21.72,21.72,0,0,1-20.86-15.82.49.49,0,0,1,.34-.61.5.5,0,0,1,.62.34,20.65,20.65,0,1,0,0-11.14.5.5,0,1,1-1-.27A21.66,21.66,0,1,1,261,289.24Z" style="fill:#fff"></path><path d="M261,272.44a5.52,5.52,0,0,1-3.1-.94.52.52,0,0,1-.13-.7.5.5,0,0,1,.69-.13,4.53,4.53,0,1,0,2.54-8.29,4.6,4.6,0,0,0-2.15.54.49.49,0,0,1-.67-.2.5.5,0,0,1,.2-.68,5.53,5.53,0,1,1,2.62,10.4Z" style="fill:#fff"></path><polygon points="261.13 266.72 253.05 262.79 253.2 266.29 231.74 266.8 231.97 268.37 253.47 268.02 253.53 271.58 261.13 266.72" style="fill:#fff"></polygon><path d="M237.64,267.32l-.11-.22a3.48,3.48,0,0,0-3-1.88l-7.11-.27,3.08,2.78-2.73,3.37,6.8-.14a3.48,3.48,0,0,0,3.28-2.54h0Z" style="fill:#fff"></path><path d="M261.13,280.66a13.14,13.14,0,0,1-12.55-9.42.48.48,0,0,1,.34-.61.5.5,0,0,1,.62.34,12.08,12.08,0,1,0,0-6.87.5.5,0,0,1-.62.34.5.5,0,0,1-.34-.63,13.07,13.07,0,1,1,12.52,16.85Z" style="fill:#fff"></path><path d="M535.32,228.48a45.09,45.09,0,0,1,11-4.76l2.26-10.86,18.34-.32,2.64,10.77a44.45,44.45,0,0,1,11.13,4.38l9.27-6.08,13.2,12.74-5.75,9.48a44.74,44.74,0,0,1,4.77,11L613,257.06l.32,18.34L602.55,278a44.74,44.74,0,0,1-4.37,11.12l6.07,9.27-12.74,13.2L582,305.88a44.9,44.9,0,0,1-11,4.77l-2.26,10.86-18.34.32-2.64-10.77a45.07,45.07,0,0,1-11.13-4.38l-9.27,6.08L514.23,300l5.75-9.48a44.74,44.74,0,0,1-4.77-11l-10.85-2.26L504,259l10.76-2.64a45.23,45.23,0,0,1,4.38-11.13l-6.07-9.27,12.74-13.19,9.47,5.74Z" style="fill:#1E2749"></path><polygon points="531.82 268.76 538.85 261.73 552.4 273.78 579.01 248.18 585.54 255.21 551.4 287.34 531.82 268.76" style="fill:#fff"></polygon><path d="M350.17,234.2a1.27,1.27,0,0,1,.12-.32l.4-.9c.18-.41.4-.89.66-1.46a16.22,16.22,0,0,1,1-2l1.32-2.4c.52-.87,1.14-1.76,1.77-2.75s1.42-2,2.21-3a42,42,0,0,1,2.7-3.23c.94-1.14,2.1-2.18,3.22-3.33.56-.59,1.21-1.09,1.83-1.65s1.27-1.12,1.94-1.67l2.11-1.6c.36-.27.71-.55,1.08-.81l1.15-.76c.78-.51,1.55-1,2.36-1.54l2.52-1.43c.83-.51,1.74-.9,2.64-1.34s1.8-.91,2.76-1.26l2.87-1.16,3-1a54.69,54.69,0,0,1,26-1.55l3.1.61,3,.81c1,.24,1.94.61,2.89.92s1.89.62,2.78,1l2.66,1.12c.87.39,1.7.84,2.53,1.24l1.23.62c.4.22.79.46,1.17.68l2.29,1.34c.73.46,1.43,1,2.12,1.43s1.39.91,2,1.42c1.26,1,2.53,1.9,3.59,2.93s2.17,1.9,3.07,2.88,1.83,1.83,2.55,2.75,1.47,1.73,2.08,2.52l1.6,2.23a17.87,17.87,0,0,1,1.21,1.83l.83,1.37c.2.35.37.64.5.85a1.08,1.08,0,0,1,.15.3,2.7,2.7,0,0,1-.2-.27l-.54-.83-.87-1.34a20.45,20.45,0,0,0-1.24-1.8l-1.64-2.19c-.62-.78-1.35-1.58-2.1-2.47s-1.65-1.76-2.57-2.71-2-1.87-3.07-2.85-2.34-1.88-3.59-2.87c-.62-.51-1.32-.93-2-1.41s-1.39-.95-2.12-1.4-1.5-.88-2.28-1.32c-.38-.22-.76-.46-1.16-.67l-1.23-.61c-.83-.4-1.65-.83-2.51-1.22l-2.65-1.11c-.88-.4-1.83-.67-2.76-1s-1.88-.68-2.87-.91l-3-.8-3.08-.6a59.78,59.78,0,0,0-13-.78A58.88,58.88,0,0,0,388,201.12l-3,1-2.86,1.14c-.95.34-1.84.82-2.74,1.24s-1.79.82-2.62,1.32l-2.5,1.41c-.81.49-1.58,1-2.35,1.52l-1.15.75c-.37.25-.72.53-1.08.8l-2.1,1.58c-.67.54-1.3,1.1-1.94,1.64s-1.27,1.05-1.82,1.63c-1.13,1.14-2.29,2.16-3.23,3.29s-1.93,2.11-2.71,3.18-1.61,2-2.23,3-1.27,1.85-1.79,2.7l-1.37,2.37a20.5,20.5,0,0,0-1,1.93l-.71,1.44c-.18.37-.33.66-.44.88A1.52,1.52,0,0,1,350.17,234.2Z" style="fill:#263238"></path><path d="M370.87,201.13a7.89,7.89,0,0,1,1.14-.79c.75-.48,1.87-1.12,3.28-1.84a52.13,52.13,0,0,1,24-5.6c1.59,0,2.88.1,3.76.2a6.72,6.72,0,0,1,1.37.21,8.23,8.23,0,0,1-1.38,0c-.89-.05-2.17-.07-3.75,0a57.31,57.31,0,0,0-23.85,5.56c-1.42.67-2.56,1.26-3.34,1.69A7.21,7.21,0,0,1,370.87,201.13Z" style="fill:#263238"></path><path d="M611.2,302.81a1.69,1.69,0,0,1-.11.32c-.1.22-.24.52-.4.9l-.66,1.46a18.78,18.78,0,0,1-1,2c-.4.72-.84,1.53-1.33,2.4s-1.13,1.76-1.77,2.75-1.41,2-2.21,3-1.73,2.11-2.7,3.23-2.09,2.17-3.22,3.33c-.55.58-1.2,1.09-1.82,1.65s-1.27,1.12-1.94,1.67-1.4,1.06-2.11,1.6c-.36.27-.72.55-1.09.81l-1.15.76c-.77.5-1.55,1-2.36,1.54l-2.51,1.43c-.84.5-1.75.9-2.64,1.34s-1.8.91-2.76,1.26l-2.88,1.15-3,1a54.69,54.69,0,0,1-26,1.55l-3.1-.62-3-.8c-1-.24-1.94-.61-2.89-.93s-1.89-.61-2.78-1l-2.67-1.12c-.86-.4-1.69-.84-2.52-1.25l-1.23-.61c-.41-.22-.79-.46-1.18-.68l-2.28-1.34c-.74-.47-1.43-1-2.13-1.43s-1.39-.91-2-1.43c-1.25-1-2.52-1.89-3.59-2.92s-2.17-1.9-3.06-2.89-1.83-1.82-2.55-2.75-1.47-1.72-2.09-2.51-1.11-1.56-1.6-2.23a17.64,17.64,0,0,1-1.2-1.83c-.33-.53-.6-1-.83-1.37s-.37-.64-.5-.85l-.16-.3s.08.09.21.27.31.48.54.82l.87,1.35a18.46,18.46,0,0,0,1.24,1.79l1.63,2.2c.62.78,1.35,1.58,2.1,2.47s1.66,1.76,2.57,2.71,2,1.87,3.07,2.84,2.34,1.88,3.59,2.88c.62.51,1.32.93,2,1.41s1.38.94,2.12,1.4l2.27,1.32c.39.22.77.46,1.17.67l1.22.61c.83.4,1.66.83,2.51,1.22l2.65,1.1c.89.4,1.83.68,2.77,1s1.88.68,2.87.91l3,.79,3.07.6a54.42,54.42,0,0,0,25.81-1.53l3-1,2.85-1.14c1-.35,1.85-.82,2.74-1.24s1.8-.82,2.63-1.33l2.5-1.41c.81-.48,1.57-1,2.35-1.51l1.14-.75c.37-.25.72-.53,1.08-.8l2.11-1.58c.67-.54,1.3-1.11,1.93-1.64s1.27-1.06,1.83-1.63c1.12-1.14,2.28-2.16,3.22-3.29s1.94-2.11,2.71-3.18,1.62-2,2.23-3,1.28-1.86,1.8-2.71,1-1.65,1.36-2.37a18.55,18.55,0,0,0,1-1.93l.7-1.43.45-.89Z" style="fill:#263238"></path><path d="M590.91,338.92a7.2,7.2,0,0,1-1.14.79,37.47,37.47,0,0,1-3.28,1.84,52.13,52.13,0,0,1-24,5.6,36,36,0,0,1-3.76-.21,6,6,0,0,1-1.36-.2,8.12,8.12,0,0,1,1.38,0c.88.05,2.16.06,3.74,0a57.22,57.22,0,0,0,23.85-5.56c1.43-.68,2.57-1.26,3.34-1.69A7.21,7.21,0,0,1,590.91,338.92Z" style="fill:#263238"></path><path d="M312,300.59a1.31,1.31,0,0,1-.12.31c-.1.23-.23.53-.4.9l-.66,1.47a17.83,17.83,0,0,1-1,2l-1.32,2.4c-.52.86-1.14,1.76-1.77,2.74s-1.42,2-2.21,3-1.73,2.11-2.7,3.22-2.1,2.18-3.22,3.33c-.56.59-1.21,1.1-1.83,1.66s-1.27,1.12-1.94,1.66l-2.11,1.61c-.36.26-.71.55-1.09.81l-1.14.76c-.78.5-1.55,1-2.36,1.53l-2.52,1.43c-.83.51-1.74.9-2.64,1.35s-1.8.9-2.76,1.25l-2.87,1.16-3,1a54.37,54.37,0,0,1-26,1.55l-3.1-.61-3-.81c-1-.23-1.94-.6-2.89-.92s-1.89-.62-2.78-1l-2.66-1.13c-.87-.39-1.7-.83-2.53-1.24l-1.23-.62c-.4-.21-.79-.45-1.17-.68l-2.29-1.34c-.73-.46-1.43-1-2.12-1.42s-1.39-.91-2-1.43c-1.26-1-2.53-1.9-3.6-2.92s-2.16-1.9-3.06-2.89-1.83-1.82-2.55-2.75-1.47-1.72-2.08-2.52l-1.6-2.22a19,19,0,0,1-1.21-1.83l-.83-1.38-.5-.85a1.08,1.08,0,0,1-.15-.3,2.35,2.35,0,0,1,.2.28l.54.82.87,1.34a20.45,20.45,0,0,0,1.24,1.8l1.63,2.19c.63.78,1.36,1.59,2.11,2.48s1.65,1.75,2.57,2.71,2,1.86,3.07,2.84,2.34,1.88,3.59,2.88c.62.51,1.32.93,2,1.4s1.39.95,2.12,1.41l2.27,1.32c.39.22.77.45,1.17.66l1.23.61c.82.4,1.65.84,2.51,1.23l2.65,1.1c.88.4,1.83.68,2.76,1s1.88.67,2.87.9l3,.8,3.08.6a54.39,54.39,0,0,0,25.8-1.53l3-1,2.86-1.14c1-.35,1.84-.83,2.74-1.24s1.79-.83,2.62-1.33l2.5-1.41c.81-.49,1.58-1,2.35-1.51l1.15-.75c.37-.26.72-.54,1.08-.8l2.1-1.58c.67-.54,1.3-1.11,1.94-1.65s1.27-1.05,1.82-1.63c1.13-1.14,2.29-2.15,3.23-3.28s1.93-2.12,2.71-3.19,1.61-2,2.23-3,1.27-1.86,1.79-2.71,1-1.66,1.37-2.37a19.34,19.34,0,0,0,1-1.93l.71-1.44.44-.88C311.91,300.68,312,300.58,312,300.59Z" style="fill:#263238"></path><path d="M291.68,336.7a7.18,7.18,0,0,1-1.13.78c-.75.49-1.87,1.12-3.28,1.85a52.13,52.13,0,0,1-24,5.6c-1.59,0-2.88-.1-3.76-.21a8.28,8.28,0,0,1-1.37-.2,6.18,6.18,0,0,1,1.38,0c.89,0,2.17.06,3.75,0A57.63,57.63,0,0,0,287.1,339c1.43-.68,2.57-1.26,3.35-1.69A6.49,6.49,0,0,1,291.68,336.7Z" style="fill:#263238"></path></g><g id="freepik--Process--inject-658"><path d="M525,178.69H323.32a17.06,17.06,0,0,1-17.06-17.06h0a17.06,17.06,0,0,1,17.06-17.06H525a17.06,17.06,0,0,1,17.06,17.06h0A17.06,17.06,0,0,1,525,178.69Z" style="fill:#fafafa"></path><path d="M525,178.69l1.31-.09a18,18,0,0,0,3.78-.74,17.64,17.64,0,0,0,5.49-3,17.28,17.28,0,0,0,5.08-6.76,18.4,18.4,0,0,0,1.21-4.91,17.69,17.69,0,0,0-.42-5.56A16.84,16.84,0,0,0,527.84,145a53.26,53.26,0,0,0-7.54-.24l-16.47,0-180.49.07a16.81,16.81,0,0,0-12.77,27.72,16.62,16.62,0,0,0,10.65,5.74c2,.23,4.11.12,6.16.15H369.1l81.15.06,54.7.08,14.87,0,3.87,0,1.32,0-1.32,0-3.87,0L505,178.8l-54.7.08-81.15.05H327.38c-2.05,0-4.12.08-6.22-.15a17.31,17.31,0,0,1-9.88-29.6,17.37,17.37,0,0,1,12.06-4.89l180.49.08,16.47,0a52.72,52.72,0,0,1,7.59.27,16.87,16.87,0,0,1,6.63,2.62,17.09,17.09,0,0,1,7.19,10.32,17.87,17.87,0,0,1,.39,5.64,18.39,18.39,0,0,1-1.25,5A17.18,17.18,0,0,1,530.13,178a17,17,0,0,1-3.8.69C525.46,178.69,525,178.69,525,178.69Z" style="fill:#263238"></path><path d="M436.05,174.64H323.42a13,13,0,0,1-13-13h0a13,13,0,0,1,13-13H436.05a13,13,0,0,1,13,13h0A13,13,0,0,1,436.05,174.64Z" style="fill:#1E2749"></path><g style="opacity:0.4"><polygon points="327.18 174.64 343.34 148.63 360.66 148.63 344.83 174.64 327.18 174.64" style="fill:#fff"></polygon></g><g style="opacity:0.4"><polygon points="361.9 174.64 378.07 148.63 395.38 148.63 379.55 174.64 361.9 174.64" style="fill:#fff"></polygon></g><g style="opacity:0.4"><polygon points="399.18 174.64 415.34 148.63 432.66 148.63 416.82 174.64 399.18 174.64" style="fill:#fff"></polygon></g><path d="M397.68,133.68c0,2-1.48,3.2-3.85,3.2h-1.78v2.45H390v-8.86h3.83C396.2,130.47,397.68,131.7,397.68,133.68Zm-2.08,0c0-1-.63-1.54-1.88-1.54h-1.67v3.07h1.67C395,135.21,395.6,134.65,395.6,133.68Z" style="fill:#263238"></path><path d="M404.77,139.33l-1.7-2.47h-1.89v2.47h-2.05v-8.86H403c2.37,0,3.85,1.23,3.85,3.21a2.88,2.88,0,0,1-1.82,2.8l2,2.85Zm-1.92-7.19h-1.67v3.09h1.67c1.25,0,1.88-.58,1.88-1.55S404.1,132.14,402.85,132.14Z" style="fill:#263238"></path><path d="M407.87,134.9a4.85,4.85,0,1,1,4.84,4.58A4.58,4.58,0,0,1,407.87,134.9Zm7.61,0a2.77,2.77,0,1,0-2.77,2.83A2.7,2.7,0,0,0,415.48,134.9Z" style="fill:#263238"></path><path d="M418.54,134.9a4.87,4.87,0,0,1,8.45-3l-1.31,1.21a2.87,2.87,0,0,0-2.23-1,2.84,2.84,0,0,0,0,5.67,2.82,2.82,0,0,0,2.23-1L427,137.9a4.87,4.87,0,0,1-8.45-3Z" style="fill:#263238"></path><path d="M435.23,137.68v1.65h-6.86v-8.86h6.69v1.65h-4.65V134h4.11v1.59h-4.11v2.05Z" style="fill:#263238"></path><path d="M436.16,138.45l.7-1.54a5.22,5.22,0,0,0,2.92.92c1.21,0,1.71-.4,1.71-1,0-1.65-5.15-.51-5.15-3.8,0-1.51,1.21-2.76,3.73-2.76a5.91,5.91,0,0,1,3.07.78l-.63,1.56a5,5,0,0,0-2.45-.7c-1.22,0-1.69.46-1.69,1,0,1.63,5.15.5,5.15,3.75,0,1.48-1.22,2.75-3.75,2.75A6.28,6.28,0,0,1,436.16,138.45Z" style="fill:#263238"></path><path d="M444.23,138.45l.69-1.54a5.25,5.25,0,0,0,2.93.92c1.21,0,1.7-.4,1.7-1,0-1.65-5.14-.51-5.14-3.8,0-1.51,1.21-2.76,3.73-2.76a5.91,5.91,0,0,1,3.07.78l-.63,1.56a5,5,0,0,0-2.46-.7c-1.21,0-1.68.46-1.68,1,0,1.63,5.15.5,5.15,3.75,0,1.48-1.23,2.75-3.76,2.75A6.27,6.27,0,0,1,444.23,138.45Z" style="fill:#263238"></path></g><g id="freepik--Character--inject-658"><path d="M75.36,447.28l9.79-21L108,439.42,96.15,458.64s-9.25,1.64-13.36-.89S75.36,447.28,75.36,447.28Z" style="fill:#ffbe9d"></path><path d="M95,460.59l1.17-1.95a36.43,36.43,0,0,1-20.79-11.36l-7.83,14.4,43.25,23.78C112.8,481.19,95,460.59,95,460.59Z" style="fill:#1E2749"></path><path d="M67.53,461.68l1.91-3.52,40.84,24.17s1.46,1.89.5,3.13Z" style="fill:#263238"></path><path d="M95.81,460.76c-.13.21-1.24-.28-2.65-.17s-2.45.69-2.6.5.84-1.24,2.55-1.34S96,460.59,95.81,460.76Z" style="fill:#263238"></path><path d="M99.31,465.13c-.06.23-1.18.09-2.38.58S95,467,94.78,466.92s.32-1.39,1.84-2S99.42,464.92,99.31,465.13Z" style="fill:#263238"></path><path d="M98.9,472c-.22-.06.07-1.27,1.25-2.13s2.42-.78,2.41-.55-1,.51-1.91,1.22S99.12,472.07,98.9,472Z" style="fill:#263238"></path><path d="M77.78,457.79A1.3,1.3,0,1,1,77.3,456,1.3,1.3,0,0,1,77.78,457.79Z" style="fill:#263238"></path><path d="M178.47,455.85l11.34-23.93,23.1.36-11.84,23.3s-7.64,5.92-12.59,5.58S178.47,455.85,178.47,455.85Z" style="fill:#ffbe9d"></path><path d="M200.94,457.91l.13-2.33c-8.33,2.59-15.19,2.45-23.11-.38h0a9.86,9.86,0,0,0-1.33,4.79L176.47,472l50.75.95C227,468.14,200.94,457.91,200.94,457.91Z" style="fill:#1E2749"></path><path d="M176.47,472l.05-4.12,48.74,2.46s2.24,1,2,2.61Z" style="fill:#263238"></path><path d="M201.77,457.67c0,.25-1.25.34-2.49,1.11s-1.9,1.8-2.13,1.7.17-1.53,1.68-2.44S201.83,457.44,201.77,457.67Z" style="fill:#263238"></path><path d="M207.05,460c0,.24-1,.64-1.89,1.68s-1.13,2.13-1.37,2.12-.38-1.42.72-2.69S207.05,459.74,207.05,460Z" style="fill:#263238"></path><path d="M210,466.4c-.22.05-.54-1.2.12-2.54S211.9,462,212,462.2s-.63.92-1.16,2S210.2,466.38,210,466.4Z" style="fill:#263238"></path><path d="M183.94,463.59a1.34,1.34,0,1,1-1.29-1.38A1.34,1.34,0,0,1,183.94,463.59Z" style="fill:#263238"></path><path d="M311.25,138a10.65,10.65,0,0,0,8.39-7.74,1.41,1.41,0,0,1,1.69-1.43,7.89,7.89,0,0,0,5.65-2.58,6.14,6.14,0,0,0,1.2-6c3.26.39,6.28-2.78,6.29-6.07s-2.51-6.25-5.6-7.35a4.69,4.69,0,0,0,1.83-5.28,9.18,9.18,0,0,0-3.61-4.67c-2.15-1.61-5.14-2.75-7.49-1.42.61-1.54-.37-3.28-1.63-4.34a9,9,0,0,0-12,.75,8.21,8.21,0,0,0-3.32-3.73,3.86,3.86,0,0,0-4.65.69c0-1.68-1.32-3-2.74-3.92a6,6,0,0,0-3.39-1.06,3,3,0,0,0-2.74,2,4.72,4.72,0,0,0-7.4,5.79,6,6,0,0,0-4.93,9c-.94-.37-2,.63-2,1.64a3.23,3.23,0,0,0,1.57,2.47q-2.85,4.43-5.72,8.84a21.57,21.57,0,0,0-3.06,6,7.26,7.26,0,0,0,1.05,6.44" style="fill:#263238"></path><path d="M316.7,129.48c4.24-7.37,1.33-19.47-6.17-23.38L284.9,95.36l-2.44,3.85L250.63,148.8,268.19,175l13.27-16.22s10,4.47,19.65-6.09C305.92,147.47,312,137.66,316.7,129.48Z" style="fill:#ffbe9d"></path><path d="M308.78,135.9a1.8,1.8,0,0,1-2.46.56,1.73,1.73,0,0,1-.65-2.39,1.81,1.81,0,0,1,2.46-.57A1.74,1.74,0,0,1,308.78,135.9Z" style="fill:#263238"></path><path d="M311.32,133.1c-.32.07-.9-1.53-2.52-2.6s-3.35-1-3.39-1.36c0-.15.39-.38,1.16-.41a5,5,0,0,1,2.88.84,4.76,4.76,0,0,1,1.84,2.32C311.53,132.6,311.47,133.07,311.32,133.1Z" style="fill:#263238"></path><path d="M293.64,127.07a1.81,1.81,0,0,1-2.46.57,1.74,1.74,0,0,1-.65-2.4,1.81,1.81,0,0,1,2.46-.56A1.73,1.73,0,0,1,293.64,127.07Z" style="fill:#263238"></path><path d="M295,123.22c-.32.08-.9-1.53-2.52-2.6s-3.34-1-3.39-1.36c0-.14.4-.37,1.17-.41a4.86,4.86,0,0,1,2.87.85A4.68,4.68,0,0,1,295,122C295.23,122.73,295.16,123.19,295,123.22Z" style="fill:#263238"></path><path d="M293.09,138.81a13,13,0,0,1,2.94,1.27c.44.23.89.41,1.15.17a2.58,2.58,0,0,0,.54-1.41c.27-1.27.56-2.59.87-4,1.28-5.63,2.51-10.15,2.73-10.1s-.63,4.66-1.92,10.29c-.32,1.39-.63,2.71-.93,4a2.89,2.89,0,0,1-.87,1.77,1.24,1.24,0,0,1-1.08.16,4,4,0,0,1-.77-.37A11.94,11.94,0,0,1,293.09,138.81Z" style="fill:#263238"></path><path d="M281.46,158.81a35.72,35.72,0,0,1-12.93-14.64s-1.85,10.78,10.62,17.46Z" style="fill:#eb996e"></path><path d="M289.81,142.28a3.48,3.48,0,0,0-1.9-2.82,3.21,3.21,0,0,0-2.5-.23,2.06,2.06,0,0,0-1.41,1.85,2.35,2.35,0,0,0,1.77,1.95,7.38,7.38,0,0,0,2.89.13,2.06,2.06,0,0,0,.78-.17.65.65,0,0,0,.4-.61" style="fill:#eb996e"></path><path d="M287.58,136.78c.27.16-.9,1.92-.22,4.18s2.67,3.3,2.52,3.55-.64.07-1.45-.44a5.18,5.18,0,0,1-2.17-2.86,4.59,4.59,0,0,1,.3-3.43C287,137,287.46,136.69,287.58,136.78Z" style="fill:#263238"></path><path d="M299.35,117.73c-.46.34-1.93-.94-4-2s-3.94-1.53-3.93-2.1c0-.26.56-.5,1.46-.52a7.67,7.67,0,0,1,6,3.1C299.43,117,299.56,117.57,299.35,117.73Z" style="fill:#263238"></path><path d="M313.84,128c-.53.18-1.39-1-2.72-1.86s-2.64-1.39-2.65-2c0-.26.43-.52,1.16-.54a4.79,4.79,0,0,1,4.33,3.07C314.18,127.41,314.08,127.9,313.84,128Z" style="fill:#263238"></path><path d="M320.86,112.68a6.84,6.84,0,0,1-12.61,1.71,2.65,2.65,0,0,1-2,2.9,5,5,0,0,1-3.71-.72,9.5,9.5,0,0,1-4.53-6.48,7.07,7.07,0,0,1-5.83,2.39,7,7,0,0,1-5.34-3.32A6.58,6.58,0,0,1,284,116a6.33,6.33,0,0,1-9.31-7.57,7.14,7.14,0,0,1,3.73-10.7A4.24,4.24,0,0,1,278,93.5a8.52,8.52,0,0,1,2.8-3.42A13.63,13.63,0,0,1,290.93,87c3.6.53,6.95,3.22,7.65,6.8a2,2,0,0,0,.45,1.12,1.74,1.74,0,0,0,1.61.16c2.42-.57,5-1.21,7.36-.44a6.7,6.7,0,0,1,4.4,7.06c3-1.49,7-1,9.17,1.5s1.72,7.06-1.19,8.72" style="fill:#263238"></path><path d="M279,114.57a30.36,30.36,0,0,1-6,6.12c-1,.74-2.2,1.45-3.34,1a2.6,2.6,0,0,1-1.41-2.74,6.8,6.8,0,0,1,1.36-3,89.7,89.7,0,0,1,7.51-9.13" style="fill:#263238"></path><path d="M275.18,114.73c-.1-.16-4.55-6-8.63,0s2.71,8.81,2.84,8.65S275.18,114.73,275.18,114.73Z" style="fill:#ffbe9d"></path><path d="M269.12,119.83s-.15,0-.38,0a1.24,1.24,0,0,1-.78-.51,3.12,3.12,0,0,1,.4-3.12,4.06,4.06,0,0,1,1.3-1.28,1.46,1.46,0,0,1,1.33-.26.63.63,0,0,1,.41.7c0,.22-.15.31-.13.34s.2,0,.32-.29a.84.84,0,0,0,0-.53.91.91,0,0,0-.47-.54,1.72,1.72,0,0,0-1.71.18,4.24,4.24,0,0,0-1.49,1.41c-.79,1.23-.95,2.77-.26,3.61a1.38,1.38,0,0,0,1.05.49C269,120,269.14,119.86,269.12,119.83Z" style="fill:#eb996e"></path><path d="M298.5,108.7s.05.07.15.17.28.26.5.45a9.73,9.73,0,0,0,2.13,1.4,7.16,7.16,0,0,0,1.73.59,5.15,5.15,0,0,0,4.39-1.11,3.89,3.89,0,0,0,1.33-2.41l-.3,0a9.47,9.47,0,0,0,3.82,4.63,9.19,9.19,0,0,0,3.08,1.24,6,6,0,0,0,1.75.11,3.41,3.41,0,0,0,1.69-.67,4.81,4.81,0,0,0,1.3-1.65,13.51,13.51,0,0,0,.75-1.87,6.76,6.76,0,0,0,.39-1.94,2.3,2.3,0,0,0-.69-1.81l-.26.24a5.73,5.73,0,0,0,3.17,1.92,6.21,6.21,0,0,0,3.38-.17,5.14,5.14,0,0,0,2.43-1.78,6,6,0,0,0,1.06-2.36,5.85,5.85,0,0,0-.35-3.59,4.12,4.12,0,0,0-.69-1.11s.27.38.59,1.15a6,6,0,0,1,.24,3.51,5.88,5.88,0,0,1-1,2.25,5,5,0,0,1-2.33,1.65,5.89,5.89,0,0,1-3.21.13,5.34,5.34,0,0,1-3-1.82l-.25.24a2,2,0,0,1,.56,1.55,6.34,6.34,0,0,1-.37,1.83,6.87,6.87,0,0,1-1.93,3.34,3.81,3.81,0,0,1-3.14.5,9,9,0,0,1-3-1.19,9.23,9.23,0,0,1-3.71-4.44l-.23-.6-.07.64a3.6,3.6,0,0,1-1.21,2.22,4.86,4.86,0,0,1-2.09,1.07,5.18,5.18,0,0,1-2.07,0,7.14,7.14,0,0,1-1.69-.53,11.2,11.2,0,0,1-2.15-1.31C298.75,108.89,298.51,108.69,298.5,108.7Z" style="fill:#fff"></path><path d="M318.75,118.34s.06.18.27.45a3.73,3.73,0,0,0,1.12.93,3.64,3.64,0,0,0,2.14.47,1.8,1.8,0,0,0,1.2-.63,1.36,1.36,0,0,0,.19-1.47l-.3.21.08.1a5.66,5.66,0,0,0,4.38,1.95,4.6,4.6,0,0,0,1.47-.24c.33-.11.5-.21.49-.23a10.91,10.91,0,0,1-2,.22,5.67,5.67,0,0,1-4.11-1.94l-.08-.09-1.16-1.34.86,1.54a1,1,0,0,1-.15,1.07,1.49,1.49,0,0,1-1,.52,3.61,3.61,0,0,1-2-.36A6.22,6.22,0,0,1,318.75,118.34Z" style="fill:#fff"></path><path d="M304.86,128.49c0,.06.54,0,1.38,0a7.12,7.12,0,0,1,3.09.92,6.91,6.91,0,0,1,2.31,2.25c.46.71.63,1.21.69,1.19a3,3,0,0,0-.46-1.32,6.35,6.35,0,0,0-5.63-3.3A3,3,0,0,0,304.86,128.49Z" style="fill:#eb996e"></path><path d="M289,117.92a9.6,9.6,0,0,0,1.11,0,5.63,5.63,0,0,1,2.48.75,5.71,5.71,0,0,1,1.88,1.79c.38.56.53,1,.58,1a2.1,2.1,0,0,0-.36-1.08,5,5,0,0,0-1.91-2,5.19,5.19,0,0,0-2.67-.69A2.14,2.14,0,0,0,289,117.92Z" style="fill:#eb996e"></path><path d="M285.74,136.44s.18,0,.42-.08a2,2,0,0,1,.93,0c.73.21,1.3.59,1.36.48s-.41-.57-1.26-.83a1.65,1.65,0,0,0-1.12.07C285.8,136.24,285.71,136.41,285.74,136.44Z" style="fill:#eb996e"></path><path d="M284,136.56c.08.07.5-.3,1.08-.66s1.08-.6,1-.7-.63,0-1.25.39S284,136.5,284,136.56Z" style="fill:#eb996e"></path><path d="M264.14,119a3.16,3.16,0,0,0-1.43,0,7.56,7.56,0,0,0-3.53,1.67,6.67,6.67,0,0,0-2.29,5.3,6.44,6.44,0,0,0,4,5.69,5.91,5.91,0,0,0,3.77.23,7.65,7.65,0,0,0,3.09-1.63,6.72,6.72,0,0,0,2.44-5.23,5.9,5.9,0,0,0-1.39-3.65c-.62-.71-1.1-.93-1.12-.9s.38.35.9,1.07a5.94,5.94,0,0,1,1.1,3.48,6.28,6.28,0,0,1-2.36,4.72,6.12,6.12,0,0,1-6.16,1.25,5.86,5.86,0,0,1-3.65-5.07,6.2,6.2,0,0,1,2-4.88,7.9,7.9,0,0,1,3.26-1.78C263.64,119.11,264.14,119.08,264.14,119Z" style="fill:#455a64"></path><path d="M159.28,239.3c-18.18,14.1-20.94,36.49-22.19,49.33s-11.17,64.17-11.17,64.17-20.77,32.25-28.23,45.92-22.33,42.21-22.33,42.21l24.89,15.38s44.71-60.86,52.58-72.87,48-113.12,48-113.12Z" style="fill:#263238"></path><path d="M218.44,272.57c1.25,2.4,34.26,83.84,33.4,92s-42,91.76-42,91.76L179.4,443.42,210.69,374l.86-9.54L182.4,309.26l9.43-40.72Z" style="fill:#263238"></path><path d="M196.76,283.26c.14.06-3.31,8.25-7.69,18.3s-8,18.14-8.17,18.08,3.31-8.24,7.69-18.29S196.63,283.2,196.76,283.26Z" style="fill:#455a64"></path><path d="M222.94,367.25a10.46,10.46,0,0,1-5.75,0,10.62,10.62,0,0,1-5.14-2.59,30.42,30.42,0,0,0,5.26,2.09A31,31,0,0,0,222.94,367.25Z" style="fill:#455a64"></path><path d="M221.63,375.26c0,.14-2.25-.67-5.07-1.17s-5.16-.52-5.16-.68a13.58,13.58,0,0,1,5.25.17A13.42,13.42,0,0,1,221.63,375.26Z" style="fill:#455a64"></path><path d="M167.31,254.56s-.19.21-.59.52-1,.72-1.78,1.2a28.66,28.66,0,0,1-13.45,4,17.51,17.51,0,0,1-2.14,0c-.51,0-.79-.07-.78-.11s1.11-.08,2.9-.23a35.65,35.65,0,0,0,6.85-1.31,35,35,0,0,0,6.44-2.67A26.63,26.63,0,0,1,167.31,254.56Z" style="fill:#455a64"></path><polygon points="274.14 171.54 300.77 205.92 356.63 228.8 350.68 240.72 279.28 216.34 255.9 168.41 274.14 171.54" style="fill:#455a64"></polygon><g style="opacity:0.2"><polygon points="274.14 171.54 300.77 205.92 356.63 228.8 350.68 240.72 279.28 216.34 255.9 168.41 274.14 171.54"></polygon></g><path d="M248.23,151.18a3,3,0,0,1-.11-4.2l3.64-4.07a1.48,1.48,0,0,1,2.05-.32c5.07,3.67,24.26,18.24,24.22,22.42,0,4.72-8.18,9.48-8.18,9.48Z" style="fill:#455a64"></path><path d="M235.53,176.62s35.67,49.28,45,55,67.7,13.71,67.7,13.71L350.45,228,294.13,210s-36.75-54.16-37.69-55.72-8.19-7.41-16.19-6.39-12.06,13.65-9.3,19.9C232,170.13,235.53,176.62,235.53,176.62Z" style="fill:#455a64"></path><path d="M248.46,147.91s-10.26-4.41-20.11,4.77c-5.27,4.93-53.5,72.51-56.91,77l-13.85,9.57c23.18,21.34,41.14,39.19,65.86,45.39l12.88-41.77,39.57-36Z" style="fill:#455a64"></path><path d="M231.68,171.54a2.72,2.72,0,0,1,.36.46c.24.36.55.82.94,1.37.8,1.21,2,2.93,3.47,5,3,4.23,7.27,9.93,12.26,16.05s9.67,11.52,13,15.44c1.65,1.93,3,3.5,4,4.66l1.07,1.28c.24.29.36.46.34.47a2.84,2.84,0,0,1-.42-.4l-1.14-1.22-4.11-4.55c-3.44-3.86-8.16-9.23-13.16-15.36s-9.26-11.87-12.16-16.16c-1.46-2.15-2.6-3.91-3.34-5.15-.35-.58-.64-1-.86-1.43A2.35,2.35,0,0,1,231.68,171.54Z" style="fill:#263238"></path><path d="M350.45,228l-.28-.07-.82-.26-3.15-1-11.78-3.92-40.37-13.59-.08,0-.05-.08c-3.65-5.38-7.56-11.16-11.59-17.12l-17.47-25.86-7.61-11.29a27.69,27.69,0,0,0-1.8-2.53,8.9,8.9,0,0,0-1.09-1c-.39-.31-.73-.67-1.14-.94a13.81,13.81,0,0,0-19.59,4.6,15.46,15.46,0,0,0-1,2.46,10.08,10.08,0,0,0-.46,1.9c-.13.89-.19,1.33-.23,1.61a8.94,8.94,0,0,1,.13-1.62,8.76,8.76,0,0,1,.42-1.94,13.32,13.32,0,0,1,1-2.51,14.2,14.2,0,0,1,5.17-5.25,14.46,14.46,0,0,1,9.54-1.78,14.21,14.21,0,0,1,5.29,2.2,15.16,15.16,0,0,1,1.18,1,8.66,8.66,0,0,1,1.13,1.06,27.93,27.93,0,0,1,1.85,2.57l7.65,11.27,17.5,25.83,11.58,17.13-.13-.09,40.32,13.76,11.72,4.05,3.13,1.11.81.3C350.37,228,350.46,228,350.45,228Z" style="fill:#263238"></path><path d="M255.9,205.92a3.21,3.21,0,0,1-.52.68c-.36.42-.91,1-1.62,1.66a32.45,32.45,0,0,1-13.26,7.46,21.08,21.08,0,0,1-2.27.53,3,3,0,0,1-.85.09c0-.09,1.16-.36,3-1A38.94,38.94,0,0,0,253.51,208C255,206.72,255.83,205.86,255.9,205.92Z" style="fill:#263238"></path><path d="M232.92,235.71a10.77,10.77,0,0,1-1.74.24c-1.12.13-2.75.23-4.77.3a84.9,84.9,0,0,1-31-4.93c-1.9-.69-3.42-1.29-4.45-1.76a12.46,12.46,0,0,1-1.58-.76,9.74,9.74,0,0,1,1.66.57c1,.41,2.58,1,4.49,1.6a94.51,94.51,0,0,0,30.87,4.91c2,0,3.63-.07,4.76-.13A12.24,12.24,0,0,1,232.92,235.71Z" style="fill:#263238"></path><path d="M234.29,229.66a11.49,11.49,0,0,1-2.79.69,34.14,34.14,0,0,1-13.8-.55,11.29,11.29,0,0,1-2.72-.91,25.74,25.74,0,0,1,2.81.55,44,44,0,0,0,6.8.82,44.81,44.81,0,0,0,6.86-.28A25.18,25.18,0,0,1,234.29,229.66Z" style="fill:#263238"></path><g style="opacity:0.2"><path d="M237.89,180.78l16,27.13s-9,6.42-12.73,7.42a97.13,97.13,0,0,0,14.76-5.53l8.43,3.82Z"></path></g><g style="opacity:0.2"><path d="M228.21,235.89A30.31,30.31,0,0,1,210,239a26.7,26.7,0,0,1-15.86-7.92s13.06,3.55,18.07,4.11S228.21,235.89,228.21,235.89Z"></path></g><path d="M175.06,242a23.18,23.18,0,0,0-5,2.22,16,16,0,0,0-3.56,3.25l-.2-.15c.3-.33.47-.5.51-.47s-.07.24-.31.62l-.2-.14a11.14,11.14,0,0,1,3.47-3.55A9.46,9.46,0,0,1,175.06,242Z" style="fill:#263238"></path><path d="M188.24,252.69a18.66,18.66,0,0,1-7.58,7.05c-.09-.13,1.85-1.43,3.93-3.38S188.11,252.59,188.24,252.69Z" style="fill:#263238"></path><path d="M202.16,264.4a14.36,14.36,0,0,1-3,4.55,14.58,14.58,0,0,1-4.11,3.53c-.1-.13,1.78-1.65,3.72-3.88S202,264.32,202.16,264.4Z" style="fill:#263238"></path><path d="M216.79,270.25a15.14,15.14,0,0,1-4.35,9.56c-.12-.1,1.37-2,2.56-4.61S216.63,270.22,216.79,270.25Z" style="fill:#263238"></path><path d="M252,149.25s.05-.42.38-1a5.63,5.63,0,0,1,1.77-1.86,7.87,7.87,0,0,1,2.36-1c.64-.15,1-.18,1.05-.11s-1.52.54-3.12,1.53S252.11,149.34,252,149.25Z" style="fill:#263238"></path><path d="M258.94,156.12a6,6,0,0,1,2.13-3,5.92,5.92,0,0,1,3.26-1.65c.06.14-1.45.76-2.92,2S259.08,156.19,258.94,156.12Z" style="fill:#263238"></path><path d="M272.69,159a11.35,11.35,0,0,1-2.92,4.18,11.17,11.17,0,0,1-4.19,2.89c-.08-.14,1.87-1.3,3.83-3.26S272.55,158.93,272.69,159Z" style="fill:#263238"></path><path d="M349.69,228.78l8.08-11.08,6-1.31,12.93-2.63s1.5.89-.32,3.16l-1.05.85,5-.13a3.84,3.84,0,0,1-2.29,3.7l-8.44,2.45-3.18,1s6.65.46,9-.37a12.46,12.46,0,0,1,4.38-.72s1.39,1.41-.33,3.26-6.78,2.4-8,2.7A44.48,44.48,0,0,1,366,230a8.63,8.63,0,0,0,4.57,1.1c2.88,0,5.85.06,5.85.06s.14,2.74-1.61,3.27-9.51.39-9.51.39L363.15,236s-5.71,6-7.72,6.88-7.24,2.41-7.24,2.41Z" style="fill:#ffbe9d"></path><path d="M376,217.92a7.24,7.24,0,0,1-1.95.89,26.55,26.55,0,0,1-5,1.27,27.65,27.65,0,0,1-5.14.32,6.84,6.84,0,0,1-2.12-.25c0-.16,3.25,0,7.18-.58S375.93,217.77,376,217.92Z" style="fill:#eb996e"></path></g><g id="freepik--Plant--inject-658"><path d="M479.81,431.4s-21.28-24.49-29.32-49-4.21-21.68-4.21-21.68,10.84,23.79,19.07,35.29,22.89,28.35,22.89,28.35Z" style="fill:#455a64"></path><path d="M484.05,364.55a1.24,1.24,0,0,0-2.31.79c1.3,8.6,4.1,28.79,4,41.88-.14,17,0,23.59,0,23.59h8.85S493,395.64,491,384.92C489.62,377.4,486.64,369.06,484.05,364.55Z" style="fill:#455a64"></path><path d="M488.88,428a94,94,0,0,0,7.29-26.45c.73-6.26-.58-14.72-2.51-26A69.88,69.88,0,0,1,492.54,363a2.11,2.11,0,0,1,4-1c1.07,1.91,4.16,8.42,4.94,12.51,2.15,11.15,4.58,16.72,2.72,27.3s-8.72,26.87-8.72,26.87Z" style="fill:#455a64"></path><path d="M496.85,428.66s23.37-50.21,25-57.66,7.12-24.61,7.77-23.64,1.62,10-2.59,20.4-22.19,62.43-22.19,62.43h-8" style="fill:#455a64"></path><path d="M486.32,426.42a4.86,4.86,0,0,1-.66-.45c-.41-.32-1-.76-1.81-1.38-1.55-1.23-3.74-3.08-6.28-5.55a105.46,105.46,0,0,1-16.95-21.75,143.34,143.34,0,0,1-11.57-25.07c-1.17-3.33-2-6.06-2.59-8-.28-.95-.48-1.69-.62-2.19a4.9,4.9,0,0,1-.18-.77,4.32,4.32,0,0,1,.28.74c.17.54.41,1.26.71,2.16.61,1.88,1.52,4.59,2.73,7.9A151.64,151.64,0,0,0,461.05,397a109.7,109.7,0,0,0,16.77,21.76c2.5,2.49,4.64,4.38,6.16,5.65.74.64,1.35,1.11,1.74,1.45A4.22,4.22,0,0,1,486.32,426.42Z" style="fill:#263238"></path><path d="M488.87,402.33a10.26,10.26,0,0,1-.21-1.47c-.11-1-.25-2.4-.43-4-.37-3.4-.94-8.08-1.77-13.23s-1.75-9.78-2.46-13.12c-.35-1.6-.63-2.93-.85-4a8.43,8.43,0,0,1-.27-1.47,8,8,0,0,1,.45,1.42c.27.92.61,2.26,1,3.93.8,3.32,1.78,7.95,2.61,13.11s1.35,9.87,1.63,13.28c.15,1.7.24,3.08.28,4A7.73,7.73,0,0,1,488.87,402.33Z" style="fill:#263238"></path><path d="M494.35,361.59a3.75,3.75,0,0,1,.27.63l.7,1.87c.31.81.67,1.81,1,3s.79,2.51,1.13,4c.19.75.38,1.54.58,2.36s.34,1.69.51,2.58c.39,1.79.62,3.72.91,5.75A94.38,94.38,0,0,1,500,395.1a93.14,93.14,0,0,1-1.51,13.23c-.42,2-.8,3.92-1.31,5.67-.24.88-.44,1.73-.69,2.54l-.75,2.31c-.45,1.49-1,2.78-1.42,3.93s-.85,2.13-1.22,2.91l-.83,1.81a3,3,0,0,1-.32.62,4.93,4.93,0,0,1,.23-.66l.75-1.84c.33-.8.73-1.78,1.13-2.94s.92-2.45,1.34-3.94l.72-2.31c.24-.8.43-1.66.66-2.54.49-1.74.85-3.65,1.26-5.64a89.07,89.07,0,0,0,.95-26.41c-.27-2-.49-3.94-.85-5.72-.17-.89-.3-1.76-.49-2.58s-.37-1.6-.54-2.36c-.32-1.51-.74-2.84-1.06-4s-.64-2.19-.92-3-.46-1.41-.61-1.89A3,3,0,0,1,494.35,361.59Z" style="fill:#263238"></path><path d="M529.34,348.37a.53.53,0,0,1,0,.22l-.11.66c-.1.57-.23,1.42-.46,2.49-.45,2.16-1.2,5.27-2.37,9s-2.76,8.2-4.65,13.06-4.08,10.16-6.15,15.79-3.73,11.13-5.26,16.11-2.94,9.47-4.33,13.17a83.05,83.05,0,0,1-3.69,8.58c-.47,1-.91,1.74-1.18,2.25l-.33.57a.88.88,0,0,1-.13.19,1,1,0,0,1,.09-.21c.07-.16.17-.36.28-.6.25-.52.65-1.28,1.1-2.28.94-2,2.21-4.92,3.53-8.63s2.74-8.18,4.22-13.17,3.12-10.5,5.23-16.15,4.28-10.94,6.19-15.79,3.54-9.24,4.74-13,2-6.83,2.52-9c.26-1.07.42-1.91.55-2.47.06-.26.11-.47.16-.65A1.26,1.26,0,0,1,529.34,348.37Z" style="fill:#263238"></path><path d="M457.3,337.28a2,2,0,0,0-3.32,2.05,58.43,58.43,0,0,0,2.94,7.55c3.21,6.82,12.65,31.32,17.06,44.77s10.64,38.54,10.64,38.54l9.44-1.53s-8.63-41.23-17.06-56.08C470.22,360.64,463.45,343.39,457.3,337.28Z" style="fill:#455a64"></path><path d="M476.57,400.06a6.13,6.13,0,0,1,.48,1.13c.28.74.66,1.82,1.09,3.17.87,2.69,1.93,6.45,3,10.62s2,8,2.58,10.73c.28,1.3.52,2.4.71,3.27a4.92,4.92,0,0,1,.19,1.21,6.43,6.43,0,0,1-.38-1.16l-.86-3.24-2.72-10.69c-1.07-4.17-2.08-7.93-2.86-10.64l-.93-3.21A4.81,4.81,0,0,1,476.57,400.06Z" style="fill:#263238"></path><path d="M489.36,429.43a1.43,1.43,0,0,1-.05-.25c0-.2-.06-.44-.11-.75-.1-.65-.19-1.62-.38-2.85-.35-2.48-1-6.05-2-10.41a149.79,149.79,0,0,0-4.42-15.06c-1.93-5.59-4.36-11.63-7.11-17.88-5.55-12.48-11.09-23.55-14.73-31.74-1.84-4.08-3.27-7.42-4.21-9.74-.48-1.16-.82-2.07-1.06-2.68-.1-.29-.19-.52-.26-.7a.7.7,0,0,1-.07-.25.82.82,0,0,1,.12.23l.31.68c.27.64.66,1.52,1.14,2.65,1,2.29,2.47,5.6,4.35,9.67,3.72,8.14,9.31,19.18,14.87,31.68,2.75,6.26,5.17,12.32,7.09,17.93a140.53,140.53,0,0,1,4.32,15.14c1,4.37,1.54,8,1.83,10.45.17,1.24.23,2.22.29,2.87l.06.75A.86.86,0,0,1,489.36,429.43Z" style="fill:#263238"></path><path d="M494.06,428.66a8.66,8.66,0,0,1-.32-1.58c-.19-1.11-.44-2.57-.74-4.34-.65-3.65-1.64-8.68-3.07-14.16s-3-10.36-4.22-13.87c-.6-1.69-1.1-3.08-1.48-4.14a10.4,10.4,0,0,1-.5-1.54,10.79,10.79,0,0,1,.68,1.47c.41,1,1,2.35,1.63,4.09a138.46,138.46,0,0,1,4.38,13.86,143.77,143.77,0,0,1,2.93,14.24c.27,1.84.48,3.33.58,4.36A11.9,11.9,0,0,1,494.06,428.66Z" style="fill:#263238"></path><rect x="476.6" y="427.31" width="36.81" height="44.85" style="fill:#1E2749"></rect><g style="opacity:0.30000000000000004"><rect x="476.6" y="427.31" width="36.81" height="44.85"></rect></g><rect x="469.01" y="427.31" width="32.66" height="44.85" style="fill:#1E2749"></rect></g></svg>