<!-- sample rectangle -->
<svg width="100" height="100" xmlns="http://www.w3.org/2000/svg">
<g id="SvgjsG8706" featurekey="UqkkrJ-0" transform="matrix(2.007818992985455,0,0,2.007818992985455,-14.25166972946174,-13.9052555817152)" ><title xmlns="http://www.w3.org/2000/svg">efficient, performance, efficiency, strategy</title><g xmlns="http://www.w3.org/2000/svg"><path d="M32,57c-.73,0-1.47,0-2.19-.09a.81.81,0,0,1-.71-.68l-.4-2.5c-.5-.07-1-.17-1.53-.28l-1.28,2.18A.79.79,0,0,1,25,56a23.46,23.46,0,0,1-3.56-1.34A.81.81,0,0,1,21,53.8l.49-2.49c-.46-.25-.91-.51-1.34-.79l-1.95,1.62a.81.81,0,0,1-1,0,23.79,23.79,0,0,1-2.88-2.48.79.79,0,0,1-.12-1l1.3-2.18q-.51-.57-1-1.2l-2.38.85a.8.8,0,0,1-.94-.3,24.41,24.41,0,0,1-1.86-3.33.8.8,0,0,1,.22-1l2-1.59c-.19-.48-.36-1-.52-1.46l-2.53,0a.8.8,0,0,1-.77-.61,25,25,0,0,1-.62-3.76.81.81,0,0,1,.54-.82l2.4-.83c0-.17,0-.34,0-.52,0-.37,0-.71,0-1l-2.37-.88a.79.79,0,0,1-.52-.83,23.4,23.4,0,0,1,.7-3.75.79.79,0,0,1,.78-.59l2.54,0c.17-.51.35-1,.55-1.46L9.77,21.87a.8.8,0,0,1-.2-1,23.41,23.41,0,0,1,1.94-3.27.79.79,0,0,1,.94-.28l2.36.9q.51-.63,1-1.17l-1.25-2.2a.8.8,0,0,1,.13-1,23.42,23.42,0,0,1,2.95-2.42.81.81,0,0,1,1,.06l1.91,1.65c.43-.26.88-.51,1.35-.76L21.48,10a.78.78,0,0,1,.45-.86,22.27,22.27,0,0,1,3.6-1.27.81.81,0,0,1,.91.38l1.23,2.22c.51-.1,1-.19,1.53-.25l.45-2.49A.82.82,0,0,1,30.38,7a24.41,24.41,0,0,1,3.81,0,.79.79,0,0,1,.71.67l.4,2.5c.5.07,1,.17,1.53.28l1.28-2.18A.79.79,0,0,1,39,8a23.46,23.46,0,0,1,3.56,1.34.79.79,0,0,1,.44.88l-.48,2.49c.46.25.91.51,1.34.79l1.95-1.62a.81.81,0,0,1,1,0,23.79,23.79,0,0,1,2.88,2.48.79.79,0,0,1,.12,1l-1.3,2.18q.51.57,1,1.2l2.38-.85a.8.8,0,0,1,.94.3,24.41,24.41,0,0,1,1.86,3.33.8.8,0,0,1-.22.95l-2,1.59c.19.48.36,1,.52,1.46l2.53,0a.8.8,0,0,1,.77.61,23.77,23.77,0,0,1,.61,3.76.79.79,0,0,1-.53.82l-2.4.83c0,.17,0,.34,0,.52,0,.37,0,.71,0,1l2.37.88a.8.8,0,0,1,.52.83,23.2,23.2,0,0,1-.7,3.75.8.8,0,0,1-.78.59l-2.54,0c-.17.51-.35,1-.55,1.46l1.93,1.64a.8.8,0,0,1,.2,1,23.41,23.41,0,0,1-1.94,3.27.8.8,0,0,1-.94.28l-2.36-.9c-.34.41-.68.81-1,1.17l1.25,2.2a.8.8,0,0,1-.13,1,23.42,23.42,0,0,1-2.95,2.42.81.81,0,0,1-1-.06l-1.91-1.65c-.43.26-.88.51-1.35.76L42.52,54a.78.78,0,0,1-.45.86,22,22,0,0,1-3.61,1.27.79.79,0,0,1-.9-.38l-1.23-2.22c-.51.11-1,.19-1.53.25l-.45,2.49a.82.82,0,0,1-.73.66C33.11,57,32.58,57,32,57Zm-1.42-1.64a22.4,22.4,0,0,0,2.31,0L33.33,53a.81.81,0,0,1,.72-.66,18.19,18.19,0,0,0,2.51-.4.77.77,0,0,1,.88.39l1.22,2.18a20.87,20.87,0,0,0,2.18-.77l-.42-2.45a.79.79,0,0,1,.44-.85,21.1,21.1,0,0,0,2.23-1.27.8.8,0,0,1,1,.07l1.89,1.63a19,19,0,0,0,1.78-1.47l-1.23-2.16a.8.8,0,0,1,.12-1,19.33,19.33,0,0,0,1.67-1.94.81.81,0,0,1,.93-.26l2.33.89a22.32,22.32,0,0,0,1.17-2l-1.9-1.62a.8.8,0,0,1-.21-.94A19.77,19.77,0,0,0,51.51,38a.83.83,0,0,1,.78-.57l2.49,0a21.78,21.78,0,0,0,.42-2.28l-2.34-.87a.82.82,0,0,1-.52-.83c0-.43.06-.92.06-1.49,0-.36,0-.7,0-1.05a.78.78,0,0,1,.54-.79l2.35-.81a21.85,21.85,0,0,0-.37-2.29l-2.5,0a.79.79,0,0,1-.76-.58A19.88,19.88,0,0,0,50.79,24a.8.8,0,0,1,.23-.93L53,21.54c-.34-.68-.72-1.35-1.13-2l-2.35.84a.8.8,0,0,1-.92-.29,21.53,21.53,0,0,0-1.62-2,.8.8,0,0,1-.11-1L48.12,15c-.57-.53-1.16-1-1.76-1.5l-1.92,1.59a.81.81,0,0,1-1,0,18.34,18.34,0,0,0-2.19-1.3.81.81,0,0,1-.43-.86l.48-2.46Q40.25,10,39.17,9.7l-1.26,2.15a.81.81,0,0,1-.89.37,18.42,18.42,0,0,0-2.5-.46.79.79,0,0,1-.7-.67l-.4-2.47a22.43,22.43,0,0,0-2.31,0l-.44,2.46a.81.81,0,0,1-.72.66,18.19,18.19,0,0,0-2.51.4.77.77,0,0,1-.88-.39L25.34,9.54a20.87,20.87,0,0,0-2.18.77l.42,2.45a.79.79,0,0,1-.44.85,21.1,21.1,0,0,0-2.23,1.27.8.8,0,0,1-1-.07l-1.89-1.63a19,19,0,0,0-1.78,1.47l1.23,2.16a.8.8,0,0,1-.12,1,18.28,18.28,0,0,0-1.67,1.94.81.81,0,0,1-.93.26l-2.33-.89a22.32,22.32,0,0,0-1.17,2l1.9,1.62a.8.8,0,0,1,.21.94A19.77,19.77,0,0,0,12.49,26a.85.85,0,0,1-.78.57l-2.49,0a21.78,21.78,0,0,0-.42,2.28l2.34.87a.82.82,0,0,1,.52.83c0,.43-.06.92-.06,1.49,0,.36,0,.7,0,1a.78.78,0,0,1-.54.79l-2.35.81a21.85,21.85,0,0,0,.37,2.29l2.5,0a.79.79,0,0,1,.76.58A19.88,19.88,0,0,0,13.21,40a.79.79,0,0,1-.24.93L11,42.46c.34.68.72,1.35,1.13,2l2.35-.84a.8.8,0,0,1,.92.29,20.26,20.26,0,0,0,1.62,2,.8.8,0,0,1,.11,1L15.88,49a22.2,22.2,0,0,0,1.76,1.5l1.92-1.59a.81.81,0,0,1,1,0,18.34,18.34,0,0,0,2.19,1.3.81.81,0,0,1,.43.86l-.48,2.46a21.06,21.06,0,0,0,2.16.81l1.26-2.15a.79.79,0,0,1,.89-.37,18.42,18.42,0,0,0,2.5.46.8.8,0,0,1,.7.67Z"></path><path d="M33.33,49.06a.8.8,0,0,1-.76-.54l-.49-1.44H31.4l-.53,1.42A.81.81,0,0,1,30,49c-.37,0-.74-.09-1.11-.16s-1-.2-1.46-.33a.8.8,0,0,1-.58-.79l0-1.52L26.28,46l-1,1.15a.78.78,0,0,1-.95.2A15,15,0,0,1,22.1,46a.8.8,0,0,1-.28-.94l.55-1.41-.51-.45-1.33.74a.81.81,0,0,1-1-.14,17.38,17.38,0,0,1-1.64-2,.8.8,0,0,1,.06-1l1-1.15L18.65,39l-1.5.24a.78.78,0,0,1-.86-.47,15.59,15.59,0,0,1-.85-2.46.8.8,0,0,1,.39-.9l1.33-.72c0-.23-.08-.45-.11-.68l-1.49-.28a.81.81,0,0,1-.65-.74,16.13,16.13,0,0,1,.05-2.6.8.8,0,0,1,.67-.72l1.5-.23,0-.16c0-.17.07-.34.1-.5L16,28a.79.79,0,0,1-.36-.91,15.94,15.94,0,0,1,.93-2.44.79.79,0,0,1,.88-.44l1.49.3c.11-.2.23-.4.35-.59l-1-1.17a.8.8,0,0,1,0-1,16.44,16.44,0,0,1,1.71-2,.79.79,0,0,1,1-.12l1.3.79.53-.43-.5-1.42a.8.8,0,0,1,.31-.93,15,15,0,0,1,2.28-1.27.8.8,0,0,1,.95.22l1,1.19.65-.23V16.12a.82.82,0,0,1,.61-.77,14.76,14.76,0,0,1,2.58-.41.8.8,0,0,1,.82.54l.49,1.44h.68l.53-1.42A.8.8,0,0,1,34,15c.37,0,.74.09,1.11.16s1,.2,1.46.33a.8.8,0,0,1,.58.79l0,1.52.64.24,1-1.15a.8.8,0,0,1,.95-.2A15.86,15.86,0,0,1,41.9,18a.8.8,0,0,1,.28.94l-.55,1.41.51.45,1.33-.74a.81.81,0,0,1,1,.14,17.38,17.38,0,0,1,1.64,2,.8.8,0,0,1-.06,1l-1,1.15.33.59,1.5-.24a.78.78,0,0,1,.86.47,15.59,15.59,0,0,1,.85,2.46.79.79,0,0,1-.39.9l-1.33.72c0,.23.08.45.11.68l1.49.28a.81.81,0,0,1,.65.74,17.37,17.37,0,0,1-.05,2.6.8.8,0,0,1-.67.72l-1.5.23,0,.16h0c0,.17-.07.34-.1.5L48,36a.79.79,0,0,1,.36.91,15.94,15.94,0,0,1-.93,2.44.81.81,0,0,1-.88.44l-1.49-.3c-.11.2-.23.4-.35.59l1,1.17a.81.81,0,0,1,0,1,15.58,15.58,0,0,1-1.71,2,.79.79,0,0,1-1,.12l-1.3-.79-.53.43.5,1.42a.8.8,0,0,1-.31.93,15,15,0,0,1-2.28,1.27.8.8,0,0,1-1-.22l-.95-1.19-.65.23v1.51a.82.82,0,0,1-.61.77,14.91,14.91,0,0,1-2.58.41Zm-.68-3.59a.81.81,0,0,1,.76.54l.47,1.4c.37,0,.74-.11,1.1-.18l0-1.47a.8.8,0,0,1,.58-.76,13,13,0,0,0,1.6-.55.8.8,0,0,1,.94.23L39,45.83c.33-.17.65-.35,1-.54l-.49-1.39a.79.79,0,0,1,.3-.92,13.25,13.25,0,0,0,1.31-1.06.8.8,0,0,1,1-.09l1.25.76c.26-.27.5-.55.73-.84l-.93-1.14a.8.8,0,0,1,0-1A12.09,12.09,0,0,0,44,38.2a.8.8,0,0,1,.87-.41l1.44.29c.15-.34.28-.69.4-1l-1.27-.75a.81.81,0,0,1-.36-.91c.09-.31.15-.63.21-.95s.08-.46.11-.69a.82.82,0,0,1,.68-.69l1.45-.22c0-.37,0-.74,0-1.11l-1.45-.28a.81.81,0,0,1-.65-.71,13.48,13.48,0,0,0-.26-1.67.79.79,0,0,1,.4-.88l1.28-.7a10.86,10.86,0,0,0-.36-1L45,26.66a.79.79,0,0,1-.85-.45,13.69,13.69,0,0,0-.82-1.47.78.78,0,0,1,.07-1l1-1.11c-.23-.3-.46-.59-.7-.87l-1.29.72a.79.79,0,0,1-.95-.13,12.55,12.55,0,0,0-1.27-1.1.8.8,0,0,1-.27-.93L40.46,19c-.32-.21-.64-.4-1-.58l-1,1.12a.81.81,0,0,1-.94.21,11.28,11.28,0,0,0-1.56-.6.78.78,0,0,1-.57-.78l0-1.48-.72-.15-.37-.06-.52,1.38a.79.79,0,0,1-.82.51,11.73,11.73,0,0,0-1.68,0,.81.81,0,0,1-.8-.54l-.47-1.4c-.37.05-.74.11-1.1.18l0,1.47a.8.8,0,0,1-.58.76,13,13,0,0,0-1.6.55.79.79,0,0,1-.94-.23L25,18.17c-.33.17-.65.35-1,.54l.49,1.39a.81.81,0,0,1-.3.92,13.25,13.25,0,0,0-1.31,1.06.8.8,0,0,1-1,.09l-1.25-.76c-.26.27-.5.55-.73.84l.93,1.14a.8.8,0,0,1,0,1A12.64,12.64,0,0,0,20,25.8a.82.82,0,0,1-.87.41l-1.44-.29c-.15.34-.28.69-.4,1l1.27.75a.81.81,0,0,1,.36.91c-.09.31-.15.63-.21.95s-.08.47-.11.69A.81.81,0,0,1,18,31l-1.45.22c0,.37,0,.74,0,1.11l1.45.28a.82.82,0,0,1,.65.71A13.78,13.78,0,0,0,18.84,35a.79.79,0,0,1-.4.88l-1.28.7a10.86,10.86,0,0,0,.36,1L19,37.34a.79.79,0,0,1,.85.45,13.69,13.69,0,0,0,.82,1.47.78.78,0,0,1-.07,1l-1,1.11c.23.3.46.59.71.87l1.28-.72a.8.8,0,0,1,1,.13,11.41,11.41,0,0,0,1.26,1.1.8.8,0,0,1,.27.93L23.54,45c.32.21.63.4.95.58l1-1.12a.81.81,0,0,1,.94-.21,11.28,11.28,0,0,0,1.56.6.78.78,0,0,1,.57.78l0,1.48.72.15.37.06L30.11,46a.78.78,0,0,1,.82-.51,11.73,11.73,0,0,0,1.68,0Zm13.4-10.91h0Z"></path><path d="M32,41.6a9.6,9.6,0,1,1,5-1.41.8.8,0,1,1-.84-1.36A8,8,0,1,0,32,40a.8.8,0,0,1,0,1.6Z"></path><path d="M34.35,41.28a.8.8,0,1,1,.8-.8A.8.8,0,0,1,34.35,41.28Zm0-.8Z"></path></g></g>

</svg>