<svg xmlns="http://www.w3.org/2000/svg" viewBox="0 0 500 500"><g id="freepik--to-do-list--inject-2"><path d="M239.41,129.51H404.06a5.94,5.94,0,0,1,6,6.38L396.63,352.22a6.91,6.91,0,0,1-6.78,6.39H225.19a6,6,0,0,1-6-6.39l13.42-216.33A6.92,6.92,0,0,1,239.41,129.51Z" style="fill:#1E2749"></path><path d="M239.41,129.51H404.06a5.94,5.94,0,0,1,6,6.38L396.63,352.22a6.91,6.91,0,0,1-6.78,6.39H225.19a6,6,0,0,1-6-6.39l13.42-216.33A6.92,6.92,0,0,1,239.41,129.51Z" style="opacity:0.4"></path><path d="M235.63,129.51H400.28a5.94,5.94,0,0,1,6,6.38L392.85,352.22a6.91,6.91,0,0,1-6.79,6.39H221.41a6,6,0,0,1-6-6.39l13.42-216.33A6.91,6.91,0,0,1,235.63,129.51Z" style="fill:#1E2749"></path><polygon points="224.34 346.93 384.61 348.85 397.61 139.33 237.22 139.33 224.34 346.93" style="opacity:0.4"></polygon><path d="M219.66,344.81H382c8.94-81.91,11.69-126.13,12.91-208H232.57C231.35,218.68,228.61,262.9,219.66,344.81Z" style="fill:#fff"></path><path d="M375.49,193.75H347.54a2,2,0,0,1-1.5-.65,2.08,2.08,0,0,1-.56-1.54l1.73-27.94a2.07,2.07,0,0,1,2.06-1.94h28a2.07,2.07,0,0,1,2.06,2.19l-1.74,27.95A2,2,0,0,1,375.49,193.75Zm-25.75-4.12h23.81L375,165.81H351.21Z" style="fill:#1E2749;opacity:0.30000000000000004"></path><path d="M372.84,236.32H344.9a2.07,2.07,0,0,1-1.5-.65,2.05,2.05,0,0,1-.56-1.54l1.73-27.95a2.06,2.06,0,0,1,2.06-1.93h27.95a2,2,0,0,1,1.5.65,2.08,2.08,0,0,1,.56,1.54l-1.74,27.94A2.06,2.06,0,0,1,372.84,236.32Zm-25.75-4.13H370.9l1.48-23.82H348.57Z" style="fill:#1E2749;opacity:0.30000000000000004"></path><path d="M370.2,278.88H342.26a2.06,2.06,0,0,1-1.51-.65,2,2,0,0,1-.55-1.54l1.73-27.94a2.07,2.07,0,0,1,2.06-1.94h27.95a2.07,2.07,0,0,1,1.5.65A2.11,2.11,0,0,1,374,249L372.26,277A2.06,2.06,0,0,1,370.2,278.88Zm-25.75-4.12h23.81l1.48-23.82H345.93Z" style="fill:#1E2749;opacity:0.30000000000000004"></path><path d="M367.56,321.45H339.62a2.1,2.1,0,0,1-1.51-.65,2,2,0,0,1-.55-1.54l1.73-27.95a2.07,2.07,0,0,1,2.06-1.93H369.3a2,2,0,0,1,1.5.65,2.08,2.08,0,0,1,.56,1.54l-1.74,27.94A2.07,2.07,0,0,1,367.56,321.45Zm-25.75-4.13h23.81l1.48-23.82H343.29Z" style="fill:#1E2749;opacity:0.30000000000000004"></path><path d="M259.88,174.06h63.29a3.78,3.78,0,0,0,3.71-3.49h0a3.25,3.25,0,0,0-3.28-3.49H260.32a3.76,3.76,0,0,0-3.71,3.49h0A3.25,3.25,0,0,0,259.88,174.06Z" style="fill:#1E2749;opacity:0.30000000000000004"></path><path d="M271,188.36h51.25a3.78,3.78,0,0,0,3.71-3.49h0a3.25,3.25,0,0,0-3.27-3.5H271.46a3.78,3.78,0,0,0-3.71,3.5h0A3.25,3.25,0,0,0,271,188.36Z" style="fill:#1E2749;opacity:0.30000000000000004"></path><path d="M256.79,223.94h63.29a3.25,3.25,0,0,1,3.27,3.49h0a3.78,3.78,0,0,1-3.71,3.49H256.35a3.25,3.25,0,0,1-3.27-3.49h0A3.78,3.78,0,0,1,256.79,223.94Z" style="fill:#1E2749;opacity:0.30000000000000004"></path><path d="M269.71,209.64H321a3.25,3.25,0,0,1,3.28,3.49h0a3.78,3.78,0,0,1-3.71,3.5H269.28a3.25,3.25,0,0,1-3.28-3.5h0A3.78,3.78,0,0,1,269.71,209.64Z" style="fill:#1E2749;opacity:0.30000000000000004"></path><path d="M254.6,259.19h63.29a3.78,3.78,0,0,0,3.71-3.49h0a3.25,3.25,0,0,0-3.28-3.49H255a3.78,3.78,0,0,0-3.71,3.49h0A3.25,3.25,0,0,0,254.6,259.19Z" style="fill:#1E2749;opacity:0.30000000000000004"></path><path d="M291.54,273.49H317a3.78,3.78,0,0,0,3.71-3.49h0a3.26,3.26,0,0,0-3.28-3.5H292a3.79,3.79,0,0,0-3.71,3.5h0A3.25,3.25,0,0,0,291.54,273.49Z" style="fill:#1E2749;opacity:0.30000000000000004"></path><path d="M265.75,273.49h13.43a3.78,3.78,0,0,0,3.71-3.49h0a3.26,3.26,0,0,0-3.28-3.5H266.18a3.79,3.79,0,0,0-3.71,3.5h0A3.25,3.25,0,0,0,265.75,273.49Z" style="fill:#1E2749;opacity:0.30000000000000004"></path><path d="M252,301.76h63.29a3.78,3.78,0,0,0,3.71-3.49h0a3.26,3.26,0,0,0-3.28-3.5H252.39a3.78,3.78,0,0,0-3.71,3.5h0A3.25,3.25,0,0,0,252,301.76Z" style="fill:#1E2749;opacity:0.30000000000000004"></path><path d="M263.11,316.06h51.25a3.79,3.79,0,0,0,3.71-3.5h0a3.25,3.25,0,0,0-3.28-3.49H263.54a3.78,3.78,0,0,0-3.71,3.49h0A3.26,3.26,0,0,0,263.11,316.06Z" style="fill:#1E2749;opacity:0.30000000000000004"></path><path d="M360.11,186.1a2,2,0,0,1-1.16-.36l-10.77-7.35a2.07,2.07,0,0,1,2.33-3.41l9.2,6.29c3.36-4.05,12.94-15,20.91-18.59a2.06,2.06,0,1,1,1.68,3.77c-8.7,3.87-20.45,18.72-20.56,18.87A2.08,2.08,0,0,1,360.11,186.1Z" style="fill:#1E2749"></path><path d="M355.1,227.84a2.09,2.09,0,0,1-1.44-.57l-9.37-9a2.07,2.07,0,1,1,2.87-3l8,7.69c3.95-3.53,15-12.93,23.36-15.21a2.06,2.06,0,1,1,1.09,4c-9.12,2.49-22.93,15.43-23.07,15.56A2,2,0,0,1,355.1,227.84Z" style="fill:#1E2749"></path><path d="M337.57,141.73l3,0a6.12,6.12,0,0,0,6.18-6.06l0-5.58a.61.61,0,0,0-.62-.61h-8.48a.7.7,0,0,0-.69.69L337,141.12A.61.61,0,0,0,337.57,141.73Z" style="opacity:0.4"></path><path d="M291.55,119.39h51.06a4.93,4.93,0,0,1,5,5.76l-1.53,11.37a6.83,6.83,0,0,1-6.54,5.76H288.46a4.93,4.93,0,0,1-5-5.76L285,125.15A6.83,6.83,0,0,1,291.55,119.39Z" style="fill:#1E2749"></path><path d="M291.55,119.39h51.06a4.93,4.93,0,0,1,5,5.76l-1.53,11.37a6.83,6.83,0,0,1-6.54,5.76H288.46a4.93,4.93,0,0,1-5-5.76L285,125.15A6.83,6.83,0,0,1,291.55,119.39Z" style="fill:#fff;opacity:0.6000000000000001"></path><path d="M341.29,124.89h-23a1.55,1.55,0,1,1,0-3.09h23a1.55,1.55,0,0,1,0,3.09Z" style="fill:#fff;opacity:0.5"></path><path d="M310.64,124.89h-2.42a1.55,1.55,0,1,1,0-3.09h2.42a1.55,1.55,0,1,1,0,3.09Z" style="fill:#fff;opacity:0.5"></path></g></svg>